<mxfile host="app.diagrams.net" modified="2021-01-04T11:41:24.271Z" agent="5.0 (Macintosh; Intel Mac OS X 11_1_0) AppleWebKit/537.36 (KHTML, like Gecko) Chrome/87.0.4280.88 Safari/537.36" etag="zK84D5rWWXNWCSkyJm5D" version="14.1.8" type="github">
  <diagram id="VUGrvoDEyiflUEQ6sm9X" name="Page-1">
    <mxGraphModel dx="3133" dy="1071" grid="1" gridSize="10" guides="1" tooltips="1" connect="1" arrows="1" fold="1" page="1" pageScale="1" pageWidth="827" pageHeight="1169" math="0" shadow="0">
      <root>
        <mxCell id="0" />
        <mxCell id="1" parent="0" />
        <mxCell id="tFFEeebUZQ1XKsACCaUz-1" value="" style="rounded=1;whiteSpace=wrap;html=1;" vertex="1" parent="1">
          <mxGeometry x="-110" y="290" width="670" height="570" as="geometry" />
        </mxCell>
        <mxCell id="tFFEeebUZQ1XKsACCaUz-4" value="" style="shape=image;verticalLabelPosition=bottom;labelBackgroundColor=#ffffff;verticalAlign=top;aspect=fixed;imageAspect=0;image=data:image/png,iVBORw0KGgoAAAANSUhEUgAAAeYAAAIICAYAAAC7NU2gAAAgAElEQVR4XuydB3hUVdrH/zOThNBCR3oTCwoWBAUVsPf26aro6u7iqmvvZe3ddS0ry7qrrrq6FuxiwQK6KiqgWBEFqaI06T2BlJnv+Z07J7mMk2QmmSGZyTk8PElm7j33nPec+/7ffgKLFy+OyDVHAUeBekeBSCSiQCBQPq6q/uY7mr0+XffGPodn2mfxs6ysTKFQyIwjHA4rGAyacdnv+CwnJ6d8nDWdX71bLN+AklmLZK6t6zlXN9a6Hl+6n5/K96+6sQYiltrVXem+dxRwFHAUiEMBy0Lmz5+vr7/+Wocddlg58Obl5Zk7Nm7cqEcffVTff/+9LrnkEvXu3Vv5+flbCB6OuI4CjgIeBRwwu53gKOAoUCsKAMyLFy/W4YcfrtNPP13NmjVTu3bt1LFjR/Xq1cuA8rvvvmtAediwYfrhhx/Ur18/HXrooWrcuHGtnu1udhTIRgo4YM7GVXVzchTYihQAmB944AE9/PDDatWqlTFl77///jr//PO1Zs0azZ49W0OHDjXacXFxsVavXq0vv/xSAwYMUPfu3Z3WvBXXyj0qMyjggDkz1smN0lGgXlMA3/FRRx2lP//5z2rRooU++OADdejQQcccc4w2bNigTz75xGjOmzZt0meffaYTTzzRaMyuOQo4CvyaAg6Y3a5wFHAUqDUF0JqPPPJInXDCCWratKl22GEHPfvssxoyZIhatmyp6667Tttvv715zvLly3XuuecaYPYHf9V6EK4DR4EsoYAD5ixZSDcNR4G6pADAfM011xhAtgFfaMerVq3S4MGDNXr0aF122WUGiAkQA6TxMztgrstVc8+urxRwwFxfV8aNy1EgAyjgT+qYNWuWAd3S0lIDuERdH3LIIVq7dq2++eYb9enTx8xo5cqV6tKliwkOc8CcAYvshrjVKeCAeauT3D3QUSB7KAAw87+kpERvvfWW3nvvPbVp08YEgf3888/addddddppp5XnNmfPzN1MHAXSRwEHzOmjrevZUSArKeDXkpctW2YisnfccUdtt912Jm2qSZMmJg2KiGzM2osWLVKnTp2cTzkrd4ObVDoo4IA5HVR1fToKZCkFLChv3rzZpEcR2IW/mAhszNO5ublbzBw/84IFCzRlyhSTJkUKlTNfZ+nmcNNKGQUcMKeMlK4jR4HspoA1W5MK9eGHH2rffffV7rvvrrZt28YtsemnBqBMABia9IgRIxw4Z/dWcbOrJQUcMNeSgO52R4GGQgGKg4wZM8YUB7n66qtNhS9M1YlowID6kiVL9NNPP6lHjx5Gw07kvoZCWzdPRwE/BRwwu/3gKOAosAUF4hXrx0/80EMPGV/ySSedZEzWyQIr/f71r39VQUGBzjvvPEd1RwFHgUoo4IDZbQ1HAUeBLShAhLU9AQownTt3rvENv/zyy6Z4CC1ZUOYe+qJeNg2A5xmuOQo4CvyaAg6Y3a5wFHAUMBSwPmTM1Ndee62aN28uToziYIqJEycaMK4JIPvJyzPoq3379iaKu7b9uaVzFMhGCjhgzsZVdXNyFKgBBQBNoqj32GMPvf7661q3bp1uu+0241eOdw5zDR5hbrnrrru000476eijj3bAXFMiuvuymgIOmLN6ed3kHAUSpwDgCwhfcMEFOuuss7R06VL961//qjbiOvEneFdeeuml6t+/v9HEXXMUcBRwpmy3BxwF6iUFIoqUjyugwFYfo9GII9KBBx6oCRMmKBIJ67Y77tAxRx2tvv36plSzveSSS4xW7oB5qy+ze2CGUMBpzBmyUG6Y2UkBA8iRgMIKq7Rok5bMmatVSxZLAT9Qe3Ov+KSCFr7LvGsqw3Ru3uK7ij/4LRIJaNX6dbrxxhu1etkyNWncWD122UUnnX66Tjz5ZAUDtRcWrDl85MiRJvjrsMMOSyngZ+cOcbNqiBRwwNwQV93NuR5RgFrTUllJsRZM/lQTHnlMS+fN9TA0Bgv9fxqQjiI1GrYB+Ch4bgngHiJzRXmzv5Z36AkHi1au1Oq1a9W5bRu1aF6g7fYerCEXXah23bpXaPM1BGgLylQAW7hwoSlOQgCYC/6qR1vRDaXeUMABc71ZCjeQhkgBY0EORPTL7Dl6/y9/1cqPP1ZOICgpGMXlCkj9NVhXgC39AMz2Lmsa9yvK5hqrextV20PmKKxLEZ4rdHflBHK1KVyiwGGH6OJRf68xMFtApjjJpEmTTET24YcfbnzMDpQb4o53c06EAg6YE6GSu8ZRIF0UiALz9E8masxlV6jV2nVGv/UaP6uyTYcNgDfv0FE9BgzUL/Pmadn0aVH9OKL1gZCGDh+uz55/XqVlYTVSRDmBcLn+HKuB27/DkbACgRyFI6Uau26VLnzscfXu3VudO3cqz2P2k8MCrP9wC74vKyvTjz/+aE6cKiwsNOcvt27duhyUHTCna1O5fjOdAg6YM30F3fgzmwJRLXb6xI815rLL1WrtRh8UV+7X5bZIMKTSnDz16NdPQ/50jr4ZN05T335ToZJiFRVv1r5XXKE2HTrpx0+nqPMe/fXdY49r9dyZCimisCIxkO9p0N5wAHwPmMcVrdPd4/+ngoLm5hzlefPmmf/Lly/XihUrtH79egPAtlpYKBQytbMpudmrVy8NHDjQXMs11NWmQIkD5Mzesm706aeAA+b009g9wVGgcgpUCcxV39Zyux3U88CDtGLqNA27+EJNefVVBXNztOzbaSpo30krijbroEv+pKYFLfTayFEq/OhDhTegkQeNTzoe7EeEObtMAYVUplJNKC3WC3PmKBwOGxBeu3atyW8m35kTpkpLS813tgWDQTVq1MgcVkHpzc6dO5u/Y8t8ui3hKOAoUDkFHDC73eEoUJcUqCEwM+QO/ftrh5NO0cxXx+qgi87X5NfHqnXHDlr46ST1O+545TdroQ8mTdDqb6dr6AnHqs02HfTDM6M1Z+KHCkfiA7NHCgblAfOHpZv1wpx5XlwZ99Qw+KsuSeye7SiQaRRwwJxpK+bGm10UiPqYZ3xiTdmFCWYxB1Scl681TVqq9w59dPQl52j67Fma+tIrKpk1S0fefKu67LmHiiIlKl1foqbNm6to7So9c+qpCm5aH6Xhr3Vm4JrkrYhCCkdK9FG4RM/PnlNOcwfM2bX93GzqJwUcMNfPdXGjaigU8AHzq5dfoZZr/D7mqomA1luoRuo+eB8ddvE5mvT6m/p69HNqqmIFckNaFmyiy155Vs+dcpoioaY67Yl/aPT/nayycHGlecmYsgMq+xUwO0BuKBvSzbM+UMABc31YBTeGhkuBGGBuEQXm6sp5lEUCarlLf514/90VqVX0FQlr/G1/Vb8TjpUiIY294Tr9duTflN+hvb557kV9+dTjJjLbs6DH05gdMDfczehmXl8o4IC5vqyEG0fDpEAUmGdOnqTXrrxKzZatNv7cxMpyBhQJBAwYm4hqX9URKnmFgqUKKqiNZWXKC+QoGAgrGCDwyziMKwn+8pmyVaLJoYCe/n668y03zN3pZl1HFHDAXEeEd491FDAUMCWqI1q5cJE+GvV3zXvtdQVNYFYgWtnr14U4o98qEPCqhnnNO5KRHGQylU2JErrgAg+HE26MJ0iBkUBYXX53uk659lrTlzNnJ0xCd6GjQK0o4IC5VuRzNzsK1I4CXuWvsAJh6fuPJ+i9fz+oUFFRFTqtB+QGuH2WaAvQfPfd9B/UtVMntWrZYovB/apctv9bH3h79btzVNi0qa564nEpmONp8S4iu3aL7e52FEiQAg6YEySUu8xRIB0U8BRZ72SnLVuVMGqV5ApsNv5lr6/hw4eboxv3HbJvhR85tu52vEeWD8B+WQH+DpTTsfquT0eB+BRwwOx2hqNAXVIgioEebnoVrrf0AFdhgwY3OU6q3OrtXXvyycN1YTkwl2P4r7TnyqZta4DZoy88Rbm6cLS6JKJ7tqNAdlHAAXN2raebTQOmgK2uddJJJxmNeciQITU2P9u6105TbsAbyk29zijggLnOSO8e7CiQWgr4gfnCCy80wOyao4CjQOZRwAFz5q2ZG7GjQFwKOGB2G8NRIDso4IA5O9bRzcJRoPygCEzZTmN2G8JRIHMp4IA5c9fOjdxRYAsKOI3ZbQhHgeyggAPm7FhHNwtHAacxuz3gKJAlFHDAnCUL6abhKOA0ZrcHHAWygwIOmLNjHd0sGigFYtOa+HvEiBE6++yzNXjwYEOVcDisYDBY49SpBkpaN21HgTqjgAPmOiO9e7CjQO0psHHjRvG/VatWxpTN/1AoZICYVlJSoiOPPFJvvPGG8vPzHTjXnuSuB0eBtFPAAXPaSewe4CiQegoAwJs3b9YLL7yg66+/Xu3bt1dubq4WL16sUaNGad999zWgfMwxx2jMmDEaOnSoPv74Y+Xl5al169YGoF3xkNSvi+vRUSAVFHDAnAoquj4cBbYyBQDmL7/8UrfeeqsOOeQQde7cWX369NFrr72mQYMG6YknnlC/fv101FFH6dRTT9Xo0aP19NNPa/r06XrppZfKA8W28rDd4xwFHAUSoIAD5gSI5C5xFKiPFACc0YYB4SuuuEIdO3bUgw8+aID60EMP1XXXXaf58+cbEJ41a5bIb77qqqucplwfF9ONyVHARwEHzG47OApkKAUsMF9++eXadddddcIJJ2jFihXmd8px3n777erbt68aN26sxx57zGjUd9xxhwPmDF1vN+yGQwEHzA1nrd1Ms4wCAPMrr7yihx56SOecc44BXPzO22+/vXbaaSfttddepgIYPuXi4mLdeOONRnOmOf9ylm0GN52sooAD5qxaTjeZhkQBgHnatGkmAKx58+YGbInQPv74442mfP/99xtAthHapaWlxrztQLkh7RI310ykgAPmTFw1N2ZHgUooAFg/++yzJoe5R48eDoTdTnEUyEAKOGDOwEVzQ3YUqIoC9jxmUqRccxRwFMg8Cjhgzrw1cyN2FKiSAg6Y3QZxFMhsCjhgzuz1c6N3FPgVBdyxj25TOApkNgUcMGf2+rnROwqUU8AdYuE2g6NAdlDAAXN2rKObhaOAKSRCO/nkk3XBBReYXGaai8J2m8NRILMo4IA5s9bLjdZRIC4FOEFq3bp1pl42p0sBzP379ze1sfnMgbPbOI4CmUMBB8yZs1ZupI4CVVKAutl33XWXyV0GiDllat68eerUqZOjnKOAo0AGUcABcwYtlhuqo0BVFMCUzTnMlN+kqMiUKVO02267lRcYcdRzFHAUyAwKOGDOjHVyo3QUqJIC1r+MxnzfffepoKBA77zzjrbbbjtnxnZ7x1EgwyjggDnDFswNNzspEFFEikQU3lyscHFxDSYZ4XbT/vD73+mPZ56pfYcMUTAQrEFfJmJMOU2aKBAK1ez+TLkLsodLVbq5OBo8BxEDdTb6nLxcBXJyzRACdTiOOiOAe7ChgANmtxEcBeqQAlbTjYTLVLhgvtZMmaSyNasNOFh4iOLtFqP0vuObkBQIl38XDkuvvvicBg4arC7duhsGH1RA4fJO4vUWhwCBoHK7dFX7/Q5SKL9J+QXZEETm0RwKRlS2eZOWTv9WjfObiDUwJK2uJYXbVVxsnxW9JBKQwuEyNe/cXY1atFAwFDLCVjbQvDqSuu+3pIADZrcjHAXqkAKephxQ4bJfNPeRf2jdq0+pSU7IwIYHHVW0SCTKtMOKKGD+W7U5GAjI+zSgUCCgkogH3vTp6dBcX2XnWlVcppZX3KH+p5zu3RFICpHidm4FkVT0VfNliygMZcJlWvTtV/rliy/Vd999vPlFzIqkvRlKmgeBvNFfA0Etnj1HheGItt3vAOU3L0gZ3dM+IfeAlFLAAXNKyek6cxRIjgIWBhZPmaLvb7paHdbMN0DqmaU9iIiFQ6vvleXkqaxRE0U2rFMgEFSgcSOprEyhzZtVpKCKFVRjlao4EFKewsqJhBXydbZlvxVAHdXDVRyO6K2cdrrm48+MaTsVYMoJVzQixm1/Fqz5fP369eUnZRkKWPt8lKy1GUO5UBAVStCQJz35sAbuPURlxuSfkDiU3AJXcnWFNcQDZovOrMJ7zz2vfUb8Ua26dPUsJykQiFIyaNfJVqOAA+atRmr3IEeBX1MAYEarXfTpZH13w+XqtGHJFppyPB3VatLBrtuq4IjfKLximQLBHAWbN1OkuFir3n1dubvtqc2FJWquUpV066EmZVKwZJ1WvvSUB/xVelK9b9G4x5Q2042ffWuA2cBHDUECUOT/hx9+qPfee6+8n1atWumMM84QP4kip02ePNmcI0375ptvNG7cOO23337mxKzaPP/jjz/WDjvsoHbt2pvpAMyTH/2X9tj/AEUQZEpLVVxSqqaN86MLBWgGtWbtOjVr0lSbijepaZMmCiqi5StXqWWrltq4oVAtCwowegihw1gtFFEo6AkeUDpsaBYw96Gp830wEtEmBKjizWpZ0EIBQ/KwApGA3n36Se1z5p/Uumt3I3DZim7u/Wk4FHDA3HDW2s20XlLAA0GA+fsbLleH9UsUrMRibAEZZl+qoIp69lXbo3+jdd9+qUggJPXYVvlFRdr07hhte+UtWvjVFPXY5yAV5+boh8+/0E4dW+unO69SSJ6eXp1hGmX1pXAz3fLZt+Xm3doA44wZM/Tqq69qxYoVpuhJ+/btTeT4Aw88YM6UPu644zR+/Hg1atRILVq00PTp09W0aVNz7a677qpDDz20RsBsNWVAniMxN2/erFtuvlkFBc316aMPqf/++xvrwLezZuuDDyaoUW5IA3ffVXsOGKAJEydr3AcTtH3PnmrVrq1+njdH5591lm649Tadf955evCxx3XkwQeqTdt2WrNmtca9/4Gat2ihg/bbX8WFhdp+21764pupmjV3jpYsWaQLzr9Izzz1pP50xghN+uprTZg4SY0b5WnPPfpr2D6DFApL4575r/Y98zy17drdgXK9fGfTPygHzOmnsXuCo0AVFKgAZjTmjgkBs1SqgNZ32l7NDj5SoQ1r1Lz7tgq0aaPc0hKtfPIhrWrSSl2P/D8t/2yiCnrtoNzuXbTm7bcVmDhWeUT8eipanHFVRCSVhaVnixvrgjferTCr11Bj5kEbNmzQm2++qc6dOxvw7devn/7yl7/o2muv1axZs/S///1P3377rUnxKioq0rHHHquuXbtq/vz5xsR9+umer5sqZytXrlRJSUlSOwuAPuecc/T+Bx/okAMPVKvWrfSHAbtpz4MO1swFC3X3Aw9o7qw5PEBHHnKQhp94ksa9P0GffPGF2rYo0LKVK9Q4N6Q/jfiDhp9xlu686UaVBEJq36JACxctUrvWrfXfF19USSSioYP3Vqe2bXXAsCE697LLNGvmbBUXbtDpp/1OyxYv0K23365JX3+j0S+9bPzaV5x/nvpu29No0u+MflJD/3ie2nTt5oA5qRXOnosdMGfPWrqZZCQFPIBcGNWYqwZmz/BNYFcZttM+/dXj2jsUXrtGy36Yoflz5krBkPI//1AdDj9WXY8ZrtXTvtRPS5aoU7MmmvvTfDWf8J7yls/zfNLVhDmVRSJ6obSprvkAH3PtiYvm+7e//c1ozY0bNzbmarTis846ywDvlVdeacD2q6++MiD817/+VdOmTdNnn32mgw46SD169DCDiIQxA28yAJ1sGz58uNHKy0pKtP8BB+rmk47VgP0P0NyfF+r18eOND37x4qU67NBD1K1zZz3zwotaumaNduzZUx9NmqTte/XUeWeN0JHHnqAxL76g4tKInn3hWbVs2UptWrXWc6+8ovymTbVLv35avmiBLrnwAo168GF99fU3mvfTT9pr0F4qLSzS3Xfcptk//6xQbr42rFuvgib56tSutXbZcUe9Pfq/GvrH8x0wJ7u4WXS9A+YsWkw3lcyjgA3+Mj7mG69Qp3WVm7L9swPON7Vqrw077qHWTZuoOJSrzyZ8olBOnnoU/qK9brlXLXbdTV9ed5W2O/dSzbn5MnX/821aeNXZyinZVKm5nGeAwV56VUSvlRToui++NY+uhbLsAWokYoAZzfn//u//1LFjR/3jH//Queeea8B3l112Mdf9+OOPxg9955136u2339Z3331nQNsbQ4WEkKjv1Zqy8QFzsEdebp7+ctdf1HGbbfTL+++o/377adHSFfpy6lQVtGqjBYsXa2D/XdUkN1ePPvWMXnnzbfXvu7NWrlmtu267Rb2799DgvffWpRdfrPWlJfrkw480eK+91LptO40Z+4Y2l5Zphx49tPDHebr19ls1ddp3euGlVzT1m6lqvU17HXXAATr77LP0zYwZhtpNmzXTjO+nqe9222rQgAEa98yTGhLVmGPnnHk73I24JhRwwFwTqrl7HAVSRQGTLRXRos8ma9oNV6rzusXlkdO/TtvZ0vwc6thNzU+9QK132lkKRvTV2+9owWeT1HbZfA245R4V9N1NK997R633P1ybZn6nnI4dNP2Ug03wlz86O3Yqno87oJJwRGNLmunaL6alxJQNQD7++OPmPyVDAVnAcvTo0UZLRoumrVmzRgRqjRo1Sps2bTI+4ZYtW9bIv2wFAn4+88wz2nHHHdW1S1e1adfG0GHiYw9qj2H7ac26Qj396itatWKV9hwwUNOmTdXhBx2iN94cq0dGj9afzjrbBOktX7FcV194gTYUFqplswIVlRYb8/z8n35Uvz47a8xbb6ldh47af+hQjXvzDWM679K9h0aMOEOzZsxQOCdHu++8k/5y5x16+eVXtEvfnbX9Tjtr6fKl6tGhgzq2a6/xowHmc9SmWw9nyk7Ve5Zh/ThgzrAFc8PNLgp4GnNEiyZP0rQbr1Tn9UvKo6armynRvqU5jcg9UmkkrM2lEW0qCSgvvEl5TZoqPxhRTrhUy4JN1SpSpBVqrG02rVKOyZutPPwrHE1R4ufY0qa67vPvvUpUtVWZJXPABv/92i6AXF5oJRq9jZk6P9+Ljk5UM66OXjw3JycnGi2NVSCiiY/9S3sOHabSYI6KS8uk0jKFcoIqKQsrNyekMJHapSXKyc1RKBAy+eCNc3MUCQZMBDWEKS0pMxHegWBAJdyP4JMTUmk4rLzo84o2F6u4rEw5CikUDCinUa7KSksUQkDJyTHmeYLyuPedZ5/SkBF/UhsTlZ0CH0J1hHHf1zsKOGCud0viBtSQKGDgMRLRL99O1Yw7b1Trn6ZVqc1W0MYDVvzNpWEvScekAJGSE5ExVdsEHYK48Mbmh4Iqi4QViaCtevfEbdFqU4RWTenUV2e++Fq5GTsbgMJ46iP46cOa9uoL2nGHPiprlONV2TL/PNpAMz4LhgMGiINR60aENChzrSdUhYMBz99t6G4IH+0jqDKTiOVVX4tAe5Oq5n0W5tMt05gVKC3R+6++rMG/O0utOnUxy5MNNG9I73Qq5uqAORVUdH04CtSQAjB+TNmB0jLNfeMFzfz7PWqdG/QQwUROb9nKi0XZohTRrwHjwo0btW5zmVaVlKpJXq6alJWoRdNGyqfmtemPTFqAB3Cu6LdCKYvmKssDrUWbS3XC2AlSQatotbDsAAlLc2ixefUKvXLLzTr0/45XMAe4jKV5RSmQuGsR/bAsIm0s2mToRB70lndZsK683ppd108/mqDdjzxWHfr2VSiUmzJrQQ23p7utjijggLmOCO8e6ygABcqMNuWV5QxTfoIDLEgDMppXMH7ElUEWzxi9bt06LVu2XLk5ORoz+mlNmDRZ386dpyH7DtbyeT/qjN+epv2OPlqrVq9W84KWat++nam6VW3DNNs4RwrmefpeFllUPej1tGaKqChcqgBmBcqWluOyB6YV4ejQ3LuvvFmiRKSSslI9+eRTWrt6pY497lh16NDB5GDbAqimAklFHU4f+Sv6M7JTTkgRU5zE88G71jAp4IC5Ya67m3U9oUC5BgzQRhl3hbEz/iCLCgs1Y8YPymvUSAt+/kkPPfiQhp8y3PwHQU8efrIuPP8CDR0y1AD/+Hfe1QP/+Lv2G7afTjn1VC35ZbE5FrJnzx7KzQV4bbMlTKL4A5aAR8gHqciXqic0N3IQUwyEFYxEk8a80yKqTwsrx9EtffSWcl99+ZWef/55UxBlv/2GaZsO25jDKKoF2Yr0cV8p1hqeDFZf6OzGUWMKOGCuMencjY4CKaCA0Xy3NHz6ebT9hujlr7/+WuvWrVe37t3095Gj1L1bN11xxRVeIJevlvXJJ5+kCy64QEOGDtlCwQuXlWnatO9MilKfPn101NFHacHPC9ShwzbafvvtTdEPoxNGtXELJp7ilj3am/UxGyXWd2gFfycDhd4BJBWnjZSLNRHpgQf+qXbt2qh5QYERkJo3b+5dWgkZrWuhQjSiRnYK9lcddFHZQSX14wCTOiBIDR7pgLkGRHO3OAqkkwKWgRFQ9P3332v27Nkmx/eNN97Q4sWLdd1115WnD8UyO/4++eSTTfEOcnb9zX8gBL+TokQKUf/+/U0VLvKHKZO52267lacukdbkWnIUsHReu3atKZKy9957G7M29b4zkZ7M5+eff9YXX3xhctCpWd67d+9fWQGeeuopE0nPvmUfsf9WrVql1atX66efflKTJk3M561btzb/E3KpJEf6rLnaAXPWLKWbSKZSwA+u/A4T+/TTT00BDnzI1HimIAdarp+xV2YePemkk+ICc2Ugzedo4xTz2HbbbbXzzjvr888/N1rekUceaRiqa8lRwC8EjR07VsuXLzf52KeccooRquqb9lhZShqfA7TUGL/ssssMyFKpjUps/H788cfrueeeMyVUr776aiPklZWVGeGOcqsIldz/2muvmfKqAwYMUKdOndSlSxeTuuZafAo4YHY7w1GgjihgT1zi8RTV+OCDDwwQA45z585V9+7dtddeexlgrNZH6cv3TQSY403ZlrhEMHjrrbfUrFkzw4BhyuQan3rqqeZwCZo5OSlTba11sN6s9X333ad9991XU6dONeBGqw8atD+HPHZMfN46vusAACAASURBVAfQ/vvf/zbAjEuFk8CwyLBX+Yz9ATDffffduvfee/Xyyy+bz6l5jhWGe2bOnKmddtrJBMX17Nkz4T1dB0tVLx7pgLleLIMbREOggF+LYr4wLDRjTljCzIlpb+PGjQaM27VrV06SRAHQaj01BebY8fE346G2Nf5nNOkxY8YYxnzCCSdom2222WLZEh1nQ1jr2DlaIWzBggXmGEv+HjhwoHbfffek1znV9GMst99+u5YsWaK///3v5UVYeI4dN24PtF6Et7Zt2xrzPHuUA0lefPFFzZkzx8QuTJo0Sb///e/10Ucfmc8QMDGBA9wIedRLR6vGGlMfhJJU0zJV/TlgThUlXT+OAlVQwDI4wIvTkq6//noNGzZMBxxwgPEj4+NFk6gNuNUWmCsbvgVsTJfUtEaDx5eIQMHPE0880Wj3iZjZ3SbxTtnCdYB5e9myZQbIEHzqwgph9yUxDOxDzO15ef5IfQ+csaAsXLjQaM9ovtQyxyzP7+wJjvIktuHwww83tc3/+Mc/mj3NaWG4Q6ymjfkaYAega7PXs30fOWDO9hV289vqFIjVPBnA0qVLdcMNNxiTMD9hzPjZ8Btb03BtB5ouYPaPyw/SaEQwWhj5E088YczxBKbZU6BgvPXNl1pbGqfqfujCngDEOEEL98VRRx1VJ+DMnCZOnGisI2i1sZosWjK+Ymqccw3nYjN+APmiiy4qt+689NJLRmv+zW9+ox9++MEEf1FH/PLLLzfXcy97BR87QmisAJAq2mZDPw6Ys2EV3RzqDQX8oIz57p577jFMD1MhkbkwPXxv6Qh82RrAbM2bVtvhmcwTEy1HNiJscGQjEckEBeFTrEi7ytD8nzTtLmiHhgpAQyu0Zvz4mIjrQpuMJ0RZHzOaMho+PwsLC43Wi+ZPIBembLRl5nLXXXdpxIgRJl5i//3316JFi0xON40DSdCUAWSsLs6UXfnGcsCcppfOdZvZFPAHxFgTY+xn/hla7RCTHb44jjc844wzdMwxxxiGRJqIzRNOF9PdWsAcb2X9AgkgjZYFA7744osNcN92220m5cs/d0szP8hXZj1IF83qwy6FdlgboBPWFAQbtE0LXHU9d//a8jt7nLHZE8IQwihYwziZB0GD7Hl7OAmxE37Qjzefup5jfdgHW/CTSDy7W30bpRuPo8BWpgCvBWZGtBn8wBb0/MPAHEfwFkFQ+N9++9vfGpMkoAwzAoit73BrDL8ugTl2fgAz40G7ogHW5PRCJ9Jq0Kag0bvvvqtBgwYZZm6Bms/RtDCLoplhCm0IjBuaQS8qh+F7Pv/8802QVF3PPRYirF86NqaAz8mzv+WWW/TQQw+Vj5vPb7rpJhMIRmzFDjvsYKwrkydPNkGPlQljW+Odqa/PcBpzfV0ZN646owCMBCZJwMuMGTNMagtM6NprrzUmO4orENACMF911VUGOIhCtRpErLl3a02kPgGznbMdk5+5E/2LfxpmjU+aKF3A+Nhjj9X7779v/JO/+93v9Nhjjxn/KwycNBx7XvPWomddPMeCHprnPvvsY/LJbbrc1gDoeAIo5utPPvnEmK7Z5wT8cV427hmKjaAds45EarO2gPI111xj3DWsK9H8+KexmHAvEd6YvRHWXnjhhToXPOpinat7pgPm6ijkvm9wFIA5ffjhhwYckOxhjJgYAQkKKsCM0KQx6WF+hNkQHHPggQfWKZOpj8Acu3ks8AC+pOYAPJyTDDOHuf/vf/8zwEy+NAwfM2mbNm2MKyDRfO5M3rBWgEEwRNADnImATmeRF55JhS4AOJ5/m88RmHgHsB4hjGK6RiC99NJLTdoXIMta4SPHz3zYYYeZ9fvTn/5kAsrwORMsRh9ozURr4+rguU5j/vWOdcCcyW+xG3taKGDB4/XXXzcMZMiQoQqHywxYH3fccSaSGjDhOgCFtJFu3brVWURtrHZa0zzmtBCzkk6teRMfPMFwmDnxR6ORAQQrV6402hZVz2yFqfric003nfzWBTTnUaNG6cYbb0yL0GetQ2izs2bNMpHTsalMrMcjjzxiAPe8887TmWeeaSKrDz74YD344IPGhYNLhyAwQBv3BG6g8ePH67TTTjNBY+QyU8mOyHM+Q8DF4kRFOwfMDpjT/U65/jOcAmgqMBIkeRgVuZ1UMYIxARSYsqkbDIAAzmjNFOCAMW0NU2NV5M0EjdkvRGDKplDJjjvuaMzVmEf//Oc/G1C++eabDWAzJ74nGIrPbb3lbI/oteDMT8CMmuaAYTr2GHuY/GP2u02B8z8HYGa/4//mGr4jQI0x9erVywAswirVwdCisSixVvjJORwFyxOxAlSUI0ofjRk/Oq6KkSNHuujsOC+105gzHEjc8GtHAcsArf8MBrJ+/XqT4oTZDhM1vk/af//7X2OWI1CJ/Ey0C+6HmT366KNpYZrJzC7TgHn06NEmlQZNiobWjD8SAMCnTIUxQKBv374mQAyNDCDA3PrLL7+YesyYuLNZk2ZN2Y/sPU4MS7V2afc/Wi5AivUn9nAJgHn69OnGL4xmjQti6NChpu41GjRBfbge0O733HNPY7IGpHl3EGhpvC8EhlGaE0B/8sknzWdYA1xzGrPbAw2YArHRpfjACPCCEcFQ8HFSDhO/WKLNHyyTDm0m0XFwXaYBc3Vzi02jstc//fTTRoM7++yzDXDjkwak0dpsak5dr0V1c0vmewQVLAaYg9MxL792Hq/6mP3evx7W3eNPhWKcWDoAa+pm43v+wx/+YKZKfXDiMagGBrBTKQ7Ap+pZOuaUDH3r47VOY66Pq+LGlHIKWOZCMBeBKASroBFzVB1BKJhQa6KNxItiTfngE+wwk4A5wSmZy2IFKptWxeeciEVgEsFGmEkxiWM+JUIYX2lN1jSZsaX7WuaIAIkvHq22rlrsGsSOgzUBmONFzqNp8z3vmf998Zf/BKRt0R0H1OaccHtEd10tuXuuo0DqKBBvO/PSUwITLQuTKD5k/MT4izGF+lumMYV48/Wfx+z/PtPmVt2u8M+N2AACjojqxieNS4Jo5j322MPkylZW/jETaEIsw5133mnSy+pC0IDOmKcxPeOLxodsBSboB8ByxCPaM8CMqwFNmPgMiu3g8uE6sheszxz3BO4KhA6EYszb3Mdcqb2eCetS3f6szfcOmGtDPXdvvaOANbExMIpZUOoQJg0jICcZRk3h/WwJHrLz9TMyAmsQQDAX2rQbu1DZzPAsUCOI4fcnTgDzNj5aIurxi2ISjk27qs80YU4EZ+Fj5mCIugJmUgURbDm2klgAouVp1MrmRCmKxlBMhzxm8vxJm6KmNkdCoklTutNaOrBUcS3WDsAcECeNinWjPsAhhxxSJ/OsT8zMAXN9Wg03lqQoEE9bxFRNChMRoNTspYIU1ZMAZL/WVJ+ZcaJEsPOfN2+eCYYCiJkXTI9gHIQPNC3OxCU4zTL1bJh7VTSK3RdEEhO8RJQ3+4EoevYDkcXxNOn6Rh+AmUNCAOZ0jA164f8FGG09dz99+R5LBMA8fPhwA7QIvYyFCm4UDKH8LAGUaLz0AX2hM2czk98M+DIPgr1IlSJg7JxzztHDDz9sCpVwAAbfcwAGIF4XAkii793WuM4B89agsntGyingD1hBK3zjjTeMOYzUJjQimAQRv7bUY8oHUA86ZN5UZMJnTnUyBBAACMaGv+6OO+4wkbMwRlsIBQ0nXoBPPZhO2obgB2qAmWhh68KgfCQaHpWq2Cv10bKQTmC2FhdAH/cOR3myd/wCANcAxPfdd5+xPJFXjuWBgEmuI2sBcObdw9xOgBdlN0mTYg+SEkfuMkFfFCYhzx6LBtH49GPPpGavEnhpo/TTIYSkbZOluGMHzCkmqOsuNRSIFwnq7xlQwm98//33G/Ah1xMw5shB0mwaQoNGpJ9QBIVocsyI+PUw2Xbt2tUEt+H/g1br1q0zPlfo05AZHvvCBiCxXwBpBDm0QHydgAo/qTZmG9f7XR/xgtHSud/SCcyWHgAuQh0CXGx9d+YLYLO3iH4nqI60KWuV4UQxrqGgCKZotODOnTubYDxS3BB40LSxYNkzm9mDpGcRuc217GPcL0TcQ/uGvkcdMKfzjXJ914gCvOSYpP0ViAAXXlbAB8kbCZ5KUUjXBJwAxrH5lzV6eAbdZDUZrAVoO2iB/IQJAtSkEQHMHGJPYFRD1JYTWU7oCJ1wBwBK+FM5iASQ5iAJhBx/rrTdn9CavOp0WyDSCcxWyOB9wgxNsZBYIYRiO+QgA8DQx1a9A3DRrtGMx44da8CVAiP4i6mahxaO/xmLDeZrgBn3AQFkPJd3GYGA4jxo1VzDHnXA7KKyE3lv3TU+CpSbkANsHu8LE9Qh7w9i/Ks9dbf8goDpIxKIRPuin7DxdbVvv41WrlyhcEQq2VysF198SXfddacuu/xyI3WHIxEDyDmhUMXoAnRMhxXjyvbFAxz4jzkQhooAQ6QrZm1OZ4I5wkBh7jDU+nBaUZ2vidlzFfvX7t2AAgYwSkpLtKmoSMFQSJMmTtTNt9xi/PeAdYeOHaSwtHT5Uh1x+BF67NH/aLfddzVbrtp9X+3EzQiifTFA74Z0AnPskKw1IdY6Za0G9nsrKHMd+429hZnaukz4GxBHwOZafuc7ex4z9/GeY8lB88Z6gb+f/+kWdKpdhnpwgdOY68EiZOQQImHD3CKRoGEmBqD5abAxcRbFnVEcNbeWlJapU8eOBpRnzZ6t3XbZRceecKye/u/TSAAegBueFfOMCAwtLClHCvCTy4MZSdpkBk21JSJ2yceGocHgqGmMSdFqzXxOQA4adLrKOiYz5kTAoDb9VXev2UJRgdAAjvkgoHB0//KdBWk+9wTOiBGABg0arCb5zfTJpI910603mRzqkff9zdDb7M8kAdrufSPR8gaZDiIKiPdq6wNzdbQDZL13K7DFsY4WqC1w2+/5O/YeG50NMGPl4qf/ZDbbf3VjyebvHTBn8+qmaW7mZTMaB5pumcpKi1VWvLlca7bMrNLHl3MjWBEAj6YS0KZNpdp78BDNnjPHMKcFC39Wy+ZNpUhYQa7xOOiW3UY/Kme2waDy85tKAQD6V/CdJorUXbexGg5/YzrEb2oLOtjRbU2/HcyY/5hBSVdD62NsaExoWDYKmHFyDdYPhAZbFCSdFAVaPPwLG4vM5rIyFRUXGzC2gp9fWLRjQfRjvwPgSxYu1uD+A7WxqFB9dtpRt95+u/Y78GCjZfu2d6XT+LXoGjH0CQYDapqXp1CoIgBra2rM8QbMuFgv8pExU2N+JoCL/WT9zPiJCUTE3E0UPNdYkz9BY1xHgKLdAwAxQXdEY1MQhuMfOdCC763wuDX3azr3W036dsBcE6q5e7xqTJGwijcu0+wP/q15X4yVImVRjSFWb/CzOWs49IiIbmAYpIIa+97PmvnLRq0rkYD5vNxGuvy0YWqleQorpJDhZj7TdVQUML1HjIVRym+nA8+6X83a9/EgPHHlPStWlXXB1I9vlCCwumJujIM0LVJiCACinCSMHf8iueVo9Wig+BQ5q5dI31deecVU8Er7mNkrASkYiWjNpmK9M3WqXnnvQ0UA1ai2XL5vrBHI7CXAM6DSokIt/uJT/TJ7hhTMUSCUq2btO6nLHv1V0K6dt+n86Bz1sPj7LBeWtth1EfXr1kUnDN1H23XupNyQZ/Gpa2Dm+QRlXXnllUbDbd26tamchy8YiwFmawCZ+gAEZFIvgDO2Ebj4nghsgBirDe3oo482Ahi50FyPf5kyngRxUsITt0xDN2c7YM4KdlwHkzDAXKpFX72olZ+NVNuWeZWCoKdpYOE2tu/ywXr8ytNSPEYZtYIHchSOhFUWaKJwuLHytUIRw6PCChjnoAV1c3f0j4jXv4Ka+lOODr96vALBnDogTN0/Em2GAw8A5rpq+BaJ5PXMv4N04YUXmgpcRDwTSEReLIUqYOqANhG6aFWk3WwdYPY22/gZM7U6HFbrFi2MBSgS8EzIUcNyNGTB23NBnCWRgObO/kFtGjVTuy5tFQnmGaGSPW53to2ZwBxtwFyYy4PGTI0IGjDuHy+2wjplzDsSCKiEAyO+nabT9xmkbVq1NMuHqTfdeczUsiYynbWKV3wHQQsfO+BK8RCOoSR+Ac2YlCcAmNzkK664wrhMSFXEzfKvf/3L+JnxMZPDTJAm2jFpVFT4ApBvu+02s1/RoCkuwnOypQBQTd8/B8w1pVwDv88wkrJirf7+Ja358p/Kb2Q9zb9WUy0w802wUTMF81upuHC1gqE8RUpLFcjNVbhko4JlmxUJ5Km0cWsFiksUKduknHCJ0J+t69qD4QowLvcBGoj3vpm3PF97X/CmFGpkGGvaGX092wt1fR4zTBztGO0HzWmbbbbRlClTTN4r+a2YsmHWXENQFSZ3qnRRGAYtKu1MOepfxl36jzfHacfddjUuFU949GIl+H3NilXKb9xI+U2befsvElFZMKRfZs9W41Zt1LZ9SxVvLtXmjYVq1LSJ1q1frxXLl6tdm9YqLCzSxg0bzc7o1Xtb5TTKk4qLtWDhInUmyjsQVCSIT9nuaJ4ZVDgQ0TvjxuuSo45Qt23QvtMPzLgcSH8iHcpfv9q/rZk7dchJL0NQoLAIqXe0CRMmmIpgaNHcT8EbtF7+/uc//6ltt93WFBwhm4Ia5mjMaNj0w57gIBnylzF5Mw7Av6G9s7EsxAFzPWOqmTMc1NxirZ7+stZ8/oABZpoNA/PPA00EhoPOEWjRVXkdByq8eYMxTxevWabGrbuoeNnXKlu/SOEOg1QcaavNxYUKbFyhggIpd9nXpudw0AuKKW/G7mif6wEzT/lpeZ4Gn/+2p82Ew4ZREP2JqSybm/U31zUwm30QiZgzee+55x7DZCkwMX/+fOP/5uhMNCvSvAhaI+UIjY0qZaQqGdEruq5pWy9ANiKNemu8+uy6iwfG0f1TXFiojStXaMJbb6lr927qtWMfLzArJ6Q2nTrrlnPP0W/PPlvrNxUpJxzQwnlz1HWHHbVy7RpN/+ZrHX7wIZo5a7bWbNygr6d8rqtuu1Xt2rTVuy++oOYFLdV3QH/Nmz1b/QYNUjhkrToVoeJvjRuvS485Ut2MWdwzZduSnKmmC+vEfwqskL70n//8pzztMLbICOlkaLfUzb711lvNOqIJU+502LBhJk8eYCb1ineNIzxJo0JDBmzxQbPWHMhB2hQaOsCMNYVn4X7hM5cu5dKl0vbeZ3vHRgsOl2j19Je0Zgoaszdjw95i/LqBMMDsfVjWrLMadRygJq06KNi4kwrXLFHT1p21/vsXVLj0BzUfeJkWzPpaxSXFUjBPO/TppcLPH/bCaG1kTjziRh3NPP+n5bna6/w39fPCpcZvSbUnaiYTfJLKFi+1JJX9J9tXfQFmm1IHMONfRrvCr4xfkYMMYLx8B6Pn6MYxY8YYMzemUIKB0g3Mhk7sRQPM47TTrrtGSe19vnHdes388nPN+uprLVu5QiUlpaCjDjnxRHXq1lWXDD9Jp553kdauXKnPPpygdatWqP+w/dRt256a/vkUnTT8VBWWlujnxYs07uXXdP2okWrTrKmeuH+kttuut1atXa2CVm108G9OVHEwGn1dLmCG9c477+riY45U9/ZVa8yWzrUFa9uPFahiLRZYOPAF43qgoQkT8Y9Lgmh0vmP9GAfATD4zmi8NYEYoRkO+/vrrzX9bC3vp0qUGoNkDgDv50GjXDpgdMCfL+9z1FeqqIpESrfnuJa3+ogKYva+3RGbLCI3ZrmlHqWBbBZu0V4ddjlSkZL0CjVpp+aQHtGHJdyoYeLF+/OFrRYqLpJzG2r5PbxV+/oAH+vHSpLZYEU/rmLEgoo83DNXsH382gNCtWzdTUB+Tqp8JJbqYlvHFMkC0AA6WtwX6bRpIIozSD+r+Mdl7q/vMjj1Wq+HvraEx+8eHSZL/BPsQHETeNCCMuZqqZNAdwKVgB9WgMFvjl8SniBkbEzb+RnyT6QhYs2PlcA9Ao6yMMMGIunbroe+KinX4scdENXQvea+ksEjjnn9OHTp1UmlA+t+bb6u0aIMuvvEWzZo9R889cL8GHXKUDjl4P119wcXq0L6dBh92mMpKSvT1xx9p+G9/p2+nfq3XXn5VwUBEf3t2tMa/8LyG7Le/Jk74UAXNmqnfgIGaNXe+9th/mJq3aBmNlUD4DOvhfzyoO849S9t372bqSFM4Bl88dAU0qTv95ZdfmiIegNw+++yTNguDjcjGFcHeYt1sYBbWDoL1OCSEwiRci4WKgjasOdcRoQ1YA+JYRaiFjdZs3R0UF8EMzntKdDaVxYjQT+QdSvT9zcTrnCk7E1etXowZExjA/KJWf/Gvco05HjAT8BWIRrSWKFebG3dVqz5HqFHTFlq36Du16jlIG6e/oo2/zFRxpwO0etUq5eQXSEXL1bZdOzVa+KZ5kRMG5oVhfZdzrCZ+9qUBBKJFqYZFGkZNmh9wbb4mJj3qAlMnmOpjlpFgDkQTxLcaT6OxnwFiRLfagiAwIxgY39szbfmOv2HGaJi2TCSmTczz+Gu3JjDbsfOTYB9KMAIKmDEZM5oRYyUFiopQMGiCvAjsApS5zqZDVaXtpZIp+8dMMBom2++/n65wuEydO3fT8Otu1IFH2EjwsAlOXL5okR6/716t2bBRPXptp/kzpiscKVW3HfvqqBN+o/tvvE43//VulRat1/1/vVdH/t9x2lBSasTRYFGhDjn0cL316iuaMXu2vp82VXc98aQuOOlkbb/ddmpR0EwtWrfSwkVLlNOoqS67/VblFxR4BiEjfIb1+L8f061n/kG9u3U15S0JmOKoUlKSoA17Dn8wWib0t7Wma7K3E7nHT0OrVSN0cagFmjOFRWgEdF133XXlXcYTMv3WkOqE00TGlq3XOGDO1pVN+7wSB2YDLpgOFVROQReFOu0l5TZWOJCvpdPfV9cBv9Hmn99Xo5adtWJtRIXLvtc2Ox+mzRt+EQE6kfnj1Si81otgrSr9KRoWO29Zjgad94bmzl9sDnhAayNKFJNZTZm+1QZI80FLRsMDdJ588kkTWYpZ7qqrrjKRqAAUWjqNMoT44myzPj36GD16tDGzc5btwQcfbEyFaB9ojYAbPjtSjigJiaZHahFaBY1n4Q/cmsCMoEAAEFHUMGRMmmi9nH+MidoKMJaRMxdSZ6AHoAJYIyihJaPVWxrVdE2q2+J+rR6/57///W8zFtaMn089/bR+adpCO+++e7QrLwCMoK0n/v43lZaFtfteg/Tha2PUb69BatOho/Y94ABdetrpuuy66/X4/X8zQV4jLjhXn075UjvsvKOCm4s1ePA++mHGt3rnnf+pz047aL/fnKwvJ32kVQsX6e2XX9PJ5/5RvyxcpF8WL9WFN91YHgBmsxLeHveuLjn6cHXfxjsr3KZLnXnmmVvso3TRLZau0JG9SEob641VhJ8E9+F+IKiL2AGCuDBtcz3+5UsvvdSsuWvJU8ABc/I0c3cYsRnlolhriMom+CufuNao1B9TYQETdoj0J3KRW/dWo212UnjTegXzC1SyaZ1a7XCw1k59XqHWPbRu2RK17r23mrbpquJN67Tks2dUtnGpmoTXGbqjeUcf7/3te5apRCbp52WNtPeFY6VQE2MCJOgIUysAUlNmZgGViFKKLVDwnwL8/MQU98ADDxig5DB5tEOOnSSdBAZlAciMO3q+LiDLPQTSoMURDEU6CZo2QTC0Sy65xGilnNoDqGAupKQmh89jArR+PT/op8OUzZgt46WyGAE70JLAH9ti6RpPG6IPTJswdgQSfMvMG4tGZf1U97LFc01YAcHm3xI1jICEto5Gj1A1cuRIHfd/x2vkW29p51338KKybTnXSFj/ffBBtWvXXkWbi/TOiy/q+nvuUY/t+ygSCevi343QdbffrK8/naIXnnhK+xw0VBGFdPzJJ+j9N95W797bGo22Tbv2KmhRoIH7DdNdf75R519zhRb8/LPeeOM1NQ/k6fCTf6Ptdt2lvJynlzYYMD7mi445XD23ae9FgqcxXSoe/bz3LBpUGQ0OQzt+5JFHDP3Yh1h7ENII7sN6g0md/cr7RkOAJNI6tqJXdevpvvco4IDZ7YQaUYDqR5FwidYZYPYHf8Up6hHNUw6EAwrl5Eq5jUw+qPfSBhXMa67SjSsUCeSorGyzcpttI6qJkB1avHqhyS8NegUTvU1bkWXqleeMfkHUNgUgfl6Wp8EXj5UCVA3zok6tX6xGk40CKv2QLkIKCGk9MCG0P2pS41PDjEewCyZzoksJeAF4KKDgB08ACoAD2NAwMFED1ETecjAHpl/81oAwJm80TzRmTOeYu7mXn2h9+B/9TDTVwMycGQNzxB2AWdX/zJrQkz4xcwPOMHdod8QRRxitu7LmB5DKTKT2XoKVEF5wK3AwAuMHTMiT/vjjjw1ADxiwh4KhnGjwV3+TI2/yiiNewZuVy35Rbk6uigo3acO6teraq4fy8vMVDEe08KcF6tClkyLhiBb8OF+NmzdRKJSrNu3aavXy5crLzVVhUZEKWrQwJvPmzQs08/sZ6rXj9grlhDRr1kw1zslTpx49FUSjtFYgU1Y2pHHj3jEac7f2FRpzOqOyoRsaMdYe6OUHU2spYk9idWDNCPZiTgUFzY3PGAETqxDnXbOujz32mIm0TrdFpCZ7L1PuSQiYrbZgo+4waeFTqorh+X1I9n4WHIZFP/6XsKZaTKYQOdvGaUJkTJB0iZZ+85JWfjZKrVrkRIsxAIKxM45CadjzE4ci5G96aGq07Kj/OBQt8OAlRdkUq2gOSzQf2ewlT6T3QLq8aAl/h1VaFtS0H4M64vrxCoTyUlb6yw8MmGHRiDgInrxM/H+AAaCMmRRTNJohoI32TPUr23h3yN8FLDDvYmrHrA0To3ADmgYaOcdYEjADiAAoABiH0QPG3E8/aFI8ww/6qQRm5owA8OCDD5qKEDUNQQAAIABJREFUXTDeVJ7gRf+AAcwe4YPiFvE0b+iLjx1hBXMpPlX86zT6AAiI7kWrGzx4sKGZLfnpP76RvuE/hveYuusRjZv2vTY2a67muXlefeyo1cV3lITRks2eLN9zQXOISrQ8jif0RfC5EBMQzU02+9JakDxXToTSdZQqNQVHKDFrhcxomiECbDCkKRMnasQBw9S1XVvzoqVbY6b/Aw880Ah/WJesJcSuBd8T6EVcBYImViBcN5QNPeigA83JZawdecjQFxcP7h0E0tiznbONF6ZrPgkDM4tD8AamOxoRgjAfFjE2vD6eeYTPCJIhaIDfqRiDVIsE7oA5Xcubnn699fU00eL1SzXzfUpyvuYxKgPYW9qyAWEYWygcUGmoTMFIKGr29ozfHISxcVOJGuWHlMsJSREUZu4Iqywcih5KAeAHVVwaVLg0okahMuUEAypDG6ZQQzBg7lOjFjr6kieU07yH+TxVFTmtcAmzwXdGWgfMiEhT9jBAiVkafxsgBrMCNAFcTHp+LY93iYILaN1EIqMt4zPm3QJU6It7iMgFaNBmeBaaKhWS0PoQAPi9XDjxnTOciqhs+w6j3T/77LPlc0jlu2ppynwBfUyi/vnY3UsAFBXDYPIIQNCIyF4ieREcAGaEGvz/XEfktz9SPvYtKAdGRbS2aJNGjXlDU2bOUZnJtPcitrcoqWkCHbD2UAc7ojKvao0X7GUEy4B+mTtPRWvWquceuxijuOkCcDb/PQDGtL5m4RK169pZCgaNxh39MnogTFhtmzfVxSecoH49uiov6JWfTXdJTuiPewJrEBqv9Qv79yyCDm4azj+H7wPCaMnUQaeBA4Cy1Zhxz8QCfHq4UXb2mjAwY0bDB0YBACR9Xg58bPa8TV4qpFMCVVhQpHpMHjAwXhTMHUhbvFg2aISAFyTgVL7s2blM9XNWFZaUCsk/ylnjDzgK2J7G610CU6Mf0j/YK62iZQjLO7Dqd/Te0aOf0+WXXa6ly5aWM/F27dpq8uRJ6tGzV/S2ipNvUkk5CmLgD6UWNeZqBEtM0QRtUXrSmpnZ02jUAEUs0FjAA4hghAAzPmRyrDEX47NDE+c73jl7Pi7PJYgNcEazOe644/T555+nLfjLjpN5otXGA8xU0NY+Bx6B6dnvcuA76HrLLbcYvoLJm4h3fPcI+QAINEPAselZCEWsC7WdE+UrRvu1+zHqKLGyJYB09FFH6d577tXu/W2QWHTvmgqz3r1PP/WUCXS74/Y7y605W9DHYH3YWEGOOorc328qhDWfFFAene3z86YbmBmntX76LZ12/AhnCKBYJFgHYgOYBzWw4f/WegFvZz0QVAlUS4ULKRV7LBP7SBiYkU4BVqR9zG+AMHmcLA5mEBrmKA7KxtxFjVReFiL5CIrhevwXBA0Q5k+IPSYldz5sJm6bqsccozD/CmPj3Y2plhec/VFZs0yDClE33XSzGjXK0zPPPGPMvuy5ChN6qvTkipH43Tn+8cUyMsuM/MyO3zFB874wTjSUyqxM8cDEzzRtYJO9zn+9vS5VGjPvPLS1JRITBbpkdjRaFhoxJwtRntMvAEAn8mfhOygBaGBYECgaAwAjnJATTeoWoACIkxKF3zM2Yj2ZMXkKsxfwRs4wAhmR6ATm2eZfZz4jwh4hCyGiMjrZPcR1HAiBJQL+F5209yPOQLcGMFf3ztnv/fsv1jIau6/TsV+SWscMvjhhYIbIhMdjrmNB8EXwN7lraNFI1aR9ANL4e/ALAbykqJCqgraN6Q0pn42Gz4iX8dFHH611YE4G098NPUoBzLNohX6fYDzisPcQDDFZ4r9t166dYdIwbL+/NdWErQxwYwE4lmHb79Hy8CVTBcsTIjxLQWU//QBl+7Cf+RliPOaXCmDmWfi7ARG/FpsKutrxo3WhhWEOtTnOlh4E1hFsRNrYyy+/bNJy2BsAHylX+DABa0z6mLLxg/OTCGyKXlhrRU3Gy/jgT7gYAE/GhAAQzwdu+6fsJCZeKltV1+gfPojywjixglRVH7wugdnuPSwHjBtBCksFexizNS4DhE7/fuU63kViIxw4V7cb4n+fMDBjfsaMBDNEcuVlIgAMaZc6uEiTgDMvBS8VmgxFzjHvUBuVDctm5zoWFABHQkbCdYtXs8XLprsIGKGMH0BbVbNaB/5XrqfYAmYzNBvMvpja6luzY4bRA84IEak+qMGvudvTpajSxOfJPMv2g+kSwMBkHCsk1Ja+BL4R5Ys/HhM+grsFfwLB+A7GjvCFLx5ewz0AAu4Oe+ACxTWofgUwoNXi94RH8T2+/WTmbedkhSXS0ziOEl4FKBFxzx5DUIjXEB5wPzDmRBrPQSjB7I4rgwj+ylp9AOZ3333XxEDgckIgwsfPuKE7vmdihyyIs5bwdntms+PvieyILa9JCJi5Bcn06quvNhIrPmbMSGi8vByE8iPBcg2FB1gkfM6YlJB0WST8clyDr5mFwpSDFoGW7RYu+YXLtjsQ0Ii2xY9YXYOpIfAhkSOx02CkME20KjToVINJdWOq7ntbxQsNCYuSP7e5unsT+R6a4HtGy8TUj9uIIhCAM3RJ9B0DBLiWyFssYbGBQImMJd41jA+3FuCFtQ0XGPyDfGieiRWEtSRojr0AX7BCAcwfNxluNICZSHjykFEIAG1M21hb+Em9ZfqCxonOubLx8kw0ZSKQ8X8TXY//NF4jLoA5YXavrvktHrj18JEDYnYvx457awFzrFvGzsPmg1M6FU0ZHMDCQZlbeD6xRKwJ4H3AAQeYWAs0awSumghH1dGvIXyfMDCzaGi9+HFoaM2Yj5Bwb7jhBsMQ8RsjSfECseEsc8RvyGkknOGJBMrGQ7PhPlsxqCEQ282xcgrAfDmRxjLjqmgVa8q1f/MTrQaGDaNGC6kNc071ellTIOZWCjKkuioSB0YA/Jif8V0iJNv4jkTmwvhYB4QGzsRFSyTgDAE7GUEn1pyPFktBFNaCoDjGBQMH9BAkYPLwB7RjhPVkWuyz7HrHcykk2y/aLFYYAAaBwh5RGa8f6IYyQh56Mo1xEkCFsEKhGsA5NsUo3cDMGNB6EZyw6FhXi50H3wO6xIEwPkCY94s1w+KB1RQFjbXDasEaEMzHfOrT+5fMutT1tQkDMwP1+8Tsi5roC+C/1y1WXS97/Xs+pkB8eFhjatrQSmmYSCmGj+uE9Kb6tN94D2DgRHKTlZDKsdk0K8CY5xA4hesoUa2Fe/CBkwoJ/Rgn7ijiSJIZJ4I51wM2gA5MnEh1GDUaL58RlQ7oYx5Fy8SFUVXQVGWCQaL8J5k9ZQU9rIOkEVH8xM//4vXF/Cifaqu2Jfs8tGaUHhQbLB1+hWVrADMuSoQmguhwI/jXwgpsRGNjxoYeCG/8jYBFkBzaM5k4/E4qLEIdGQvJCHTJ0Czbr00KmLOdGG5+dUcBgmxg3LXxEfs1Z8yPTzzxhOkPBkHaTzLgkk5KME58o2hhl19+mVcD3J4GTFBYeXUzw9YSHgrADEDg5wSQ/3rXXZ4FopqzjU0xjeixmb/73Qi99NIL2ry5WNffcL1uvukm8/zKwD3W/MnfADmMG0GL2AFKYGLmxeQJ6ABAmMrRkFNlKk+YSFVc6J8LfmWsfgClTQeq6hnjxo0zZVgJdq1J49nQaP6P89W0WVOjpRMNT0s3MPMMrJ/49rGKxhaRsVo9pn1M+fjG+R2rKeb9FStWql+/vuZeYgEotEN2ji2sU1/eu5qsS13d44C5rijvnrsFBYhToPazTZlJBXlgNER72yp1VvOpD4wCZku8ReHGjfrztddEpxutZuapGR4kx9QdT4QuJ550ks4791wNHTbMVKtKZL62AvmkSZ/q1FNPMRkXN9x4g1ee0ZdTa5/vdyfwGf5HrAC4qwj8xPKBefPuu+82YIymRVwAZtBUrnEi9Igda6w2aCPB/X198sknRmhAeEgk2h8BBGCmOltNG+NctnSZ5sydYwCOAh5ozums/OUfa2XWB3t4CX5j1hFgZq5o2Qhf9uhOfMvUJAeYedesPz6R/VdTmmXrfQ6Ys3VlM2xeBG9h2sWnl8pGICImRoJz0H4IOKovhfVhdE899aSWL1+ha6+9VhMmfqs3PpytTr37msMMTN3mJDRmC66ffDLRpDpZ83CiOncgGFIwvFnPPPOEjjj6eP301Xv6zz+vUSgHcK5I72J9AAusHGiV1EUGSEiR5JAPUocANjRnvkdrxxriyRuJjiY1uwCwIQcZWhBzQEoT5nRrrvXXHuc6xk/DHUIgIvXBExkzAWdkrhB8VpvGeDEJY+bHL2+ruxFk5T9dqjbPSPZexsTasuYEXKJRoy0TO0BsEfUquIYDVzBp87sF+URol+x4GsL1DpgbwipnwBypGISUDdNMdYNJ4O8EoPGjka6EJlTXTINxYRJ86aWXNeGjj6XWA/RNUX81bts9WqkxWtIxQYJ4hV0qVGwDgQkCoSlgxePCYZUUFyknv7FW/zhNQxqP178fusfQirQkAqIoEUqAHVoxwZ/4o7EA4FckkIsgPnKU/bnJCU4hpZdZgMBXjEZLQBwBTrg1iIImjROrCnNgfqQCUeccLZBgJ4JZ+T2RhhZJPwRP1aZZ7R6BgfEAyFhW+Ik2Xtd7tjZzc/cmTgEHzInTyl2ZRgoQzQmjJCgoHQ2GR2ALvmcijmGgfqZbVwzPgvN/Hn9a/xgzW62HXa+yIOlNVVPBgjC1mr2QN0zWZYqEQVc03CjSUtu5LGy0HA5jMN+Zw0Iq0cUrjvBSoGSzZowaqCMP3d2kQKLVo/2SWQEok6pEFDjaMXnl0NCW5U1HUFay+4IxALDkIxOkRJlOrBQcxkBAGoIGwWf8RKMGtPEtE/SGXxxTLW6QRBoR5ggj3JeKxtgxIZOyhnuAfP2tAcz1Yd1SQb9M78MBc6avYJaMn9xbIqgTCbSpzZRhPJjgYMhUiqI2dWX5o7V5TlL3YgZ870Nddt94NR50lcLByo8/tP0Cgr3aB/T7A3I0dc4GrVtfqv37tzSa9n/fL9KMhQE1jSzRuUd31r9fX6CyQFhFkRYK57SQgW3vbIX4LXq2Qihcoun3D9B3U8cb0KXgCCZMQAhAxuyLMIXAA2BjHk7l6VNJ0TDOxaw1WiflMu2JSJin8YHiOgFI+RtNF1M8QWkE5dE4hIG0rkQFNszO7CvqO6SiWYAEnDG/UweC4DnGk+iYEh1HVT74RPtw16WWAg6YU0tP11sNKXDzzTcb5tOnT59Ke/BHzfole/u5/Sye1B8b8IMGiHZEFC3mZPI4adxb1Wlp/r5jGaTVcuL5sGPHtsUYIxH97/2PdMXI/ylnj0sTAmbu79ctopMGluhfz89U716tFc5ro713yNekWUF9+8Mvuv+M9nr65Vc1b0VY9116gs54YJ7Wh3p58d8JAvMPowZrzfJpKtpUZIK68B+zVmiTAHF9rkMAjfCLIvThs8UaQ6QwBTIeeeQR4xsl9xaTOwVZiGhnfmjTHCBio6IT2dKU2MQaQ23xVDfcBGjNpJlRFzzV4Az4E6iHqwc/uTuqMdUrmHx/DpiTp5m7Iw0UwExqC4NUqshFA2NgtvgL/QBqc5iJZMWf6I+0jQ1Esb5HjlaEAWOWJXAF3zNFE9Ci7f3UMyYYh2MZ+Zz+8aniC0eDIRjGtlhgjhUQ/JqJBfVwGEFAev+DT3TFyPcV3O0iRdCYq4uRikS0a5ewRo5opve++EUTvlmn4w/toe6d8nTvC5u0ftUKrV65VHef30c92jXR8Ve+o9UFu2tzWTNzfKZ3WHAlD4lqzCop1ld37axmjdbqyKOONMFeVQkmadgWKemSevxUGAN48C9T4AWNmBQn0ukQMKi/TQ4360nkOC0ZzZS9gL+a4KdUN4RIUv+IiObIUbu/kx1jZeOif/Y0hWkQVhFY4gmd/vvt+5EMjVJNl2zuzwFzNq9uBs2NIhOk6FCcoKoGAJOCg1TPGbwExcBQ0YYom4g5EhMkDJhr0YbxK9rzeS2wALjkN5Nv+/zzz5vUDpgraT/kYBIdjnmTSmIwH8CbMo8AONoWpltMuKT+WOZE35gdYfL4JtEm+en/bz9r0riJ8su/a6TJn36pa/75sfIGXKZwsFGVNOB5zK1f14hOHFioB5/9Tsfs01UnHrytckIB3fLiGh21ZxPlYNZ+8UMVBjtq996NdfxBPfWXZ1frq8VNq/ZhR4E5WFasmQ8M0toV08sFlUxjyKzJU089ZdYTEzZ+WtwlWEqoWMUaAkgEtVFjm6ArAgTxQycDOtQWt2cApPq1s3nMRGXjz2fvYoq3p37V5nn2fSCPGcEF60JsRTquwe2DRYB3iXcUkz9CAsJCMnSqzVgb0r0OmBvSatfjuZJyA+OhsEJVGjPaMtWF0HLQmmFS1MaG8f72t781ddvRhCn3ilkOJgIz8VcUA9QIpsEkC2BjloXpfPXVVwbY0R7wpZLqg6mTZ3IPjBCNCpMn9+C3pLaz1dxjfXV2Hn7GRT9+U6QXDR01Zd+PKbt6YPb6jahfF+mk3Vfrn899rT49u2qvXbuoS6d8PfFxQIN2ytUeXcrUq00jLVgTNrHakVBQvx+5UeFgqGqFPArMOZEyzfj7QK1bOaN6Db6e7i3/mvjdCfzuBcR5QVb2Omt5iac1VjVFwJxKc0R1p7r5C4zQN5o+rhfM2wTg1QYYY+lD//GKydh9G89dVJvnp5pW2dKfA+ZsWckMnwcaDP4//5m3sVOyTARgRAtFU0bDBZgpHQkwox2RHoMmS9AP9aNjgZl+EAIuueQSo93yH3MnYI2vEC2ZdCoCm/BHAtobNmwwubiAPgdDoPkSOER+Z00Zk51PYeFGvfjiq7r/xR+UN/CKajVm6BKIlGnb9pt0yO5BvTVhkXq2z9PhgzrqhzlL9eb0PDVp2krhdTP1xxP76ZkJm9RYEZ00LF/XPSuFEQZMJ5VsGr/GPGpPrVs1M2OBubI9FBtzwHUIfBTOoM5zIoep+PtG68bCYs3gqXwdY4GZvtHwsfBwMBBBeTXdg4mOM17cRqL3uuuSp4AD5uRp5u5IAwUwY1NMgRzYqhoMwh71R6ANfk/ynwFmTNukxOBPBOBhWPiu0Xitxmz9yxSOoHQlJ1ph+sY0TWQt540TccypaGhAnHKE3w3/IceaAtQIAgAzWjMac02ZIgx37py5JjDpldfG6pvl26jZ3tckFPwFMOeVrVLfbkF179BU6zaWqVlemQqLg5q/vFj779ZS389doc8XtdF5R+WrIDei/7y+RD9v9o7VtIU/49Lay8VSKLxZM/8xSGtXZg8wx5uvFZBYf0zFuFWSXVPKq7I/MO2musWW5LR7GK2ZQ0DIZqiq1niqx+P6Sz8FHDCnn8buCQlQAFC1PqvKLrcM9O233zZgBojjNzz33HON3xCNGT8wJmgqfFFUBMDlO6sB2T7QqgFYAJygLyJeAXK0bPzOaEDcS5AQfkd8kfihid7lOZi8qfbEmJNh4vb5gD0CRjAQ1MKfF+uwo47QXx59X1M376nGbThTOhhXS7VxWYZGBkCjicfmhxdqbczj5ZHX9gOg2LvWFv60sV+xJvgwkemBiDYumaH+JS/pv//5h3lOMvNMYMnr3SWUbyXqGRNxsnOlHCnAjKUl1S0eMNtnUOwFTZ/DNtivmOBdy3wKOGDO/DXMihkg9RP5jPZancaMdgIDQqOlgASgDpgSCIY5EX81OaqYp9Gm8Vv7C0UARDBR/uNjpvwiWhIgi6+aYw7RnMlJRYMqLi42WjMRvGjOMF9yeek7mdQS689kXMx31KhRuvGmmxQKBk3xj8++mqe3Plui5h16eMC8RaPMYcAc4/jHP54RRV4Llt4hFBEDzAG9N/5d7dy3rzp27FAlLSss2R7cj393vJo1babd9thD+Y1ztWbeV7rmrAPVrHlTI0BkcyPyntx24ghI2UsWmAmcAiCJT0h1i3eIhV+YsjnUWI0YO9Yc1zKbAg6YM3v9smL0MBn8u2inaK/VtcqCrPz3VcdYrTkw9jp/hHW8cdioZO5P5DhF/1gBVYLR0Mouu+yymMMR0GcDKistVUlpqafZmnrZUcU4ENGdd9yl+/92n1asXFExtICvVFdUnT7ttNN17jnnap99vLQf2haadiUEHvPqGDVr1lybCos0/YcfdNWVlyo/31Yh+7VDOh6N/fOtbg2qW+et9T1j5oANcphJnyunfRIDwDdNBTHcG6lu1Z0uxfix8BDsSFAk7xDBi65lLgUcMGfu2mXNyGEsVJGi1nIiwJwpE7cgRd4sR/qRL0ohB6K5K4qQeAZm8JWiH555eksQxA8NqN97773GUrBh44aoRuc/eopDJrzUZOpAX3DBhRo6dEhSpLIa/eSJk/X9jBk69dSTdPNNt2iHHXcsP0ABAKLCVWU1pImGx4pgzcGZAM7Mm9KXWFxsDntShJOMa4PUPNY21a06YLbPw4LEuc5YdSgNaquwZcIapJpmmd6fA+ZMX8EsGT/AjMacjqjWuiARzJ68anKkW7dubaLEMYE3a0aBj8rDocu9wNETejjAgPQY/Nn4uTFTYnatTFvlc4AZcz7R4zVp1ppAigzjJyWHk5nsMZowfXvYCOUs8b2Tw8tBJPj8CZxjzNQkr3q+NRld6u8hhoD8cxoWjZoAGUFYRO4TeJjqligws26MYfLkycYFQzqgPzUv1eNy/aWPAg6Y00fbhHu2mpU1kyZ8YwovjE0fqQlzqs1wiLDOdI3ZriNR4GPGjDE+bHyOgBopOMnQ1PZFbjWAyHGC+MnRimC+6QRm1tGmx/CT+ZAyht+dPHGAjEaON8dLEliHlmxrOROZTCAVOb0WmJOZe232UU3uJR6Bgh1o+zWt9U0frAv0SHVLFJjtuiHAcdoVpnmK4ThwTvWKpL8/B8zpp3GVT/AzQD9A18WwYp+/tZhpNpiyLe3QVIgaJ3KbYiSkadWUjn5/LWlbhx12mNGCAQBabL92L9VWY4639wBngqOIeAd4KREJCBEgR5U15mqfz7X40Amqqy9nX1f1PnGaFL5lTNk1XSvM+1gy0nFsaTLAbOeJ22TKlCnmyEgyDeLtl7rgMe6ZiVHAAXNidErLVdZkiF/1ueeeM0fm1XUj2hgTLCBA+kVNGVWy86iNKTs2kCuRAK5kxxfvej9w4ntF4yKim9QV8krRvmpDPzsvUrTwfcL0AZHevXvHHX46gZm+eTZaM9YNot8xXZOyxpwRRijnyOc0IpRJaauq+IUdbyrWoiZ9WPpihcDHTMGamq4XVg0K2RAZnepWE2BmDNwHOONSoNCOA+dUr0z6+nPAnD7aVtuzZewwBdIcampGq/ZBSVxAahB1gjmsYb/99qsxo0r0kZYGNQ3+ssw1lun43QJ+ALXX1ZQB23nZ5/ITbQsfIxoiPuBURMTaMbMe+ApJ58KXi983tpaxf0yp8DFXtnYAM8cokurF+Egho+AKWjPARECYPdSD7zGpYsaPp9nzDK5JJLI90b2U7HXWJ4uAQapeZXRNpF987DalLpHrk7mmpsDM/NgvCNsjR440Fe6cWTsZytfdtQ6Y64725sm8PEjsBNj4Gax/WPFM3JapYTaMd0yhnxna3/11mv1gFetfRvOh/CTH4dkx2vHUFtDikZuxUBAEJp9MVLYFR/KYMfUCAvjUKO3JODHnESlbUFBgSndSFYxcZQqL+E+FSnQL+GnG76TYAEZoiVaoShXQ2LlRFpS5JZKGk06NGRqxf6h09sorr5SbrRHg0JoJ9iIH3dKVfYnJ3WrMsdoxQWNcW5fBYYwJ3/kBBxxQXsGtpvubPQAw+2uyJ7qvqruupsDsf3c5kYp3A8tcrBBb3fPd91ufAg6Ytz7Nt3hiZcD86quvimpCFLV45513DOPHhwVoWp8ejM8Wx7BaGkFHmFWpA03f1I7GL9mrVy9jXiRqFKbIy8733BcPmLmH/1xDEBMgl86avET6XnnllcYMnEizIAlNOA0KwCBlBc0NgKCGMKAGjfCNou0xbyKkzzrrrJgc4kSe6JkGeR6gc+CBBxrzLYFPFkRTafGwGikVyqjPzfpV19INzHae8QIF/cDrt1awHqR5ERyFgIGQxJ6jnCT7EbM4Zv9UCTTV0ShW4CX3mLGccsoptbIO8Y4QFJdsje1ExlsbYPaDM/W1KcjD6WxNmpCfXt3ZoomMzl2TDgo4YE4HVZPoMx4w46uCoaFJwzgAF46kQ9uDUdtTlJB+8e/xwgE2+KgpXgHDO/jgg422CBBhAqXx2fXXX2/+BsR44dFU4wEzaUv4MmE43IdmCOjHStt+bT5WK7J/+3/6SWMZON9zFjPzQ/uyn1f3k/sALZg+5nfoQiQwZkkqOGFeRsvDvAzTxFSJ1owvkapd8cx6sVoxa8E6ABwUcABcMF1TyjOeVSKJpa/0UjsGotQxGyda5jHdwJzs3Py0ZB3QtO+77z6df/75Jn3soosuMscwjhgxwmjOW1uTY0ycTsZ4agtSvHPssXTUrK4tMPvBGZ7BSVgIswj4tZ13snvCXZ8YBRwwJ0antF0VD5gpEkBOL5ofaTLkWBIBS6Tr7bffbkpQwtisxoY2i/kWk5wtUWnBHYAiaAig53e0PXyCADiAA0Pke3/AFOBDEAslIzltCQaGcEBxC3ssnn3ZGb/9zGpUfGeP0vODb7xr7Wdo+DBpex6zZer2e3/f9tk8Ay0eUAacuRdBBeBFQ37jjTdMn5y7zIEVEydO0ssvv2TSfEhjwvTonwfPAIA5TtKaWQmeIZUGTY9DNiggYWmVTi0P0yjrwFpz0EYirb4Bc6x2asfHvuM0MaxCfEYKFpHksdabROZcm2sAPMq11uYgEvt8e+43gnCq61WnApj94Ay94Qe8GwjzDpxrs4vSc68D5vTQNeFe4wEzN8O0ABc0WgAEZoa2+89//tOADycgoU3xUm233XYGaJHWV69erZdfftmcGUzwDVoiZmICPwDXiy++2GjI3uyJAAAgAElEQVQugDiRvgA/oOUHZszl1EaeOXOmvv7ma2MKJi8V4QBgt+cT299hHPb32J/Mr6rvAVfuQXPBPIzpPrb/2D65h//0C0MnsIWCGggqgDPBPPwndQlTPkCN1j958qeaPXuWMecj7FiN2v88wAHrBGCIVmxzdP30STcjg2b4AxlHZRW24m2w+gjMrBPaJOlE7FP2JPuJdCvWwFotSOlJtwZnhb2pU6ca2iK8Pvjggya2obbaOi4OwBmBzl+XPWFGUMWFqQJmPzhDbzR8hHQsaOne06mgQ0PqwwFzHa92VcAM2J588snGZwwgc3gDn6Ft4HOEwSD5EhiE1ggTB3zRoGFyaJFof2h7MEM04Mcff9wANS8lkaT0F2vSveOOO0zwFz5mykli/kUToKJTVeZbvym7st9jyW2ZJT5h5uXXDv1m8sqAiGtuvfVWY8qnGAfmds5aBghg/PQJGBCZihYK3XgGwXbxxug3v9pnbk2mxfMRrqA5gXDJHCNY34CZ8eCKQUgEoNl3CJgEzREkRbCeTSnzCz5+useuR2XXJfIa2754lzhxjHcH4ZZ3pLZrjPCM2wcLFP2lsqUSmP3gjPBvBVEK4NQmKj2V83V9UaI3HidylNlqFLDAHGtS+uKLL0zQDD5TgJUgL4CZ6EoK1qOFkG8MI4D54ZslkAYQAqDQdmEUvHho2JhkuRYmiUkcrRoTnq0M5J+wjcr2l3QkDxLGWlsGVhkwo8kDqGgyiTZr3ka4wA9LQAtF/AGB5cuXG/BFSEEjJu0IbQZQQGgBFOpbs/NhbbB+EBWfDL3rIzCzV9FKEQoTbbEsyS9A1QaY7fPp79BDDzV7hHclGRpXNgcEXYQOtGUb05HofKu7LtXAbMEZOsAX4CW4hHDT8P64VvcUcMBcx2vAy4HmCoj4GQQAi3+XFx3QwXfM3wQ4Ufjj/vvvN2CMljx+/HijDXJCEyBOrVz+2xeQe6i1DCAB3gQxAbT41w455JBfMSa0b0CZPGa/hM3vqWBi8cCZPN0//OEPCaUF+e/3M3F/NHB1y5qOeVT3zOq+Zy5oXpyxyxonoy3bdWJe6aj8Vd3Y433PfBCEcFNQgSrRhlmYkpL8pGEiRsPFggB9ELY4a5sjO60/16ZpJbqu7G1cM8QPpKIxJjRwgA2hKpUtHcDsf6+xyHHICtY2MhniBUWmcj6ur+op4IC5ehql7QqrIeEfjce4/JqCn/HGGxDAzAtmz4NNlEHF9oXfDe0cbY2TkLZWI9gNAcIGf22t59an57DepMah4ZNrnWw5y/qqMWM6TgaY0WQffvjh8mh0BFJM30Rvsz8BQQTNPQfuqabNmpolBJiTARRAGeuRP/CxNnuBNcOChWkeoSqVLV3A7AdnrGtYnhDasV7ZvVRTPpLK+TfEvhww1/Gq8wI888wzhhHb6ObKAo1igdo/dJgCpmkKPiT7Mtl++QmDwT+Lqddf9CTdZOKYwOHDh2unnXZK96PqZf+W9rgwAGS05ZquY33SmDFl1wSY0WRtsZlPP/3UBOEBzASNTZo0yQTuoZmiMRPYRyxGosAMrYmZQJhNlsaVbR76ZEw0AhhT2dIJzBacGT8WCgrFcBgJVjNLm1TRKJU0yfa+HDDXgxUGkPFR1cbdD0MnaItcYPzSNWn2BYTZ1bbOc7LPhxHgw07HsXnJjqUurmcPwBQx0ZLOVRNfX7ZozLh2SOkhNoKGJsd+PP30001JUIIQ0ZDxExM3Aa3IMqBVByLWSoUbiL6quz6ZvcDa0VJdLzvdwOzXnInFYB8Sy0K2A/RKZ1pgMvRtSNc6YM7w1ebF4WUiGpm8xHPPPdcEjSXCpOrL1JmDTf9Kx7F59WWeVY0DSwX56wTykd5Vk5ZNwEw6Dy4eGiZn/MxYAggio0gG4MxP9gsWJ8zdie556ASNMYcnek8i60GlPvqu7JCRRPqId83WAGb7XMtPyMYgrZLAPdtSKcTUlBYN5T4HzBm+0rxImAvJAcYEjSZAYQo0iEx5kZgDJ+AQvJZqppYJy8v80VAI+uLACiqV1aRlCzDjY6bqGSZs5gQok/bGf8CPwEcsQ6QlUcGN4jrkIiez3wn+4gjLVDXGSXoeP1Nt9dmawGy1Z/z47EkyBMjcSKUAkyqaZ3M/DpgzfHV5gSis8fvf/974Z8ldploUpuFMMkGhCcFkGxow2wppHJGIgIWfPRmA8W/f+gbMjI38eaKyKfiS6LywHmDOtrXHcfMgrJBVwByJzLaBcQSDYc62teITeQZ9WGBO5PpEWQRzZT1THcBYF8DMnHkuvIVa4hwC4zTnRHdC7a9zwFx7GtZZDzAYmBZaBMUBMM1RaAMGAcNJNYNI50Rh3gTA9ezZM52PqXd9s4ZohkQh/+c//0k4gCneROorMBPIhZabqNZlYy38QZDW12m/s3NNFljt/aQNjh07NmFhIZGNg3AFMNvMiETuSeSarQ3MdkzQivngMiDgDuE5lQe1JDL3hnqNA+YMXnl/sBhmNIJkMOslygDrw9TtHB599FETXZvqwJn6MMeqxgDTJXCPvHPSVBKNLM4UYGZ9KeeKvxJ3RV3uzf9n795j7rvKOoG/aAzzn2PAQTMGuZvawRvRUIZgRIWS2tpKsQUbkFLa2nbaKgUpbS29QS1go1QK1BYKRaC/SrFNBSwWipCAEYyxRhgbSJhpoBjQBCfxj5kw+azy/Fjs7nP22pezz23t5M37vufsy9rPetbzfe4reI1HSaa4zOwpxyObmbUvnDTlsU5gjvegNEpue81rXpO8F30VoinpsQ/3qsC8I7PcBOZtey1ZuBJyHvvYx27b0AePlxBnZdlx6V3vele6z5jwwyZazGF1eVdu5004uL7D8psSYGLDF5vPTHmsC5hzy9nfEsHMoVj/FG1Mp6TRrt2rAvOOzChglqwhK3vbDsL7/e9/f+rPvYmtMldBTy5CzRx4OZSJ2flrLEhsIjDnwn3s+00xD7mXacrxREjCvE7dmGdTgBn9lVApT9MMSJfBMYrkFPO5q/eowLwjM7vNwGwKlHuxNLRZ3PWDEJeBLYmJIJeNPgVIbDIw78Oc2iiFZ0DXvCmPdQNz03LWxU13M6EnlnMF5yln+6F7VWCenqbFdyRIQ4PXNejLX/5y2lko1+pLbyYbm1v06KOPLr1ko87jBpSRPfUGAJvykrFNJcEtI1isTuvTKSzlplW6KZ2/NoX2c4zDmlX7a36VLk55bBIwhwJ5xx13pM6A9oUH0hWcp5zxCszTUrPH3SxkLfA0R7ANIca2jSOAtrj7HBaL9oJf+tKXDvcXHgLufZ451bmx0CWW2OHGDlHbMvZSGnhHcyqDXnnb2WeffbgsbApLuQJz6Uys7jw8K5RknnUkm/LYFGDO38n76pwm5myjHQlvU/LylPTbxntVi3kNs4apdTayuxPNU0xKX2CtMIcy9za7siNzVx32nP251zD1h5WOofO8bMzVlb2OGf3OM2MDEvX4U87vJgKzt8ZvmhrpWMfTJ9u9HtNQoALzNHQsvgtmVtepjeav/dqvJTfQkGbxea2nv2Ov5kj+WlWSS/GL9jjRWD/zmc+k9opRwtLj8r0/telhsKHDOeeck7budOCvnF/2nmATEaBJd804gOixxx77sCcMAeq4v3uqWtBDPa/tjrmd6HUG3cYYbRepHM6+ztqoDnnXQQ/f4YsqMM84uZhYWQwXtkzcMfu2NoXCF77whZThe9ZZZz3MFbzpC8W7qAF9whOekLo71aOcAk0+CO+DtpB2ZBLbbgLzpvND+duv78w8PyQA8oEHHkhrLyoL/M21rTSrbww2n9ccmNveeN3zGWE53j+VBq961asqOI9kzQrMIwlYejnmFWO0ATyXrf1lhyyoWLDnn39+atggYSzcv9oYsjhZ44961KMO3v3ud6fuXz/zMz9z2HIqHe8qz2uLIdsPViJUbHzffP4QWq3yHTbh3iH47cNNePM6yGqXfKRbk4RAHZve8Y53HHzta19L9dIyavvu87wJ77opY4hwwde//vWDiy++OLUa9bc1Z01Tju+88840H3bDsk2l/A8Wb0ljDvc3R7xp7hFyAuhTtKxxcyyebU6jheu614dxqzL43Oc+d/CMZzyjSLate8ybwlOtyta32qTkJo94C8cWJL7mmmsOjjzyyJQ5rYXmkCPupbSIG5wbyfETP/ETqR3n/fffn3Yo0kRB3Eemts9ZUH219iHj67qGAIt9a2WxShyRRRwHV7ydg/7jP/4jKR7aG77whS8sWuhdz9617yXe/Pmf//nBG97whmQZAwD0tOnAD/3QD6WSrAsvvDCVoVEKCc3f/M3fTK0Vq1Aczg1oLa4qpiw/RLvRH/uxHzt45StfmRRlipC157x//Md/TJtbXHbZZcmSXHTkYpjLmlIFmB22uLQmtN4F0PZ7jrWt9l+y2brnk2dAi1NufDLolltuObj00ksPv67kTjLJOTyG6KWh0JDtTYfP3PZcWS3mGebKouNqJjiPOOKIwSVB4T6jibOKnv70px/87M/+7MFTn/rU1KCDoD506FASwqG1fuUrX0mt9ADeumuEI5ZMSMnAZs1x82nDaVclIGxXLO9AOP3e7/1eshAs9nULnhnYpPcjCH6eBrsxiW86KH2sLAflhsIGoD/5yU+mMi3ATbBXevYm9+ELZNar4RXHV+LHe0XxtcPVfffdl+bjiU98YjqfgvQP//APiad5MRbRPYD58ssvT6Crgcfzn//8BMSAnQfMTk/64Esa9bx//p//fPDZz3029Zg3nnUexo/vyCLGAiXCOPUkP+OMM5IiIwbt3Sjk2s+iUfXetM9aBeYVc3OAKevPIrXghgrFuJcyBe6zL37xi2kx0NBp1TR29cAAG/CxTi1sAuHcc89de7tLlrwexcYPeIEutz6lheXB7ScGb2FTYlgfdrbJk15WPF1bc3u8wAKWU0C5kR3rM3kLAANAX3XVVSnRkIAHzpQ5cXyKER4cyodbQ6QVDZRCxKIVKrr77ruTUskLRMG05tBX6SPPBNoLMXB5A9ZlFrP5+6d/+qekRPGocV3bmMYP17UfdcPWvLJC8VxubxYz1/e6DuM+5phjkqJtK037wnt3+SKMhCc/+clpzf/N3/xNkkfya3gPrG19CyofPnzmKjCvmJsxLaGIQWm2Y3Znyd1dp5xySuowxDIG+DZBUKYBhIEzF6bFC9yAHQFuUa/zAMzA16YNNH4WHboAkzNOP+PgxBecmLRpn1msXNjA5KUvfWldvC0TByD8UMyELMQb8QKA4D3Bayw6GfsUN1nvrLdqpYxfBZRH7lphGLQGSuj86le/+uB3fud3DmzKYqtElqzYsnASq7nrsMZf8YpXpPmynuWIcJVbz9zisp6BvLVMOdek5lnPetbBCSec0HXrlX0fnjDeLl4DgPu6170u9Wiwaxr+1MqTR8xav+2225LlTJmRE1OBuQLzyphz0Y2BDEYlDKdovRjgDOyVw9BECWVaOZeanXzEFAlsAGgBAPCf+7mfSwJinYexA14WHXrQslkFhAwhRPDQ/L2bd+By1YzjtNNOq4u3MXFoSbEBDsCW4GM1X3311QfHHXdcyjPgVqQMEoiEJCuPi5GyU4Xh8JUQiU6sZYmX+JnnBzjeeuutyUXLQ8VrBZh9rolQ9NDuov173/vepHBbu+YUULOafc4bZu1wmTusH2ubq7vrvsPfuPtKNNGeE/8BYl4DJVQsesr4G9/4xvQZdzbFQgiGW74Cc3Vld3PXCs6QnCNGdMEFF0yycAKYAbBkClq4JAuLmGtTcpnMZhY0VzGhwG2kBaSEi3UfgNmYdQpi3ctsJeDEyln6tGlAfOKJJx5IlnvkIx+Zfm9C4tq6aZc/Hx9wm7LWmiVmeEGGu8QavMf16X8JOkIErJZ1CvFNouOQsaA9xRftKbvhBaMo+c76w6+sanTnlpZBHXRfRnvXS5AC6vrHX3TRRekZLE/xWt+bw7/4i79ISiylX3iCy3zdc+r9GAPPec5zkidBOIX8Y0BQYLjo5bnwAjBYxKCt73pUi3lWHqAVsmjtwvK0pz1tEnCJOLMXifpUvwkFVpIFHYdz88W67oVrXLRkbj9xMYvz8Y9/fFIquN0JINmnLBCZxmJ3MjgBjJ9NGP+sDNTxsOb8Bm9wI/LOUNLyhhSbxgubRMu+Y8nDSnGtGLBM6siSbjuni4fz9e1vAO83t/Uiqzj4oOvefd+xz/nGILzGWuaitq4lnpJJDALeGmtYSRWQJgMAdl3X1WLuw2ejz8WorFaW7dQF97EQY+FbkCwjLmCxZEcutJsCfPTLjbxBc2wsC5pzXsOcA0ooISMfuxeXo23e+WudwnovCP7tl0R3tcoytsWTxxw5oJu/vCVn2303ZY6b6xowc13LJ8nXcC63xtBpl6+tyV8rml0lE1zL4nviQKs+trlXthi5pKXc2l81vXb5/nV3qfXM7o033phAVHnQlMem9sruekcx8U9/+tMpQa0e/ShQgbkfvYrOFn+SnBGJTnNotNsMzNz94qDAuR7DKRAWSwXm4TQcc6VMbHF/PQOmXPPbCsxySHgNKzD356rewJy7IRa5S9tcrWOua4uTtT17zDPC1VLyTsvcrK6X6KHhB5dWtOFrjm3Z85ad27wuzl20iUXEoad+XlPwLHJPtbnRm+fSqmVgRwOU/N7Nc3M3X5t7bNFnfT9vznEsrbbP+5ybz0M+prj/Mjo2z287N3dlK6MZcl/XLLp36Zj7vEc8rw9PldBi0Xv0F5PtVzTfUYJWbOu5iE5D3rHpyu5zjz7njqVpc60vA+ax/DWEZ6ZUlqbioUX36Q3MavNkzSKsQD/wUSvLHalDk7IdCQuybmXkybYlcF13+umnp8xQsRjX6fGr1EPZjOvEGPV1/uAHP5hKAFx3/fXXH5x55plJE1UaotmE65TWuI5GJj6pHEEWo3ICrSpdR3OVFGWLRdfZr1gBvxIS1+mCxNUsrT/qgTXAkHwkSQFjaWHoOk0wXPepT30qZVrKKNQwQEs8rmpuLIX1rvO3BAdj0QREeQrwkUUtI1GXpihxQIuXvOQl6TqZlrIrNQ7wY0w2d3CdIn3Zy+iqKJ+bSJ2v6/TflmyhXlnSD5qbD9fJ2DRmpTOS0GR8yu5EF2PSDUpiBte7d/KermPBagigDMT/f/mXf5myLT3PmIzNNRK31Mcqw0EXVq/vJXxI6PIMdJDo5d46UckW/+Y3v5nGrCuZ841ZopfSKcqMMABecB36i1PJRnUOEFdGYv7Ue0ajFXyALyQ9EZDOca5nuY85MWb3V9ohScXc4Tv0di4h6Dnc6p7lPrKe3UOiimf43nNl47qfbFTXOcfcuAafew56ycr1DLF0NLE+xN7cwzpyre9d43/n+8x5kfwTQiVXtHJBmCsHGjgo15FcE5soOJcnx5j9HZ/7zOFzz4wMY+8Q7RLRznu7xo/Po12k831v/P6Wqewd3ReP+ds1zndd1Ki7n3P99o5ohz+NDZ3MjzFY9/gKHb0jmjrX3KNTJEVFF7ToFe857mEO3d/5eBUvu868mWPX+VxilfF6jjn0DNd5tmcYm3fEU3jcO7mHv13jR6kU3v7t3/7t9N7+xjueR0bibXSguJNt3t8PvvQM9/cc69F40Mv6eOxjH5vqopUUBj+7Du8ag/Nch5+9k/+tRzXsaBjJWBKx8uvQHg9aX2Sm/8lHax7drQmlX3jVdc4xNnOARp5hPK4jb6ztfL3mwOxeaGl+Pv/5z6dae9eRMUoj0V4rT/IR3UIWRCtP9PAMcsXzyTTlZ8blOs82N3jHmH3m3dCDR847mZNtOXoDM3BQSG4B6fLyS7/0S4mQCCjzGEEwNOIofwEMJsN1zrUQuHjdw3UY1nUsPgubsHYdpnIdQHAdhpZu7zqMjdmAseswtOtMMgCzGAJIMKbr9GV1HcZyHdev6zCI60y46z7ykY8kAMKYMgdd9+CDD6brgLjrMJTrgA7AwACa1xubhQJc0cb7uRbTGKfrMLL2dN6P4HCeOmPPA1BAzHUWKsBDV4xoUWBM9MTgGJNS4DqZzgSPUiOJP2iPrq7DmADR4saYmBTguc5cATFAY9ESHLHwLARjtlOO+3g24HadhWxsrrGACBmLwvuhoe8Bu//Ry5yYB8kgnuE6gszY0Mu7mBPzAeT8dg/v6roQZBZdACxhSgB5JzQ23gBYY8YvBAqh51nug96e7Tr0QuMAWH87l8D1HILOs9yHMHcP/BkAaw4CYJ3rOsLFua7B5wSy57rO376PPbfdzz0CmJ0TIOlc98stmLxcLM4DVG3WeriyWczuk1sK7hONSXLQ97dxxz1j/MZnzo3b37niYHxxnTH72zuib7xXAHooH/EM93NuXIfW5sR1aIPnQhHwt+8drvO3Z6BZ9IWP69Afzf24ztiNy/mRZOg6wGvuvae/QxEwPvNC4KOF8YdCZazWCh6P6wCU8XgOxRjPaTDiOmPDn56Hv/C2d1Kt4TrXGKcxe0YoEL43niizIgcZQcqjgp/RzviNHU2Cn/Gi66wJMsP7xLOjoY/xG6fzjM8a9Az/A1DrxzhdR/Gwxr2j64wNLdHImrfu4jpr2/t4tvWfA7N7uc67kjGUCteRQeRVXEdOoZuxhiLt3dCDQUbWeF8yjew1rpArxuY6YzY274YeFHdyd5v6cvcG5m3RONYxTouVtQxQgHSbO2tV4wKAlAPehW07bAYA6NFtl44SN37uah7jdsxde3mMOXf9LwsR5OMY49Lc1+ehmcYZwFZDkKno6T5tMeY+oYIh547lAbyWJ38t4ovg2zZZ2bZ+dkk+LHuXCswFMx0MEhZDLuBy1yJg5prm/g5Gmyuusc3JX9zrtF9ehHoMp0DwaU3+Gk7DMVfqvsby07N+ymPbkr9CTsqz4VVElwDm2iiojDMqMBfQCVNxAWtrCHx10+Im1AyD65gLJ1yA3DTiQZdccsms4LzNwCzGL7bEaq7HcApUYB5OuymutFENi1m/7CmPbQNmeUPaA3NFC8VxqXPD2xVvLkNlSvqv414VmAuoTuABZcwmZmE7QvFnyWcSMiQhREaxz8VkxI3FfMVH5mDGbQVmtJU0Iw5vS8x6DKdABebhtJviSv2gAbP2t1Me2wbM4rzWtGRfhoyNNxgqYuJzyMIpab+ue1VgLqA85gJ8AFmywZVXXpmSxW666aYEzOLJEtgkHNh0QcxUvAkTzpUJuM3ALNte8heruR7DKVCBeTjtpriyAvNDVMSHkmgZLv4Gyvr5Vzd2OZdVYC6gFeaSuShjMcpdxE2UT2nULhVfGZPsQKVPYsy0RkcF5uUERlsZp+jHaq7HcApUYB5OuymufNOb3pQsZls0TnnMaTFHfHgsiIq1y1JX8aLBiCz1IdbyosS1Kem7ifeqwFw4K6w6ZT00P+5spRjq+KTmK6MCzkoe1EurI2VlY6oKzN0Efvvb357qutGxHsMpUIF5OO2muHIXLGY8pFTqgQceGNwiN8BdUqfSUJ7GMYfSLjJ3Llk6ZqxTXVuBuYCSGE3ttb1G1d+xirmyNUKx962GK2qPxVDElf2NuSWF1RhzN4Ht2aphifrqegynQAXm4bSb4spdAWZbNzJArrjiiinIMvoeKl00QuKhJE/34ajAXDDLoUXq9MVFI0lJgxNgIvNQ4buCei4sewfTNnUQE4tWRD/Hsc0x5muvvTZ1qdL9qx7DKVCBeTjtxl6J9lzZ5MM2u7LRQa6HzOo4SlzQeUlpSb18H3q7t33bX/ziF2/EnvJ9xj703ArMhZTLC+Tjb60wtbrUNad5RH1zCVMXDmHpadsMzJQZGrHWfPUYToFNAuYYS7xN83+f52tqrnUynLrdV+5CjNlb8vzpouUonRdZ2MpI7UlNOTG3ugpG06C8Y5gwX961rpuyB6mFszaz5O0+HBWYB8wyptOTmQUt0UsbuVIGHvC4oku2FZi9HM+CzHYeiHoMp8AmAbO3kAilPaO1ob0r5SsOveqtG2WGWq7yPM3lXRpO4eVX7oIrO4BZXLf0CBC2B4AWxsJ8Ejm1NuYJ0wNC8qzKizBi5OhIMCuVm4BZ2dW+JIhWYC7lvuw8jHjVVVeljGzZxJtwbDMwv/a1r0390PX+rsdwCmwSMCsrlJWr4Y6+5uKWJ598clovEfYhtGUcKzXUHxtwlwrq4VRa3ZW7ZjGXzoUNg+TWaLikJbB1bG71wheeYk3bB4DyhUf1IbfRh/9Ln1Et5tXx7VrvPKXbzC5QMrK5bjR8H3JMOR7P32Zgvuiii5J2rSlLPYZTYBOAOfiaxWU+L7jggrRjkU0PbIJgkxYblLzuda87vImBchrWlsqHsWU6w6k3/krvwUuw7S05w5VdAprm+53vfGd6Z5bx8ccfnzaLcK01TeE23za7UE4qidYGQPqJ28ij9KjAXEqpLTtPXMMOSUpzpN4PPTCiLQlpgxgsdgHqcz/3YCnQGGmOQ2v88mduMzBb1Bq1cIPVYzgFNgWYjYOyZYc3W65qxGOL0o997GMpXKEfgD4ArCiWsrkXlwTO2wrM3vktb3lLAmZrespjzjpm4+4LzKoqyFW9sXlExJXt5qTZ0o/81x85+Pf/8+/Ja6Km2U54PCZKqIB1CfgbUwXmKTlqg+5lmzAarb2IxTccfa3W/HzXxxZ6/i5lsHguRYEwYkG0JY/1Jd0qgLn5vjGmKRPbPMM2eebFvtX1GE6BmK9828fhdxt2ZYxB9zvJOjxK6k+5OAGvdpXWDYtJdQPg5vaWCWz/9lhHfdZT6Uib/DwlHxuDPeetabHQKY9NB2Zlo/JEeBC9/6FDh1KcWRvjtHXn//1/Bw9+7cFkMZtruQRHHXVUr1LSGmOekqM26F72eOY+s2FCLPplwBzftQmIZob2MiHS/C6/NvYgpV2OPaYG5hinhaWlXuyZLGZkJyh7zC4C7r7vIjbF7UlJqcd4CthEweYqkm3WdWi8o8af1Y5WBP4AACAASURBVGTN3XDDDQef+cxnElD7LS5pb17W8l//9V+nTQ70VmZFrwKU456S0Xi8WPPWnTh4X8V6EU1tXmNNU0KmfIdNBma00LdByagSUW5s7mx7KpMRz33uc5N30H7KFBeNhOQU9PWMVGBe10pe8XMlnwBmmdQWDcBhtfr88Y9/fGocEgfAsbje9ra3HV60OVDH31pJiqPY2oyrxoHhaITcQdx2+mffdddd6btwNR577LGHwe3LX/5yakQS3w0lw5TAbCwWFs1fFzNlDzRdcUIF/iygKQXPOeeck4T4L//yL09636G03ObrzJ1dfPCvzVWmnKc+dMEv+JzL+rzzzkvxY4lguuPp8MaVKUHInr0UCZu/GLO1s4oxx5oFEpKPlO94Fverg+t97HPJA8AMRMbeK6f13MAsxCaLOo5l74Ku5Ci5xyImVyllXPraEssrCLko+54y1kd+xLydddZZB7/1W79Vs7L7LMJtODcHZoyktEGM4zd+4zfSotS9iyUIhICshSs5AWNwsXLB3XPPPYfd1z6XBAa4aIhiKxJebHOGSf1NEHGh/9Ef/VHSEsVYMK2EGK4cseUA5rE0nAqYvdeNN96YFhWlg4UTpQ1jx9h2vee99KUvTXTU9L4e4ymwCfsxW2PWEUuJkkdRjTa1rCoAjf/9lvOB3yh+fS2pMdTCe9aptfPJT37ycGx4KKi++93vTtYhfp7ymBOY0UQpqHI2MnGowdA3TLiIXu5DeWI48ajtS1vOvSmXyoFZosLXv/71g1e96lXJ3QJMlToAaGDtx2LlXr3vvvsOC4vQDDHRN7/5zSRYCBnJSxJcJIRxxwHeb3zjGynRQUaqciBaugXP4iR8xNvE1TYFmC0AP2JFwPiUU05J7zZ0YZYKJvfX4hSYiDPXYzgFYq7WDcwlIY6I7+ZW2bLw0XCqdF9pLXOv85xFQ4wh4Mz6Zyni5ymPuYA5ZICxk4+8GI4htHAvteuME3vXu8fQ+5CTvIrbXufehyf2DpglJnA32dSc1Qx8aPSAUv2dzGDxVItLUgNrmTbPPShehrkkrnzf931fip+wsLnq1OqxCk488cSDv//7v09lAjJRWQ22QLNHM2a94447Us/tYNZNAWYCRXIcxYHbaE7LBa1ZzBWY+yzdh5+7KcA87i3Wc7VwFLe7ZLShIEIGcOVa91MecwGzMTeVqiFgGu/uXuLuXNzCFWRt3yOUhaFz0vd5m3L+3gGzGLMDYHLZ6D4kdsGq5Y4G2txv+l0DanFm1jRAVeZBu+biFn8VE/vJn/zJg8suuyxZyboYveENb0iat2QWgM8lru+suI3D4ldOwRrHdFMBM5c5V7t3KT1CkLPmxQApD+eff/4gzbb0mc3zqsU8lHIVmKej3EFap7xjT3rSk5LbtBSQciCjyJMflMw4Su+z7F3mBOYpaRpAz5NA4f/VX/3VwUrP1OPa9PvtJTBLQgC4YlssZC7syy+/PGWxWkgyj8WP9W62wYL+r6xrwMy989GPfjQBu6bqrGv3A9RcLQCcixvg2/YMeNPCucsdn//859POLWLbYrdjgDmEAhc7t5E6Uc+jtXsPbvplh+uBsjHblAMo8wTMceQCTVvTsJhX7Tqf493W9YxqMQ+nPNpZyx//+MeTPFBfbf1Yy11riAJOHsgotxYl3YmFUvD3HZjRjjtb1jaDRbhvTm/ccI5Y75V7A8zKpbiQubLVS7J8aaJc2LYbtI8yprFAZZT64aKWaelQEiBRRIlFxF7tInPqqacmoA6GE5vh0hKnZhUDbQs2QNJ9/Q3wMSqwFz8ZchirdwDKrHLgams0WjvNvyv7ESgTRPfff3/KJJ1zSzVjp6xYtK9//euT659ixGshCage/SlQgbk/zcKq81sZlSQwSYiA5MlPfnJSsLsObnAJSviWbFCJISF0qiqDbbaYc6uZRw5dfvAHf7CLpHv//d4As0XHJS1zMo5mg4G2muP8s3xXFH878u9DMHZlJMZ9bCL+wz/8wylTe6hmLf7tndQas/TD4rdN2rJ7Am8JcRQW8fM+7fGmWDWRbSljXYIc74UG9WoddQaqR38KVGDuTzNXAD5KrQQwLu2777477WIkPNWlJIZyrJJBDoq1rec3DxuFf+i6zt9kF4DZ+6hzZrDIJVE2NQVths345l+1N8AsZqye+IlPfGJKRhjDFBZK01XcN6OUO4cLTOLTmJacnvvFL37xcNKZMiwNO5ZtCMHVrdc360ASGut67sO4adCEnyx5LnRJcsZTXV3DZqMCc3+6oRklFSjzqEVPAqGt0tpm91BepDqDsguAeNKm4uNtB+aYFUqLvto8ibyFU9Gn/6xv/hV7A8wWDzcz1y031ZhD7FhMidtYO80hGYPi0TK4JYyNURK8l3iYDkZATrMOjVQWjcn5XG12g7FAWAZNq7/pCRhDq0XXhiLDBajZhI5AXNpKtfrSo69StIr32YR7VmAeNgsBzrxHAJnFHMDctRbyPA9VDfJRrrjiisNd1/ryctsb7AowoxWDQNc1nelCdg6btd2+am+AeappxFwSvVjfan0BoZjJEO0vFnUz4anvYnY9V724tbi4OG3bPcLtxjJgWUdv6nDpN2m0bBy5u75LeC2jPa+BMau9tY1m33d3767QwVRzv+n3qcA8bIYiLMWTJLykQsP6YDHHUbIWrEEgGiGlPryc83DMY1y/K8Aca5VRIO9G0yahgj50GjbD23dVBeaecxbAbCcZ8RKAQkMeshFFLEbgLiOaS7sJeKXDA3ASqXQvW3YQQiwCNdhth17CPAviY3mb0ua5hIXdujRiIcTGHNx/LGXx9qHv7/lyCFgt+7rQNwmYS7wYTYW0+f8Yniq9NjxI6m1ZcUIqyqZ8rhSyz1HyziX3s67knWhdyrNGYeAClqC67byde8r0TpDfUqL8lNBtl86pwNxzNgOYgRtQlrQke1MmZ99SI/fyo86PtTi2s02pYFtm7cpWJ6S049Tre9Ghq5macFmWMtXXKTCCjuKDFAtx+3WOpydLTXb6pgDzIuUq5qTr+8kI0nGj4Bv5J2LMkraswabF2nc8peuw7b6uxcOSOW2nqNpjlyzmsJq9k54PvI8SwRz7uGYX8VYF5h6rLgSKnXE0Z6fJqnVWr2gBddUNL1qILFQNSJZZi02hFu7nNmHXFjNuPrtNeMQ9teW0wQBBteiQOCYbHC1KFlTTXd4cY/MeTfd0F23iey1RJZOVjKnH1G/FqZsCzIilLFDDDQqrksDck6MZjjUjv8LWgHaYiqqAVc5bGw9Zw8oFlSw2t4OdYiyLwkRtDJWfy1oWLuNJ2jVgDnCmEOlhIObs3aeg91Ys1IJBVmAuIFKcEoJPSQXrWOalWmaLaOjhnvpqc2O/733vS6UEksssRod4lftHDFu7TDEwce2ckbm/bK+neUl8fu+99x7uYmTMnkUQaYCgvloMjUte8piaZu4zh+QxwCxDetFhqz4JZxq1SHhhafAccJWLG33pS19K5U+hrKi1jj7kcc8Yp1gT17pktDi08KMgcHMbN3pzdRPmas/Vi7o/AR+N7Z1nAwFuv308NgWYjcPmFFzDQjTq//GHPXrxjVwIfGh+P/vZz6a4brS0XZVwDtpI8NJGN2r2rTPhmB//8R9PLOM8ygLFwvrODyEre4e7lrX3u7/7u+nrANSbb7758O5ScR1wpeDqMij723qg1KOFTW382CzCGoyd21zLjb7LwBy01nBJKI8HsoLzd7itAvNACW4BK1MCZl21jsse4T4sZjFqAkrbOgBlgw1NTTTdAD4YWCOTxz3ucanpgWtYIVzp4qrqMCWf2D5RI36JXcBWX28tQGOvY9fTVGVm01QtCLXEhKfvLA7Z0cqtSoGZ+5tgldShUQngV0etlpMQUkaixpNQMk6NRWS061Qmnnf77bcnYUlYGb/fgB04uy8aEWzcjawrigz3v5IL3ddy+hOm0RRmmZU9cNo3+rIAiNjEwvytiwbmgZsSGJlTP5RAc62FLcVQAw5lRnjCnOmG18fCHDIZ4proghd1+jI+wIz/rDGb0SinpPhRBB0nn3xyslzV28vW9l5+5FZcc801iZ8pp7oCUjjc3/pRaaDxj2oJyjaLHO8Cd+Ei1SF33nlnKhukcONj6zmA2TXCRLtoMedzZ28BOTJotirFbAivrPOaCswDqR8CTyzWIhvTvQsAsyhYsO7HCj3jjDOS0NARSwxGD2wg5W9Cg0ZP0wTgBAl3IeHGtRw7YrEyWSUsTOezWtUsE4qscMDIuiQgWTgsUAlfLOY+wEzgehbtH2Cy7gko4EpxAdY8Cw5CzOfPfvazk5XAyibEteQEuiwoQpLycMQRR6R3lYgm3qbUjWfBuxJ+Stae8pSnJIGmPt257kW4hiUzcHq37rIcgJu7S80p7GJrR7xIQYsaYbW9eNhYACKe40Ext4CJUipfIca6ijFHTPmGG25ICquxqWAQ+mAxG7vwDIuZ8gtUHRRX/Eu5oCACbA1FnE8B1dYXH+qDD/itSWvQPfAzxZgSb41wm/PqsLYp1BRWz2Eh8/yEsm19apVLIbCWWOO7kPzVtrAoK89//vNTr/84VjH/27SoKzCPmC0L3U4ytOahCVBhMRNSBAX3FYvVInRPC1b8GYgpK+KetlAJBsLNNUCM1WHxAjBCAdATBFdddVWql/Y3MHQvQlD/bpasBcDNTWMFbq7z/FJXNqFmPDqQ6dNNaNl72r25DcXeAXNsjmGcklsAK2UAMHPlWZisaNqzbd68E4uDlyAaoVCAeA88g5sUTcKVHXtGH3vssSlxZt+OHJiBBUVnTIhlKP1iHACXdfzhD384gRdlisLFM8Pq5LaldPIOAbPIzI/mPUOf3+Wdwu/WGFe0NcFTRYkwDmMAzBQb47eueZGsH0ohl7SudHiTEsvaBZx4msKbAzMAd601QAkQpopd5170ohcl8Oa1AvYUWUommpAD1qC5A/zWq5CRZ4nHRjOiXXP78h6QGfoa7JtS3cazFZgnkADcWIBs6LZmkfzF9UxbB2KsDQCjAQihZvEScFzPzgParE+CjkBwDxYrIcKCjN2r1CwrSTA27myCCBD7nABiyURvcBYrQSEG2AeYASyhplEI60DCD0vEWAlqLkJCkEAjaAg31gElA0hbjAQda8F1ADl29xKTpElLsiMcWSbu53pCz3u5t2e7N4t5n2PM2Nm8nnvuuWkO5z7Md1jNwIniFKV1gAm4AL9PfOITyUNCobITm+9UJqxSKBsbBVKYh9cIb8Xe65QGyikLF9/K2QAWPFQ8U0CWwskDxJsVHfPwMg8Aqxc/e3cKMKC2BoVfhGRUMLinSgc8at3ha4orRcG48DGvgvBVxJjlVPB06ZlgjfCqoRm+Fybikt8F65KSgiY8CZGlPTfvbtLzKjCPnA2LHYhyF4sP9V0kYTEDFe4ucTaWIIHBRcYiJ8jEjcVe9ZK22LmPgXNs7K5UCCD5Pg4lTSwWv4EvYc2itKMVawDQR/IZoSRm6yhJ/iJYafIsZltG0uQ9C7C6DwFjTCx/i41wlrTGEiFgKAtRXqa8CZgQ1OjHgiIUueEJOhYyQWjc3IPGyupQt43m0XfXuxD8PAf7eGxC8ldYzLwoAEUeA+ACbixCAEyZNNfAhSUJwIRzKIWrdmVT5oBrdJjDl7LEAbOxczWzXnmPeGisbWEdoEop5M1hbfM6+d96dbjWHu94FxDHe2gzC7BZ1UBU1YDcC+daxzwbruHOxcexIxVgtsMdYI46ZutEYw5r3DrgNfIc10gGdZ41RYn308wvsG6EDSJ23ldWrXpNkX+UFLyySgVt1e8xxf0rMI+kIuaPJA2A07cDGODJy6W4pi0e2rCF6X+LmiBgmQIeAg6wAkFg55kSUwBjuIyNC7gBrihFAZCupXXbZQvoW5yStzwzsrK5v1lbeZZ0k0ysDQqDeLgEHu43MWvXsWx9BiA9hxA2LgdLgnVLUYhx6e3tWSz6AGYaNMXDISbtOSeccEICaooLqwTdWM5+In7IsuB12DShM5LNii7fBGAOkApQaM5DDhYx3hDCzf+LXrrHSW2JcIAZGAPi8OpYDz4DgsAPAGsliR8poRIOJX8BR7HnSFjD6+4X6wqvssB5vSiuvgM6/ufZ4vnB99Y40LQ2I5ExgJlFnid/BY18JtlM3olzhYIoyxT6MBCs6Uj65CFgPPC+UYIjbLVJ6wS9ef/C47VJY+vBZpOcWoF5JBkDEGRT206yDzDHtQDMYnftkKzU5jVt/4fAjNdd9ByLmTYP+JZthMFNqTyLFh8AOpKUh7XkXKi3CdO25ziPYsAdZlz7eGwSMC+ifwjbfF5zXpxDGOcKACtTSAg/UyCH9CLow2sl6xuIysvgjZKMuazzl3fxPU8AhZcXgqtbOAgQMxoiaZKy7H7c5pQD3jYu+k05eMB4V8hSStIcvLAp794cRwXmkTMT4Coxi4vKwihlqBBOrmXFxnaQI4e08HLPo8GLlS0aI6ucJm/hLss0535TZsIFx6LYhOOd77z54N57P548DaVzsAnjnmoMmwLMU73PHPdBM94ZlrDwSg7afZ/PHe/6sfsNAyj34n0Csl3AbJwS2MSxhb9Y50JJrHq111zvqj14AnjfJFwqrXRuWNR933UV56OdMfIe8BTs4xo+bDh9q9QkWcVM7Mg9kRCgvfnNbz7s2ip9tQB2wiGaipRe2/c8wC/+xQ3eFEDBBtzC3Ohc010LIxaSmFzXuX3H2uf8eBeLWWIPC2EfjwrM/Wc9+J47WWiEwunow89xDzFja0x9c5/r81G7F3e0dRjet6465ng+i18CJXe40JH/5XlIpNRH3kGRljwqgU1W/NBx9qd02RVc7cIIMuA3bWxlbzDNWdVinoCOAa7qMJWIrNodNnTIxikmphxqKqYfY2EMfY9F1xkLochlN9X7TT3GVd6vAvMqqbv83mgv74J1yxKd8ugCZs/yfEDM0yXTW620HJDYrEZ3PWEn1qiEPGNU6eBciaerTLrrQwtJdtavJLl9XMPVYu7DLQXnhpsYMMsm3lSmojmrq9zFwxxwv8ve3sejAvN6Z13y1TqAOSxmICzjOpIqfa7rGLe4pNFoMao3AItUAhoLmgtc4qqseG7wvh6DKanO66BcTWhvU2XolO+76F7VYh5J5VgUmIgbS+KRWmGMX5oIlt9j5HA6L5fxSHNe5+LrHOTAE9BfTE7G9y6+XxdZKjB3UWh13+cW89Ru2BKL2ZtpxCNGmwMasFaexqUtROWQ4EmBlZktDCUbWlKYWLQSsaiNXgcwspaVmKk22eejAvOI2Q8Xds7AmF6GpBKGtj2aS0L6bVmqU7mMxZsoDEqj1rHwRpC781I00lFJ85TIcO+8aIdOqMA8/2QGzTcBmMe8vfFrUMQdr9+BHJOohZ5TTgBmrnab8ezzUYF5xOxzAenkozBej2g9dUMjlZ2tGxDXjH64OSD7WyN/NY204WhDaDGI+fzLv/xL6n+tcYBkCIcGCGOzPT2XVSneBLymWHAlikaTxFM8t23ajIVrTmtQ3cSWeSya487LeJolLasa7wjWa720AvPUFF18v0VKuSuiFnmqMrBSi3nM28d6kBGuKZBSqzjm5P8KzA9RvQLzAG4OJtavWoOA6LqjdlBnI5nPYs0yPLlVAaxD4w4lGdxHANKOMjadACA6W0UGpeQs/9vVxnlAX5s+W0COOWLctpbUmEDm59hFp9mHjHJdi8SnvBt6oINyqkhKkfWKDix2maNjn7sImNFL/aexSIBpEy5tQnXR/TYlKaZk3iswl1BpmnMoz2K0mt5EGEsZYtT+S7xSmsRFbB2PaTM5BzCjSsgHDX0YDkqwSsNx01D1ICV+VYu5AvNgfgIA4jESvWy+AHQkfthYQnMOnbg0HJFoZWGJfSqaZ60CWZ28WMxKfICWQn/aqjiRemidfCRAaJvpkG05pgwjXtTiiy3WbGShxWCbRdvlOs9deMrEAGE0aVAz6dCJTLcxTQMILeMX4ybIVgHMIVw0UFAyZRchLR+jWUFuJVOIzJtYm52FzBdrWwtGh65OSk6ivETDh1WNeTATNi6swDwVJZffxzoXBxW71VLTobmN9asEyZqXIS3DWN94NcW6gllrQ3hoLmCO9UM+aJ2rpWoF5nl46mEyuNYxDyM8IQhQlR1YkIS/H4tRb2o9qWMTAeeyUnW0UT8oQ9IiBeYA230ARACz/VqBs0YAdpWRpWhzCC04JWZweY85jIc1T1hoQGATAa0sPY/QoXT4iZ67fntmswws2omymGV7u15mJyUjNtKIzeC9G5c/cKaYDBFQpe8cFjHr3RaQNH/eAUk55oD1AriBNgFESydIdU7S5lBugPdxvpibfsWUKL83+ajAPM/sAEpxWHxj3fAQ+dECl3WMrzTycZ51RtmzLvDPEKCbG5jJI8r01ElsJbNTLeaHqFRd2SXcsuAcLlMAqxwBSHFly3zEXNEDF5hh9OjxrBEJ95Yif5adxWrh2fiBm5fFzMp0PYtP5qTWeXbeATTc2Z5pwbsHwIweu227Wy0CwNx69HwxbcKEOx1o2fVJvNvGGaxd47E/sneJsUdTBglv3Ppac/IYGI9t68Tctfe04Qbw9gwNQCgzqwTm3DuQT51nornMVe+MBjbsoPQAbj2G7RTGBWljAyAeHZgoUd4rBOsc4+/LmhWY+1LsofOb3qFFeRM+F5qy9vyobqBA439Kp/WLl+zeZr1T1AG1DGNraGhC4pzAHPQQomI0rNK71TZbFZgrMA9bxd9eyLRjfZkBEQDV5J4FCoi5QcOi9hDCHYOrHwSqLEZJXcoTxJ39za3qnjTVAAuWXsSmCAGaN9cqN/gHP/jBBOKAnRXK4rNjDvAGPhbV93//9yfrr6vvbO6WXkQU7i0debh8WZHGAKxtQAFwxdSBFwVCwwLn33bbben9eBG4/AG6JvVDBdTgCcsuJDApCixj9c5ihWo40YiVbCs+76ILFIHrtwx7vczFDwlJgheNAbV3jh2uphjfmHtUYO5PvVin5hoYmVe/KZ3WrHVEaTPXDmtAUqfYsiRDuRoA2drmKcIjgBivU2rdXzgqtpDsP8KD79rEYg6FMDxqkZk9xzODLhWYKzAPWSOHNWyWINcyIa5ER/kRVyhBbcPvSAjhGsboTWv2vvvuS5awBS8GRRCwOi16AHHaaaelhS3Oc8cddyRXONd4G4j6TON7QA1YaO+EhAQyVjwgZAETOCx6bjdWe2y7GPdctgDDiohMU78pCZQKFrZYuWeggx+CiWJh7NzJsqRtkUdp8d5AkeWKPtze6GZsmiO0KRJTCYdwc0twAdAOShHlxnfmQFiB5cyyN37xZRYPuuoxTHnyt/cA2oQxbwGliBLGK0KYU4rQ2vtFGCCn32AGXHDhPgJz07oNPqFA4UEKIj4zJ/6PrRHxG8XV+mP94gfJiubVphbmETDhBZ4i/eB5tawr+RSUs8svv/xwva215f6UUvxuHNFDXiIVfhqabDm3xYy9KCho5n3mPCowV2AezG+5MMjdYDl4NW/eBJY4t+lGaxtUKXCG0M/vSVP/27/927QlHHcyIaMVn4QnQovblmCyAFncQJXgKQFCSoQNIwBYZIxzh4uxSZxizXPtWeRAEIgrMeNlEDtnfVBIgDqXvTEBO4KIpcqaNUbjAdh6CHOvE6hDNogPmvNuiNtLqDNuYxX7RwPJeUCWcNYWkHAipCW0xbaYzTlihRPoPANq2NHUuwNtMWwKB9AWZ/c+/vcs7w28S2hdwqy7AMxd6wEvAUVKoeQrP+bIAWzRE6+wdAEyBRDo+m1eACj+wWdyIiiK5puiuiz+G3MUPBT5FZ4RYzavnu954a0yLmuPt2sIz7p+HcBMycDTbcmhJbw49JwKzBWYh/LOwuvagHkZWMeNcqBvE9JdwmrZi7Rdy2oA2Dr+AFKL0D7JgIqAYvkCJmPR4o/mT3hFvCm32kti2DG+EoscCBob8BTnjXpuAjTi7SxQwtl3wI5iQRizTo0X4LFO2pQjY2fhE8rOi8OzCFPgyzVpuzw16mhCsWFZ9RVS4RJ0Pzt2cf8DB7REU/fmBvcZJQV9eGFYZo6+8b1NB+amdZvPj/nk9fHjbz/4kqeJEmNu/WbFAmNAi67m3zVohXdZtKxcc2sugfVUik8+3j5rss+5bWt5HcBM2RHuiQqLyYXlghtWYK7APBevbdxz2tzhBimxBUhEZjmBBiQACIEIXLj7gBRgY+GysqfatGOZ4A4iGiNLmvXNMvHDiiKUCWPj9beYIcFNwSC4WVAEtXOAfO7Kb/M0LJq0IUK+zavi/hQkwIKmaO6wDR/lBBBxn3flB7SBxa//+q+nLf+iKmBOBsx5K96PAkXZM28AlyIVShBFihfEAXDxXwA0cDBvzsFnfps3AI0ui/glt26HzNec9Cp51tzAjK48O8o95VbMeVRgrsA8J79t7bMsUoKBWwsws+wISxY2gLOAgQoA5MrjKue+JWzzuOocBAhQINABAWBmfQME7nBjCgFPYHPtG7c4PlAg+FmzwN1PW0vVeI9VCHzj5xqVXEcBAWxcoMZV8rw5LeYcFAGvOl517CxcyXToDEC9Azc+sKVwoDNg5imIfISwhldl3c7Be6t8xtzA7F2EksTK5cvMeVRgrsA8J7/txLOaljZLlYXD7QwIuZgBG6HLEuQKA4w+Uz4lEW1RnLZJoBIg6iJqHkbIgUR8kOUGKALAuU3DHc4q8w6EUygkABzoeBcudd3LKCd94pLG2/VexunHsylCYqnqSY2nSynIgVnddVjMXc/somPTKvc/pUe+gGdSHgCuz3hWKDVAmaLmJ5IM4/1Lwjt9xrTr584FzPkaoUipuIh9nKfkoWXzVYG5AvOur+fZ3y8WNjcyKxUoA0BuS9Yqoc26lj1u4RPg4rgyotus01VmMDeJ03Q3S0qLJCPvAnh4AACksQIeVi3g4lqpkwAAIABJREFUVkImEQ7Is24BNs8By5E12HStdgm5oCMFQjmOTnL5fRblIcQ7cWU3gbnrmW30yBWBGBNlwQ5qKgbCkvc3pWZI84zZmXQLHzgHMOeg7G9eENUmt9xyS6dCOCVJKzBXYJ6Sn+q9OihgscuIZaUCOn+r0QZyrEKbfeiRyzXOutbaULnXsgzxuYG7+YregevZmPPaZu9FGaGI8BwosVLnyoWr7O1FL3rR4e5tbfHQXEiilxaPGlnoMoVGbYdr3va2tyVlQca7PuEy5tWN9938pCmkjZEipZ2q/AKKggz53PvRF/jrgimnwBzAHKMRetAURb9+Cp5+4OZW//8Sj0/5W7WfWYG5AvNYHqrXT0CBAOwAN0KIS5wLlHWm1ATQhMvU/rJKnGJjkOYQNgUgjJeQA5Ri3ixuFrD3Uittkw+13fmRg3QeNmCVqwnXkMb9FlnMQgpqa1m0nqP+WntXikIfuhjnqaeeeqAHuux2Y9W6Ve2+/3k/+txvAjbZ61vMCczmXnc+YQmZ75QwHQ4lTc4x5xWYKzDv9WLf1JfP449AiFXqxyHpzGeAQsaosicALcap37f67GV9xOcQLIus2fzzqL3VzU09NQAXr88BFB2EBOxGpt+4a/y/KBPZ54SqblSSdvztumgFWTrf7sOy544XctD8xg/act/3LeEqfW49bzEF5gLm4C35FPIoHBRhnpe51k4F5grMVRZsIQUCgICZHwJDbBNo3XXXXaktarRHPPq5Rx+c/MKTU5Z4DihzusAXkdh7iMGfdNJJyU2tr7h4ci4AnUMRsUuXPXLD5c9j0BSUIVQljQFzsXsbLYiJ9xGq0fOd+511zJWeb5zS515byF4bOeS5gNnL4yNKomxsyZsqBIZ2LBtCzArMewbM4VpkDayzV3Mwv9+EICtwG5Nm0JPAkCS1LnoGGOXJUjk9fS42CrCBnkYh6q9tTmFbTRnWAfTAJwAoB5+pgcjz4pkpq/1//e+UZPM93/s9Salo0jPOxy9amhKSthtdNC7nO4+Vq1Von/G7lttSf3MlTsbCba19bLRm7HM/Y6Y84RO0xe/RmjaUjti1jFdE/Hqo0pTzALoO7bI1BEya1+R86Z3zzU+G3L8UmOO5lNTwHPWdr5BPlEYeHWVwQ70kwefGUlqPX4F5z4DZwtfXWmtIrRIXuQSHLJy+12B0woN1Y0P1vjHAvs9bxfksOeUyBPmRRx65dnoCERnfkqPQk7KQx2mDBvGZph4sAlmnYrgSzmzVqb2oDGPlU4Sq5DOC1c8UjVSC7+69995k2Yqt+7EJib19tTPlRmzyp/choMNDkCt4bfMbAFc693G+944NG1jq3OFDQRn9bIGKx9FX5vp55513eGMWmeOS1JSeSWyjcKh/HgoEeEB445JLLjnsJVnHOs9pqVZeUp6a/yEgaf5KgDnek0Kl5a0OcgBxzPvHGhpzD7FqZXsa3lhLXUcF5j0DZgLGDkc2JZj6CGHf576uIZApDKySTbeam++oJzRFx05Ym3AAAd4QO37pz72IniFkmpZZeFSAtLgvgKc4acMpQ5z7GDCL9TpXghoAb3MVLxPAuZADgtdff33anYyVA6hs+dl0Z+cg6+/YK7uN7k0h2gToNhd4m5UalrrdwgB0X7B0vYx1u6D5/ZGPfCS5xXkpJJaJY8oYB8q+5zXQZUpd/ND9xt0T/Sg3jlIgHLJ+S3jefSX+idUDy6Hv1QeY7fWu9ljWfAkNmu++CITbaNlGt7bPzD1lT5VF11GBec+AGZBcffXVaSvC0gWbW1ksXDE+Wl8wPQ2dsLb4wkorvXcIPq0l9fbd5CNAK3cPypZmCbGYS9853jH2c5Y5HFo5YPIDdPJDSU7J/YOeYrEymPsey6xrglGtMmvMjzHyEugjrF75X7/xrwdf+epXkuAt2WjDs2JrTn9rKwpQNDa57rrrHgbMzpFxre4br7mWa5ByoPQsgNV5seEHlzHrSXKceQMOXNsO7mVKTE5X98uBIwS0OVIKVjIHOc3RSB92O6695z3vSX3ZeSkcxxxzzMGll16aFDvlct6bx4CCKsSAhn2fZ7w6uHG/8oSUXB98zaqVdez/CHXlLndWvzWK3iX3zeWGewoNUDxKLMY2vi0BZtd5ltp5ipRNVMyzHvB4FN/gFZt3xDsEH1JAKUcS/vAZXvC+0UBInbprKE3WK5CNhEyhFaWBDuPUD561nisFb33rW5N8FGLpol8F5j0EZrV53K9dzBGLA2NjWD8K7rllCBKaH7ccoQesJRthRou5T39iC0NJQl9g9jzdoHJXVQhn4AZEWHI2Sih910VAFgKakBWvDc1fUsi73vWuZO2VPgNQEJruyXrSaxtoeH9uaO5xQsF33Kcf+tCHUmJU6f3dl2tUvW3p4RreFF3Jmpap7yhfBLO5Boy55Qh8CCLXA2xCSqIZXsAnBKF3IciiFWhY2NFRTDmK78XyuLft5ZsLTjyobIw7VH0pwUlZQS810T4HbIQr4ABqQM5mDixHz0NL1qjyLHuBozO+DWHueYRrW5KP63l2+h6EtNg+hUAdNWuW18F47U/sf39bS+KZXNlqZikBXVsNBoCiARd5KBRDgNl6YblTtKKpDB7UsxwgUegl5gEV80S5yTuZddElB+bm1q9d18b3pcDsfH3tWaiavwBWtCb3KEZ454UvfGH6HA/gK+9kLftMXgJakHXe19xToGxbiZ/e/ObrDn7gB/5zogFlxrtRsmVuW9f4R809LxAAx1MUHsDsXu7ZdVRgrsC8lEfCFacsR4YqAUnTJ9gIGgyL+Sw2AoHQJhwxdh8g6QPMMSZbFHIh08AtKOBg43YaLQAl6GjIwFs8nbY69AhgRgfWqEUqXuae733ve4stZvcxNgBhr2kHAUwIqJskwAkJFppkI4KSoADmpUdfYA4Br+EH4WveCBoCjDWsOQiLA33NtdIjFklYCAFszfFR5ChHABtvcHm7lkVCIJpzPPWHf/iHaZtJChRhDwTwVQ7MwAK9AAUXO7pfe+21qaYZLf2mIHiO+xj/WWedlbqpUVDQ0j2CrnbNcj5hnx+R/JbzLvp41yHA7N4UOe/jnSkPgNd7i+PrkqZpxXHHHZf+Nm4116zmvP1o29wbF0ClqAAFViBlhEXOlVtiMbsHOsg5QZNIZORqt6aU31HW1G+jAWDCB0Cnj+W8LmCmvAFPjXusM/yLP4zd+1HuKUbkmR+yDd2BtVAQpURohbWPfwH8G9/4poPHPOa/pNyI6D9vTVMQ0R3v6KXvOUDaGpI34TkU2wrMpZLs4OAR3wrJW37NVp4pIxeYlVrMsfi54f70T/80CVYM/vM///NJ6IlBAhNM6Afj3Xzzzam/bB9gVnOaC/ou4gINi41lRJhbJBJqaMncy4QwJYGGbEHJQmbpE2RjDvQgCB2EFEuPYFuWIZw/L4CZZWSR0+zRDPASxuYFoAFnAta4zVdfYAbygKn0YLlq+MFyA3oytjXWEKs2vxQvdKRAsMzCjdd0uQdIL5t776cGG1hSngC0+QIGPC2sC+GWHJiB1tlnn53KqmRte77wAWsR3cQTo6sY8BMD52Vg1fjbvcR5xYoBIsHpXTzbvcNb4zfwzq06c0bAAv++h+dSHAlw7wYAKSHeO7btRGc16Kxkz+GN4Wn41Kc+lcaNxovoaWwUG2EAyXKaqVgPvAKA2dG1Dt1fWZA5AS7RQhVwsTgp2oDn05/+9MHznve8xAfGiw+67h30WhcwMx4oehR0DXqsXePm4vZulDa0otTgfYmP+B/tNJJhWUebWXwrSdJ6xB/miLyxft3LvFJsgbp7WDehHFrnFZj7rp4ewIzBcoERjypl0EXWRZ/r+7/ed67oC8yuZCnookQISgIiOFlCkoEsVp8TJj7HfIQh4Cl9JzQVDyUQSw7nE2IAWNzonnvuSdezOghnFrOF5jfhxuqkORszYC4dVxNQ43/gQKhadGhDgJUCs3sQgKw/GjlQMWYCgeuXQkM4W/SsVMrOBRdcMAiYafolB3qyink5eCEIIFbo+eefn5p0oKPkJJYfGgIAigJgawONfI0sen6cA5A9Cz0JQfdjseTA7B7Ak+eA69n4zDuLWexWMxHj5mpnEQFCls9FF12UBLAxi5mytCmUlEwClCXFbc56jZIq4LkImFm9ruWmZ0WWrH28Zi55V4yFq57VH1s8EuB/9Vd/le6Jj1lXrFa05lrtOtCRgkLJ8awLL7wwKc7c99yhXUfYI2jKKjZW3qUIXVHwrG/riIJDYaPwoh1PVOlaWicwGyt64hM8DYDxGzp7Lx4d9Oct4Q2w3igqeM65FBNyjqeDIk6hxiNAnzxVmqhenmGAnxgMvrOeyAXfUQa4sqvF3MWR3/19kcWMuVhdrAgxMwchJaEhj7kte3SAEI3MZNGkCJy5spH7ArPxEoYEtIM1QpiwsDCq376zYC1i8VJCnsu7VKP2jD6u7FBuuJMJEVZxxGLF82j3kocctuCzGFhP0WCjH2s8dLYx+iGcCX7AD0w9u0+M2T3EFQl4LnGWFKWCJ4KLC0gR3PiKsKUIASxz0EcIDokxo4/YLqUHYLIkeEQILzF0h7Gb/9+/+vcPjvxvRxaPqUnzoCdhxXoVd2XJAtdmjDnoT9EwRpYzJQzNhBHEta1JY8dzrBnzjQaSHI0fMPOymLdwSUrcsQ6BJoWNYPYZ4HFeHOHKJuCBKIuU0gSczZWja25KlJW+fBk0RDv04HHgMqUwSf7qAuYAZcoQmvLOmF/vic54m2sWvdAWvwIZB/6VqFf6XmOB2fWAlDdONnuXvM1jzEIIXO/mDV+z+r0r5ZIhwetGbrGMrUfxYUodBZpnhjeGJ8L6RGcyAB9QtHzOBU5RREdKICXRM3kx8AhvHjpWi7kvh/ewmGmP4pgWLyEA6MRhEL15tFnWhC0Q41KLGAdNS1ypa3H3f62HX8Gt0yf5C8DKmOZ6864sRIwmE1l7Qq4/wkyCEo2URolJLVyCrkThGArM3II0WvNAm6fhWnSEu/FEFqVFaWzmacxhnKwaiy1qrvtmZaMVxQEQGKPFTCnxDrR0Y0dDYAFQuNPETfFdKX8YJ+HVJyvbNUITlCzPIcAIeIKYRc8NSBFxGBNLlZdkzOGZeMq7hgUJZAFzHmMOYLZOCFy1oNag/8VkAbrMZnwZeQR4nJJDUOINh/fg5QHcwiasZt4P7+i9eYVY2hTOPAs+gBnv+5tA565khflNIY0M3BKQHkOz/FpjiZpla9E7+WxI8heFlmfJnLMOhVHwqA0cuLfRFvDznDh4UbhuS3gyFAAuYDw+JPkr3tWcAc6u5wYwh0IAGCm5wJIMtA6tY0ohRcTfFG78CIDxRCjEFHuyBNgGfVjR7sVrAOTDGmcls5jxxjXXXJPCHzyJwLsCc3/OL7KY3ZaAPP7445OVRJgAVJoWFxU3icXLTUIoyJSkybvGIYbnPBYyjRvTEM4mzj27mK3/a7UDc59yKWPExAAEM1ImuFdjX17vSqtkJXsPtBDPiVq9rneKRdvHYo5rLNAQhD4zH9xQhIrFYXE6uIclNhHmUx99gZnWzyIFxIRCLsgBFKHFle17vMS1xrVrYZccQRvWTXg5uq6La/Bsvq0iQcxdr+yEWxWIOVhP3PAAaerD+kBTwN9UbIEg+gAFcx0gYQw8WNZUZCaL/0ddfFiWhCWPjwOP4hO8DMzxnx8Kt3hhNFEJ2rAaAXI+Jl4MgppXhnVFoFNK86YuU9Mn7pdbu3nHuQBm3gIxzq711xyfde490QoNYj9ptHdEqZPv0LjkiLFah/hmSLmUe/B6kJ3kaL5u8jHEs3jSyFYuZ/NDcYp4vTmj0EXPc2574EuxwVssYUox/vJMvMKD5Tc55zPua4pLJL4CZyERHhTPAeKUbBgQc1CBuYRbvvucYmC2AAl4SQQAiYbkN6DWaUf2HneLshAMKOEEM7IyWMliiybcRJowgoDlhxm63DP9X+vhVwBOManIvi29ZzB883xjXvbdsvvHdQQ966dtL+JF1xMgwgoshmB8QhsdKQ8WjcUTQtu9u7JcS2mRn8c9CkgoVoR3U0h4x2b3rUXCMuiRC/8+gjWul0AGcCTxlB7oSWDluzbhXyBFQUDPoB93HwAfk+W+aFzADmCyWHPB792C13KeW/R3cx5ibS3i1fz8Jv0BPiuS4pLPR9wLkKER5YXFj5+t/0XgUTonQ84zJqDKW3L66acnnhzCQ4ue3VSWuu4dSpFWsEAKX5Z40dqeD0xZslzsy2jrmbwfsv9ZyX2fFwDenOtF/wcPBo/G2PP/WeWMGTxtTXUdtVzqIQr1BmbMb8JNPKYjUJQqEHA0K+42iSbA2oRwpwFzCSsYjHDj6iBEubbFyubotQzICD6lEdx8XQurBFjbzsmF6LJ70Lx5HSzYoR2Buph8ld+zgLn6uQK5wdoUFS4vgEch6wLl5liHzI94IQt7itaZq6Rd272tH9avsrTISo7zghZ4mOCKRiE+j4YjrKAAA2EjVn8zqXCZMtkU+O7FEuaCbQOEHOgpL9a2sZMJuuuFcjhkHofQ3nhCybIbUmlmtmflQNKlbDcVpWVjta6FVsSth1rL7s9jx1qOnJ5lz7TeJHXJuhaOG3pQ8vERiztXnNvAe9kzWPDi/wyHEkWhAnMPYDYxEWOWFBNENvHimFwn3IeSBbhGCG1xT0kSLGUJJRYNKxpQ+wHOFry0+2Va4FDGWiT8jLnEepjyuW33MoZo7D6X8Jr6ncxpTs8ABu8jPse9Ltt3DsXDsz1nDiVvajrG/dAzfgIw4jveHooQqzQ6sLFGuA2bWcJDN7HI3ws9Pcf8ddUFx3qiOBg/zxlvGGs7AHoRzRZZXUPWRIwjdh6bS64serecJ/uOJZdRvCjRqrSLLq7L338orwpv8JTwhIw5rMfSZFjPqcDcA5idyhUsKQCQhvuZdsZ1IhsPyNCyCGOxCK7u0JC4sgE469B3DjFaiRXAvC/TjmGUeu1qKEAgEMzAAw9I/og9XbuEyWpGtN13DSXHGpOYZf0IA8Wa8r1QAgBs9oaWuMRz1acL3SLl0XN4xbq6ccX1YVEaNytP8pxMXx4ynjPWtWQ78gKIy07XhlOIQK6BEEnsMrXPfENOoo/kK57HoOtcNJH0St6H52Gu1VSBuScwN63M3L0WiQFiG3GIT0nHzxe0e1h4NH0uEtr0XIw2F2Pt23PChSjWyKrjPgUMYnzN2NO+0Wbo+6KbxEMxXK5kCWEEdCiwoQQRnkAzbydqPU0JzJRt+SNqffso0CEvAIzkIA0q5EYIhUk2EsYRUqJUyDcRh/VbgqaYdexwNZSG23BdrA8eRnSWjOUgF+XuMIYk0UY291yy0rhYzBWY18dFxTHmZUPMYxDOy0G8yUyLAH59JKhPHkoBcynGSdHSHU1dqbKtuQTI0HFv8nVoip5ciEI+6kclzTQTcORLqFnONxEJQT8lMJtfMW1Z8n2AOWgMfHnPxEfVwAJ4JTwSQ3nLND/hqmU1c9dyw+IjXrZd5CNzBITl2lBmgbDPVFOIz/tOZrkSvehdPjcdKjCvX0JMAszrf406grkpwM0mjwCAKINSQsTVOkR4zz32TXxexAZZlRJ3WJDi9OG6bgIzzxPA09YyvpsamNGJS9pzVA90xYvb6Op6rlg1tGKNgEeSmPpXFr84tJg4q1F9uMY9lA4JpZt09PH+5MaHv3kJhHgkyClliw0+JPlx31NK1GMD4uYxNyiHYVUt5vVyXwXm9dJ/q54ewomAITy52rhcJfgRIOsQIltFwAWDRVfKDbBlmaqLX2YxorlaXbWjki3jWAUwu7e4MBABnH3mOAAK2MreZwkrp5L0SYnjolWTr4tUND/xPO5vPan7PGvVfABM821P257nfbmjKSKAjTtedjxPgPcHzhRYG29oUJSD/Sa9a7WYV81N3fevwNxNo507Y1GowefNsERujfmOkJbIw3oSE6Tp97Emdo6YI14oaK2OWomP+Lxyr3zP3Pz2QWc5HRKpeCvyEpRVALN7ep5kstINYJpjxjNyTngDvKOmHdzzrGmWNMBWKuZ73cz8rcRmU7wvPENc7sIKuSIErIGuRh5KmihUkti8n5IlsXSloxSoZtevTQLiJgtXYB6xqCe6tALzRITchtsEEBCGhEo0ytBAg0uNsKDxs4SBhS5m0RHLtTImfU5Qa+JA2GyygFnXnDSVm0XjiLavygg1glGl0AVG7g3AxGvbGn9MmfwVbk2uWG0l+2xpmlvxLGDd3pRcytRX1xsbgbAu9f5W7aF7mEYU8hWAmVaZXfRY9RyL/eo7TnHSQx0Aa7ZkHiilssvV8Xsfya+AGEA318U2rZMKzKvmqu77V2DuptHOnBEWMWtLzBAwE5pcdJrZx2bqejYDap9zX4p3ypYliHzGqqmu64eSHIEr2igJaqvJpcQoGdKrGijFOVHXHzXemu2UHOZL8x5tHtssnamB2TNYtqxAbtno8tYHaHIPTRfQOlccmuscaLOm805uXc9tPqvreYto7j6aEdlakkLqvfXJd1BcHdztGi2V9sDuGnvJ/M9xTgXmOai8/BkVmNc/B7ONwILTlUlcj3AnUAhbCSl+CEMNK2j/rBedfySmcFkDa5thRBnLtgiZVRI3NuLQ9EPttkM8VQkTa5ZVK/uWuxktgXNshadLmaQnLt1Frus24AWSspqjdjk/ZxWu7LCadXFjMb761a9euZfEe6Aha5XiI0lMZrguUs1Et9w7YT7E6Vm3aqXH8qj5Q2dKCQ+ThkmypUs7y1GixJatNx6RseNZJS83+agmf81F7fbnVGBeL/1nfTohpnxFf2uNKQh58TObXrBKxAKVcBAo4pfAWpMK7rpV9Nue9eUnflgAgk1CKDNij1qPcmWinXIgtGZRSZRjBfJKSPKiHLG2WMmlwjq8HRr6uA/Fqa0UcRUWs2ezErmztdAtHfNYknsu/qTsSJyiHIjzxiYeOUhTfiiU3O3OkVw19rA+lK6JeQNm82gHrpJ2o+FNwQPOt466ksfGjneq66vFPBUlh9+nAvNw2m3llRYdoS77l7DhptMAQp0plyur2U5EBCKhdOWVV6ZM2rmE8bYQNYAZ/exCxd0fu+ygI/e27HUd7gCGjeN1yJP8BGSG7JHtmeKuFIGwjuewmD0DOImlPuc5zynqeTzVPAad8SPvg61DWbB2WxJucUgUO3ToUNr2UYY3xahNaWkbU4QWusYbSoKci7CY49r8HrmyEPe0TwAPyZB+2V3jWsX3FZhXQdV+96zA3I9eW3+2RcfikknqYCUDF40kJPmwjKJURV90btoprI+tJ1zLC6Al5YZrGU2Bl25dAOOyyy5L8ckbbrghgYSELZaeRK/YgrEvTbhqxTmbSV9xn1W5st2fSxk4anqybFOSvu9Uen4AtOQrXh3JYlzddosDluq5eSvMBX5uKiyup2TycDRDBxQnnbYknGl6AkSVNNmukMfD5+qtKVNCOe4VW0SqOaeE5YpSrhT4XOc0im9pLLqUJqs6rwLzqihbft8KzOW02okzLToxO1ZbCDtlHRKTJH8R/lECxUIS16tu7PapR7/YtEF4wCGrXc9wwp8wB9xi9A6ACgD6eiBinnRVA+yRDT+XK9vYjUGegdaaoWysY0EELdBZPTcvhIYlciVsnvGa17zmu4A5zte7XRjBvOiW9tGPfjSFH4Dy7bffnn60CZY9DmjFhLVCVZnApX3PPfek10VzgM1zoWWlemwKAuAV8qF0VWAezhm1V/ZDtKvAPJyHtvZKwoqFTNBqZMGaYw0BYVnCXHUBOtu8W9OqJygs5rwNKXqhqax3wh9ttZx0vP71r08xWuU0Qw4xf16NRccqLWbPtKGB0iFW5TpDGwG2rFpu69ibnMKiDjzfDYviBKxZ1L73I4fCNax/rm8WOFDl8bAOxIOdZ/4orTpyaX8KhG3gI2RhDO95z3sSOPvedRRYSliztrxazOXcXoG5AnM5t+zYmQST7FruQEJDQhGXXC2B6j/RocAQ9GKIkfTjd5RC5bHIIYDmXkBEEpFnLLrHqoGZ5QjEuHPFzoe8S38KL77C+8Y7G4smJlzZOTAHiOtOx40txMCyBuDc4hdffPHBH/zBHyTrGehqg6oSgdv6rLPOSu7xk046KWXQu9bnYt2UK3kDAJy3SW8Az9cLvFrMw2e5AnMF5uHcs8VXElTc2DR7Qv6EE044kJyiTrPPvqlbTIJJh46erFiZwHZF0gnK/uSsKCAxFrwCWDSv0KAjNjZoe4lVAzPrUw6CkiR8M/bdJp2Ig4OUNf2Sl7ykFZiBrDkSClC+ZA9r3gwge+qpp6aEOiDt3Sgf3NgXXnhhyrfgARGScB23ORBWbsh9Tal1L9Y2NzhFNz9qjLnfLFdgrsDcj2NWdHZo/RpREHyrPELI0/7FPwl5bmvbBrIGWAxcejKH92HbvbG0jrlT7ypL+Lrrrkt0ZZkB0tylOeRZMV9iqdyxmoosy+xdNTC7v1isPt3rdme30TOAOU/+irCN8kDWrRgzMJZPIZZsjljYL3vZyw7OPffcRF8ubGtAwhvPgEYnLGkAzHXNlS2nQPyZMiYrXEa4e11++eUPU1hY0Wqga/JX9yqowFyBuZtLZjiD4CAYlCkpr3Gs2hL52Mc+lrp+PeUpT0kuPAIlQEAc096/XH0SYOqx3JUqLMDbwM0rRi8koBxtCu9DzIkWlaw9c7aMN+YAZmV2AJC7N1z1m8IjxmXLRIpDXrakxOqmm25KzUGe/exnJ+VTQxjWtWx6lrPObTriAW1zSVnltg6aUr40WNGJzDPsky2Jz//CGCxtymyzrarrKVT2n67A3M0pFZgrMHdzyYrPCItLAop41aoBOV4nBP6i+ktCigDTqWqbjnivVY855omHQzIUC1nij7Iywp+Lk6UVx9B5Df6wv7LkJUlk6wRm72NMsvo1TKHADX23qefIuAAsVzID25akAAAgAElEQVQ3s45qqzgCqLvujS74I/poH3PMMRunyCx6B+9YO391zfBqv69Z2aul79K7h+DVfvBRj3rUw9oNdg0tB9j83FLh0XZ/1+rwpAWixJdtOghCGwyweGLzjVWNP2hv1yXxR6CszEzJDS+E71nTsnUBmDBB38M9WKiSlMxH137Iq7aYA5gpI+Lq4rabAszGht6sZjXGkrMWrY+ueQiQZ+Hio+ZR+s7O05LzlFNOSdndpdd1jW/V31dgXjWFu+9fgbmbRis9wyIgeB/96Ecffg6g5tIhZMS8CGTnSUphnWn8QWBELSdQ51YEALpQAShuNa5xbjubzgMG9acSXcSVJbsAMfdrCgxWh5IRMbRtOtBIrFc8sG+t8Jj3zD0PcR9jERsWc6bgcIv2PczjOeecc3D++eensEPXMRcwaykq2QkvbRLYBBCrV2bxjTmsPSEmPbfRfsh7WpNi2iUtPMeMdeprKzBPTdH+96vA3J9mk16xCJjf+ta3pgQbgMo9ajs8fYDFG30HsAE6K4HbzvcSUlyjiT+hAOABbzQ/eMc73pG6UrnWfWQQqwMlOHLBExbzNgJztGdslqwsm7Q2YC2Z5OZ1bc8Ue2QttVlei54RACN2ac7Mf4nFPRcwa8qB92T2b0LZVMlc9T0HLcWVNQ8Rey7daKTtOWM8WH3HPcX5FZinoOK4e1RgHke/0Ve3AbPPaOsyPDXw5wpTtgFgJbFoo6lfMKHBEiMc/ZbIohxEBijrWhMRnaaUtkh2YeUAasCsltP57h0NMAJYthmYJeZIwIpDLBSQRGJdZEqjAbCTTQsAHSFAeS90krLZvWx5Cg/3rXpVSXHOE/M988wzk2KEbtynrmkeAIzik8ecu5gmgBkoe54NRkp2NJoLmI3flohoaFvQIdZkFw024fsAZ+VREsUowLv6rjm9KzCvn/sqMK95DhYBM6uX9atUA3BwL2v3J1uUoNcjmND3Gev49NNPT+5poKzeFQBxddtm8NJLL01/AyyNRWRl65WtRErSkpioY9eAGW3Ff7mTb7zxxuSWjNaZujbZxpLC4jf3J/qhr/ipVo9aL9odiEKE/k972tMONKpAbz2rZeBq/OF/ChCX85TAbAxqoc1hyTEHMIcCow+4cAm+22WwUjLFcpYrQMHdVQ9BBeaSFTbfORWY56N165PagNmJt956awJUlhihoFRD3bGG+sqY7PITmZ9izFzTn/jEJ5KVreRJfNK9NYS45ppr0pZ5LEdNEriwbTnoRw/hcGXvGjCjI4Xkz/7sz1LJCgWEN0DGOUBmXduekbAFsKzr2Jta3SuLFahTZtBVljoPg6Qnbv5n/vdnHtz8rpuTq9m9tWzMFRx/D7WYeTwoZZLK1NSWHHMCM15jxVMa8M2ugjOa4gs8ZC4od9uyfWMJz7SdUy3moZSb7roKzNPRsvedwmVJeDezsjUx0GWIdasuE1BrfKAeUjIKaxdQ0+hZhboUsfq4ZgkOJS0sGufYIUedtOQvQl7pBlcskAHgMosDUIxJT2dZwNsYY266sik23PusXwoJt73YqLivsjC0t4OWRC3vjl5AmTvbNRQbtEVvQtn9dU4Dzjwa2jkKKaAXK7JpUQ0FZs8DehSw0mMuYDYe9JIghU5CArsKzOEhoLjJ8eAh2HWXdgXm0hW3uvMqMK+Otp13tgD8AA/AHIfPxC4JP52FgCdrDNASgpK6gHDES4Gz6/0E2ANrwhJI+1FCRLgE+Ig/i1VLSgLWIVh9v63lUsbeBsyy2IUDZOraREIXLdav9wacak1974dCw5pGU+dy+fMy8FiYAxnW6mQpTppLsLh/4Rd+IQE6gG5u+jEEmM23unYNS5RglR5zArNnaVspT0E3rF0/Yp0Ke3BtWy9jO7ttKs0qMK9/Ziowr3EOApi5S1lHBHKe6etvAJFbI3mXrtzKda9cUMR9Qljn5+YKQJulI1bKUmNZb9OxCJhZvRQdm3YAaR4BHgQxYpazLf0oMn6EDbiuxZbFpdFH4pjvuKy1ZVTf6n95AOKOkr54Nt73vvcl6zunaV9g9g5AnxKm/K0k6as5nxqS8IIoeVvVYZzi7vZm1gVsly3mnIZ4QbtV3pd451hru0KDCsyrWjXl963AXE6ryc8ExH5kShP0YfH6m/XGCmsD1HwgTWEQFnNbCVCX4HCtbG+76Ug60gJyW454b7W1MtfjXcOVDUT9DXD99m5c+5LovvrVryYANBc8C+L4+onnlmDcX6xR4hfQk6Ut9izxC2izvHOLOfIHYjemEloag9wC7nbWf9ec5fec02L2XB4IvMqL09X8pOTdN/2c4AFrU7Y8BSr2xt70sfcZXwXmPtRazbkVmFdD1+K7htVMIBNy3MtqX7lJ+wjl4gfu8IloyFrkdnagZVd/6VB8/A7B21R82j7PPRGLzneOrQAl68meLzmEGFwjxKDmfNnRHEOMU+6ARivi3nHOovGWjGnROe55yy23HPzUT/3UwVOf+tQxt9qaa8OrJZFSvgflLhTYXVmvFZjXz44VmNc4ByFILXaJNDJxlevEsSsLfS4SoycXvGxq9ceapyhvWkTHHHCXnZN/twzg2r6TMKQGvSSJy/Xi2vgBuHYdzo/se9nnDtnhyuK43NUZS3bjDRASmWJjjRhT0E68Xbxe7H1f+NW7o6fyOjkgapx3qYyqAnPXylv99xWYV0/jhz0hrGRfiEHanUjWNdfpvgi3VZAdXXkdxJTFh7UiXQc945lc2HaaKrWWgWxY+yUJVRIAJadpuyp27rli3tqR4quzzz47xcvRRecqtNEhrg9NXGN3JjXckhFjP2ixVlYj0Af+QgSeI2HNeHb98K48MpQ/Ck/sWtWHtptKowrM65+ZCsyNORji8mu6CxfdIz8vNlxQIymmmSeSrJ8tphvBEHoOfbrOZqwYLlwHmq5TUPZ5d+eqNQeowK1ri0DnK6PT/ER8Wza5OK9ENFtEatsqFg6k77vvvuRylaAWXdFK6SLJSZb6eeedl2q6ZWFzW8vwf/vb356USp9xaXPBK+mzgcSuH+ExkJ/woQ99KCXBWce7kKldgXn93FuB+dtzkFuxudBqujFjQeZCP8+mbmZoxvVxf/9bzATaBz7wgYMTTzwxWRilgnL9LPOdWOwy929TWcnHndMkAHTIe8VcxLOEA4CVBLAx9x0ylrHXeAdNYu6///5UhrSMH5yrZO7qq69O+QjqrO0jDNBdr85dQhoQVteOPyUriV9L7ivlNc/RnEa3NJah+m5867ksad3TgDK6c9fbeIUL3g5bpc8YS7d1Xh/8Rxm0sQeXvnffNt5r0rAC8zq56qFnV2BuALPMWqU0BI1sUyU2rA4xwqh35cJiFRBKDoxMEL74xS9O/xOELGHZm7HdWwCze3P/SZjh6ty2Rew9uDS1reQWdVA0opaaksFq8L3mE4T13/3d3yVacKfq6R09pVly3ICsjb6CPISi5ytTeu5zn5tAY9voGSIAv8jyBXgyvruAOZKPgIKyKrRlyQJe2dzow5Utc5y1bF6cg+alBz4GzDrEqd113Hvvvakxi17uGrC4P9ormcLXtqkUb94Fy7GUTmht7ljOeofLE+nLz6XPmuO8CsxzUHn5MyowZ8DsT00irr322gSottxTHqMsRF2oeJ1yGkJULA9YK2uRZKMrlIUZJVCsk0c+8j8dPOEJj09PAFRAiGBk0axqI/dVs5RFK9HI5hostABGnxHQsokpHAT0kUcemWpdlSSx6ghx787tKg5M0SHAKCmEurpiSlDXkYNyWJriyYB5WwUi5UWPc8pdyTt4b1YsvkTTaH6Cx7jyuZYlwcnuR2fJcD7n3i65fyicFCr5D0rMuMzxOIXLXGrUApC4uc2d7GRbiUYiWOlzuuZ7078PfrTpCcXFOrDxyLa+fwXm9XPc3gFzLtSbbmrToQQC4BI2hBhLmEWoKYUMVLE1AgroSHrRW9kBmC+++OL0vU5QgMrf7sVq5Gr0eXPDiPWzwMNHsIhGIaz1cCb4gaF2l4Qzq1ftM8WGxUCBkSjku5e//OXJPctapvC4v32jeSPQVjcl3xFoQc9ldHG9MQAbyVXRuWybBaH4rV2Mzj333GKWAMyUnuc973kptquNJ/pTmMSGr7vuukRTLm2KEVAF1qXWLDqz4GUe8474bZzuz5tkhzLzphHN7bffns5V/923MUrxC2/wieERQx+ufclgXeVum/o6FZi/MzN56DKfrzYZmX+Wn9uUSxF6Wzb/ewXMrJJoN6nEId8cIIhKiLEsCD1arxieOlTW2Ctf+cpkOXBhAxDWCouZlczqY+1YjHpTS+ThsnUdQcjVy8rY9CPccoDXu7J4m8k86GiPWolHBLRYuV2qWEwSsHgaJDFxdbLkAAY62UgiNuEAQpGcBKwBCIG+DDRijvw2L8Cfe5aFvs2gzJvCqsVDfRKnXIcOsr55dbiyubh5Lfyw4NwTIFMmuZ/xdmlSHDrjbXMaiqZnmkuWND6ghCnze+CBB5Iihv+75nHT18DQ8aEXutgSk+dHXH8bM9QrMH8nj6YNRCOPKPgkZI+14shzaJr5SqHALcpjOnzPby2C+aHcucHXEVCsPJ22bEAQ+xCHJRgLC4hqVg8sCDQCRxIN1x2BJ/FGkg2LRCtNi5FFwY0FZJSwsLzF5oA5K3mbgEPpjUxcQl4yFUGbHwTyr/zKryQPwcte9rIUh0QTLkwWmc5VSmy0LpQdLBtYv2l0sdHD3XffnYBIPJTSw+pFT8/klm07gqFdJ5QAELi/t1HwNTVvSgq6Sa4q5ZO2ZRsCQzcyCVsUy6bmvsgCWLRs8zUR3b3iHkqmuM6BNsXMXIh5U1zz1rGl77TBoqPX0Cil+JwnKMI920SDfQdmMoYHyDxeeeWVaS55/SjNYTiQZX40NIrj0KFD6RxhSomRvlNdwXhxTyFP2GLdUNqsJ5+18cZeWcw0exYGKxax8mzoEPysOO4ouwchopgwyxFQiz0DYS5bMWQgDKgJVhOgmQSXLTe4ZBnALD63TYsSk6ETN7H+0rF5Ri6ZuKe5XNHItpH6S7OgJR25RrIRaw3A21OYRcfFCoTRQ/IYa5elzdqVme6Z5iTakMbzcivZVoNorWlIvvFGL6m5YSfjMe58fNmV9FU69Dl6ZS8aC6Fz9NFHJ/4H2rkFUTr+bT8Pz8qjoKijRWkd+6a89z4Ds3cHsDyi9ran/L/xjW9MCabkO0/oC17wgiT/JQE7T8LfmWeemcJzzhNesuschVWlhTXB6IAVPFuuYYwA5UVtd/cKmMMybrog8s8BBIsMiAAZgtMPILDQAIq4MauRRSl7G4H9iOuxJO+66650DbDe9i3imq4ccURCF7OKL9MqnROubBol6xlYs7TF6LlPAS5Adn7smCRDHd2ivCYsvmbsP5pZAG6KkWdtm7KzyAsgVm4LTm7+qaz/dQIzXrAtpn7rNgfJe2jvwpyVgGcok5RWdODe36Z333VgjvLWRThArvGG8uIxJBgCKhGsKyEbXkANd3gFGWyUMHKede182AGUYYC5Z1DwLDqHF5ExAqAlEy9KWN07YF62sJruQf+H68LfsZUiS8DfPotN01lyMmBpUdrzxb1KE21KFvwmnIOpKSx+L4rt5nEUzBkbO0TGelhSsXNWfJ8rAXEPyg4GpoGyPLZJwHXNF3poykEzt/f22HcL+q0TmEPJFYu2JSZhJSbdJgS76LOt3wfvWic2T2FRlfRs35T33WVg9m7CkkKQQg3yYHKvju95TCU6CgfxerJ6r7jiiiTXhe9U5KhMYIDwKAoZqUrgAWSwSPQNI4MRJ0nyF3/xFxNgM/z8LWSnskVJ44/+6I8+bOorMLeshqaV2DwlFl4IIRNDKwrtZ6yA3ZQFumgci+KU8TmrFvjmSg0vhMxhriAbLAgPcP2IychWd1B2WFu0zEiY43XoGxfddPoF31BMeBAiE30s32wSMHtHQkgyJU8HIbdvrm3zwTvENdomfDeVT3cZmCnDcjBU2fB2xt7aMRfencUsV0K/eZ4sMshaBbAsYYmx0VBHLpHST4qXJjNkmRwaniLAz8Utf4TL2jpgcbOwef3kOgHmvY8xlywEWq4yp4hhxnaAsVkAgHH4LVvVggMo3JAsSMIIqOzajjM57SKBAU0ktgFi7mbMiLG1hOQKArroKRZPi2TJ0TotDFtc0iDRjOaJbugJuCVG+F8GPWbfNa9DALNQiNAHl9hYUI57us+6LeacV6LcirCSxR8Nd0rW4rafYy3w9BDK21Rjv8vAjKfIKyVt4rzNCgXvrncFq9p5LGdxY/JIjJhBwZWtugQgA1duaaBLpp1zzv9I4YtnPOOog2c961nJ+KCQ8qZSwBlxMEOYD2aIV+89MAMJsU+EiozsPLXdpIgPc28o+UE83xOgYsuPftSjD249dOjge7/3e1LpiYC+bGw7AimF0v1ICZX4g6SnKYTt3MIpvAEsV6CJ2SgnuUYJZG0SgZ42W0BTdFOuA5zFWbRtVDaiaYY4DNePTGrxZtnumNr1gEnmO01U4pyQgOzkyGbN3Uxz02KVz6PUSLDTb/q1r33tJMrHpljMOd1iTFy6Ys7AmYDbxrXRlx+8O0WTdUQJ3RYFc9eBOZTYNtni3eV8KHcjp5SL6lFB/qvXl/TF8yfZNQ6xaHIvwJ4ySgE177Kx5dCE109SrOoga0CIZ9FGO3vlygYG559/fnKV0mSjhWNMFILKuJawpHGCuJ8JoBEpAdGkQRo84PU9UGYdqtPlkvS5eJLzI27adzGv+3wMJCFJv2mJChgzb/rhewzIxQNoaZSyqrl2CF3xF/FFfYM1EAHEmA9DAiDWA0VH0heGxqCAmeBGU7SkSaK15+/qQRun3FDgplI+NhGYc4WO8mYXKha9RJht6xHflxfNB++SngjcouHK73ufuc/fB2BeRFPvzmAAxM2QJi+ozyjV5pKck9AajWTimshBimeQdb4j9/RdkIcU4L1IQd0rYGaNsWi5WHXxYpXlhOGe5rbQvUgWnUw8YEuIAFo/hAlhylJkUSpx4XpV8sKC5tqQsLStFgHGA5IAmaWsfCx6YocC411ZtcAWY6IHIAamgBkDAlXubE1WbrvtttSiU003tzXlh1IE4FnMkiDE6CVEACzubpaGcqxdFN5ojNfEXbm6puKVTQbmEFLq4imu5toPqyLP2UALYREKX4SN5gam5vNYPGRA7jkqHZN3o4BpaDRV1n3ps4eet+/ATK6ZKyWM5Js8Abyo2yNQVZHje5Yvg4zxhpedqyUtfuFVFJt2LjzB83pnwA335SFkkOS10fl87RUw01LUJQOHSDhqurI1wgAIQAUwIyZwRmSEp/2IP5ssmpEkAi4OzTJYjrL2ZOZNJWyHLq4x11mYvAW8BFz0TVc2F6wECaArkUF3KbTgkeD2waxiMdzXAFj9N2uahaxYXzxGC08gjHbiOZiVO8i1sq8BPDpvUzZrKc3RV9MV74teU/HKNgBzCH218OY/slVZFISdz3isZKvjoS7axDs3rZvcXRnz0nWvtvlzjfUvbjgkTmxcZIi6/66tPEv5Z9Xn7Tswk9/kO7kkTCnEJv+Faxt+KJv1PxCOHCNJXhGOY2wwTmIHQT0c5MpoSOIaMg7AwxmeyTZPyl4Bc+5Wa1ukEQdAfG014/9mgkAsep9za3D9AqldyjqNd29zs/ru3/7t31KSXDCmv3kQ8lIxWiK6UISAOavj/e9/f3IBEXaAiReCRc6l7VoMz3Ue8bghwnTVgmvM/cM6BEgyQqeMO24DMMfaYRXLQZClyoMiOUzeBy+WXA3/5+suX4s5/XNgbgJwzsN9wgU5yPtbzoSudkPL9Qj6Csxlq8a+AhoT6R64qoP1y3MjgYvMacoY88UgYNFqEMNAIOdZyBRKAExeMTTILngh0cu4KWHkGwUzGlnx/jBOGDrkHyOERa0RlVLJVoVwn1pydk10LOQgOHeqCYgM7eZCbwoI/3PLcuO2afBdz9+m75uCsgnkrJ1oBOI7WY0SIuKQFEFz5LlgSTQXx64Bcq4U8rzIceCRmfI9twmYgx5KTyhwQkgy/OUlCDcpMcm9WVEDH30DoiQvzqEo4i8xXdY3geugADgntljN15jPc741LywZnp58XsgBoNzsSle6Xiswl1LqIG34s0pgxkfAMdzKau2byrH5EjdmJAhDMD7IdEqj0KWETS06hedYwfjWRjIUTd3BhDJhhnwjoM2dzbOo+gKfw5eo86/AXMAbYc2IGSC+GjPxU5PCIpRGb2JZ0xYvcOHi4ppVz2ZhswBiIwKp8dwVu3a0KSi5kMOgrEGJXn6zjrm7ATX6CSlgVvTaty0Cvb+e63IcCPp9BOawmvERb5PkQG5DtJEHIoyk/jlXZghryWMEHkFIsAFiPMYTw+UIkAlA37FgWESEIcWPsOSJwYOSFv1mCUdve92d1K7GDl/5vFC2PaMN3EvWdgXmEio9dM4cwCyHxoZDqkWUZLYBM3508PRJSMWT8odYyBRqiayAGcADawAPH+TTyJ3B2xKNAbHKFAqi5+JTCZC8iMKmQnxtMmDvXNnL3Fu+IxC4ICR0iTNI6LKwAbBF7hxuNhnEEqNkJwMdcQgLV8yZ4BUvo2HRmqYUvuUsPuzMLvdfKC8YjZVCYBGoLGKuaTSgpGBQZQeRtShWTXD+8R//cRKKYi3K0ZRYoXPeHWrYyDf/KrRDK8khXGJT88W2WMw54Er6s8YoaqxdgIoXmhYzSxo4czHiPesLQBOurBolLKxpnZhiS1aWDpclfnM9K1rdKEVR+ZL1S5g6rr/++lQCSanMlQLfsZi52fP2on24LWLM25L85d0oOIBI29zmkfPtMi9iHxrFuYDZXAG+ZcfQtWO85BCDAZ9E45f8flqpUppVmogdyxsix4wLkMq/4Q7HRzqCuR/5H54VVrJ78wj6nqLIsPuTP/mTZFGTlTK/hWx8L1P7YTTeJ1d2xEYR2UJrxrC4x2QWA9cvfP4LB8efcHyajNj6DmFNpJiB7Dqt2mhcBC2hQSiYFDXAsjCBlLjzUCYawthjrwng5V5Uwxz7R+fClCsGwMrEpv2JncSGH/ahlRjGKnE9JSY2vLjpppuScqMWENO6hjeCEkR47sOBN2jh6DM1X2wjMAt5EGiUPONnnRLOeCV3ZQNeazEEK2WZcgxoJV5q+kDBw1faLWqrKAwVPcjd3/dchwQhvlZXrVJARq3QwjJgZjXxhuFtYO951j6ZQRGVGMQCMm7JPnjeeax8QlpTHZ4BnjZKB+uJUsLScj7Z4m8xTWMyXoBOufUuFAZ04sFjoXmmMACBz/rTewGI8vSRURKQeAhsqKCngHHaBc54JGC6jzFrmer9GR4SkcxHdOgj13gNAbT1zgDhoeABIO+AjLVvDozB2pe0SeE2bvQlS7WrtM4pUK4HeJ6Fnu4DqHwOBFmvxub9PJulCgjR2tx6P3PFcp16/ZA/+ItSQnZR5NBengyvKPoCY/IrcmF4fGL7WTR2nRi03wCZ9Sxc5ztr3/lxMADRpU327ZXFbKFwLVvQNB9MlR8AGOggFqKecsopiUlNlmu5Lix2YMsFi4lljyK88/VVdUQGn8XSFj/dZADyrhaCBW0h6P+a7yPte8kLBBBLh3Cxm5RYC4YkdGTVAnYLzbXiNRYUIcBSlJFssRPAXJMW6tD43SbTMh9bWBY8KIR7W9LJ2HfZNmBuow+eA0w5MDsPABHyMv9D6BHQsvt1VSIwWdr4Cy8BJ2ABRAhACiSexNdCTIAZHwJMSnoXMANKBw+PsQAVvB0ygwVOgMvGBTT+dg1ZAIRj21NWM7njc/dxXuzm5m/3IYOEeyj6hLl1ZcwMCkqINWNNKVt0Hq+V8bgfUGTZc596FtAFNA7j9Vxu/ehUBSjQC4ijkfsBYLQiz3gU0Mf9eSs8y3fRJxofmxOfo7O/3c9znePciM+jjfOEDzwLoHmWZ/pfCFA4Qa8I7mJNPozVmClTwI1S27bj3di10+TFPDSXK4jNXJq4Ls7Pz23zLJQqE3sFzAr9aXdcCLS9pmsK0WlDGDA6M/ltwWAiFh4wAUQWhYC/BcP6sShoV37T7milWr61tX2bkommvhcaWCRchLRXWnkU0IdGyStAC1efB4RlLxKKMg9px2hGKUE3mjOXPtoQAjJw/aYlcgeJ1xPEGjAMjeFNTYOp7xdeCAKI4oIGyu6mPrYZmIMW1l8kfzXpw6IUowMGeIz1y9IirPGpbn2AGY3xHfDl1cKL+rPz1gBxyhFw/+IXv3Rw++0fODjq6UcdPPFJT0wW85133vkwV/a+xZjRHZjzCqLJnEepK3vOMa3jWXsFzAQjrZMm2bZBdQ7M4dKwoO1uxEKW7CVlXhyMhskFZfcQzcq52QA6y1kpDM2RdrSNHcAIPXRyxA5SuaZHeLKkCUEJDqxlbipWMIHHiiE0bTYOnAlHwpaF4r6xeQMa06DNRWTbrmMRzPFM70rQcSfmis6Uz952YI71xw3MYnbkfKeEBlBES0/Wq5ITiiRApegBaeuUgoinWFqsafxIIfI9zw2vkHUq14GizqXqmdYtxTu3fCLGPNSrU5O/yrl81clfYVzE7zycWT7K1Z+5V8DcRc7mPp1h6bTVmuYLN5/kEI5+T1mj2jX2ub8PWsX7xvPD1dPm2kGPoGmcv8s0ymkCNHgUuPe5K1dxbDswowm3bbNcyuf4LY6mO3AZD+Zrs00oN8E/+DfnVaEbbtZF25x2zWUF5i4Kfef7OYCZgRZbzm5qZ8EKzA2eWbTI8wWcxxnyy5t1kaXxhHK23fwzmzGYnJ5N2m7+24wfoXeWgSneKbtTItCqtPRdAGZxWQlQ4vC5klvCO4uU4Zwn2+6TPyfWbKxl3xmLeGuUQfbligrM5RRbNTBT8HhLeEkkCcqRaSYBt402eGQumV6BuZxn6pmVAr0oYDFLWOHCB8gE+yoX9rYDc3hhJPwID1zFEUYAACAASURBVCmL2oRDDoR2u7GVa98xVWAup9gcwCwZT2hD1nmUxuUeUAmI8o80m5ELI8k3kn5XuX6/y8jbp3Kp3JU1F4HLWXIzzmx6A/aZTss8I21u0WYWJktZ1r7kIc0uYqvRVc30tgNzky4lVvKqaBn3zUMzQ59VgbmccqsG5rY13Vy3moLIk9FsRh6CfBr5Cc2OcOVv1f/MvbKYpd0jtlIBiSP7EN/syxIYV4KWxC6H0rKhSS99n71J56ODTHyxYbFFv5W+RSmKBDiHcg9xKt/LAg4XqKx9pSJKYZTHDHWD9qHJrgFzn3ff5HMrMJfPzqqBuWski5TxuG4uQ2VvgBnBFbyLLSj0V7fYtGC6tKmuSd2F79FAtrkEHK4c2a7NOuZF7zkX085BZ27VBx98MNWvq88EtDLMWb7qLDWh13P30KFDqQzHuUp3lPJo52cHGgqg82Wqz3FUYJ6Dyv2fUYG5nGbrBubyka72zL0CZm5FDQYUrmse0qzPRWqt+WTOqn20obsyCr2zdwl0lrEU4W4/UuDjb+1FlTTlrj0lYZIm1HBrgCD2pumKmM2uHLI2WcUAVomO+efWkjDiO40e1LErFROn8pk9vAE24ULp031pTr6pwLyZ3FeBuXxeKjA/RKu9AWYvS3CxAsX+miUrYS2zpDUy0CBELaRWeNprzilgy9l4dWeyACU+cN02YzCsR94HblyNCJwHmLU83AU64QXvyHPgsJeqd1TL7jfXNMVNkxr8oqmMbky+05VIwpcQwNy0qMC8uvUw5s4VmMupV4F5D4E5wLlNYAYw58keefLJ3EK2nJXnPbMrIWre0Uz/tHg/mZmsYeU7WrFqKKPdoTiydo964B5//PGpx7GexhQ92bvai8YxN89UYJ6eH0rv2ExUy/8PYF60icXcfNL2TjHe4H/5ERri6A/dVMyTRfeIR5SSZuF5bYmm0flr0X7MUzx39MBnuMFeWcyl9KyZyaWU2s3zYv5Zwh/+8IeTp4VbW4yZ1awdKY+Cjmbc+nIWdIDTeH+dDQsqMK+PH9FeOINHDg9oQSuzVxhICI0nhYeFN05CoHPDa7dOsDFuPzKPI/dGn2rvwWOkTEgrYzkn9g3wbjofTpE467lKl4SE/C2BUuKpntrKC3me0EYoSZ6LEORUSsH6OKXsyRWYy+hUz9ojChASrGRbw2l2QYASGISVzwgJCWF20hF3tiGKa7Rr1URkXYK2AvN6mDQUOcClZl2yH17QI95mDnINbCUokfK4445Lypw+84DH/+vkF2PnFVKtwgskB8euTsIyeBsgx0Y9QFoOBb6niI4dt2dTXmwspGbd8+1YJ2kSHYWT9DbnuZKzIdeHcqzV6q4fFZh3fYbr+w2iAKuGwCIkQhAQpLR5bm39vW3mwXIQc1Za5TubeYwVWIMG/O0cCs+WtEig2h6wHqulQIAy3mAR87LwqgCzo446KgEKoNavW59uQKT3ts1b8Erel3u1I/3uu4el7LdqAsqlJE77AwNHVjFgxENaWLKUjdfOUEI2OqGN4XPP1VHN9pnyNISF3P/mm29O7Vf95pHSMU8fAP3QKcYs+1X1mp+T/l3PqsDcRaH6/V5TIAQvNxuBRGsXRx4jlFZF0Goxr4qy3fe1YYsNb2zAAZwl/0kIVE5nu0og5G8hEUofJU5lCDBfFy/hF3vLa1EpDANs7des8oDbWG/3Zz7zmSlZFlja3tZ+9RQOZYFjDs9++ctfnmhlJzBxeKAPnHka/O25FF8Ksn3d0Ur5Yl6+OWYMm3xtBeZNnp06trVSIDZOuPXWW1PDFckwYl/rjCMvI0gF5vWwC7oDEeBiy1cNaSQFsvhYoj/90z+d9jNWTqcc09azkqtUe7AW13UYN2v4uuuuS9u3asDEOgV83Me8QkBbvT6Xsniw9wPMY2PMni08dNJJJyXL/JJLLkmAzKXOehbXRiNbylKKhQbsne3zJz3pSesi2WzPrcA8G6nrg7aBAvmuWTZ6f8tb3pLibbYXXJdlU0q3CsyllJr2vHALA1khDRYeq5MLG+/I5ldaCPCi/l2cWf4CNzK+mpu3whPkt7iy8IfYMeDzDnIlKBIsZmuC+9gYKRWveMUrkkU7dszuK9Zu/2ygj1623jQeoQA04l14zGMek7wP9uLmtRJKGvvsaTlg+rtVYJ6epvWOW0qBELASUdRpExZcdyGUNv21KjCvb4bQnjUceQjK7YAbIMFDrMHTTjvtQBmQ39zbmvgA83WBTPC7vdRZpmLLj3vc41Icl4UqMY2rW+9oHewApfi51rRHHHFE+j3m8PwzzjgjVTnYtERvAM9glZ9zzjkp+UxcHlALIbGYKcrGuOtHBeZdn+H6fkUUCLcei0aiiQxRXc/GuuyKHj7RSRWYJyLkiNuEJZrfgudFFn9+BBivC5SNpW2sMUauee53Md84Yqxx3RRjzy139+PeFoeXAd48gr+neO6IKZ7l0grMs5C5PmSTKWDBi62xcnR841rTyWwdLsYxdAohJ25Xs7LHUHKaa2M+NKAxH2K223AYt45+3MySreYEwtr56yEOWQrMTY1KTCAsiFxrCk2m+Vl6wCMecVgz83fco01ba2OAuPci7Sn/fFXnNp+dv1PzHUMTDaHe1AhL3iO/x9TvF/fOaeVv8/r/2zsPcCmqs48fMZ+EaDRqLBERRKxIEym2GBFFBIw0EUUUSygqoqKoKEUQFSQSFCIgir0g8bMggg2MAioWbCEYCxHEhh+KLbHwPb/38l4P4+69sztbZnfeeZ4Le/fOmXPO/8zM/7zdXz+1tfprRlt//fLVjuQLGqKUqr/g2BRrv51+VnWdrpmeq9dAMsCuRs5vvsOuRt/aDlzUCYzPXJf/uU7ws98u2B8qTsieg8+oAelDP3MtfuccHHJoz/W0Hb9j++PlrtI9TmiMjR+/3QknnCAqQrxoOZijtsu2P23n98d3YME46UOd4vxxVtdfrtvpXMEQTMGZ7xgjGCGRgQV4YrLAu5g5MWacthgv+NKO72jHDw5ItGO+hO3QjutzPmlr+Z/r+P1pO5yr8FFgTFRq4zx/nOn647ocOk7tj3FwrVTtmB/zYH6M0+/Pnx9rxfzAhB/60PS7XIN4ZdTHmHT8dvQNFoon0q16aPOZzHiMM4gn7biu9qcYMk69Bu3IwY/6HPW/Pz/GS5/+OH1cwJPxgwuHzk/Xj751fqWgBUtLzPpi0odPF09vTkBh0TlPS+P5N4u/CAoKgKxbt04Wkna6eLTTmzp4s3BTcLCQxNmxeCwC3/M/19FF18XzF53+/JuFMdOH346HiflxrhZD5zOOG4yN8xmzttMi2vRLO1z+OZdD8ybTDly4HhjqzaIvCW4YfYh8DJkfbbm2305xAUOuqzeZrkPwJaH9cW4QF7DmYWDM9MGYmB/ncnBt/s7/jBMHDJ0fn3H8oB1jYn7MgweMMYM97cAFJxjOZX60w4GDdloikbEzH87n76wp7ShMTlIPxgmeqAEZI/2xlvTht2PstMOrlJqpPuEpkTAPMPIJj905bSlCQchGOsKjHUcqAlI7m09cnM94/P6Yqz47+gKjP72vac+6gwHzZJysm76I/HXgumAO9rShrZam5DzCcHAqOuKIIwQnvZfT9cd6cF6wP7Bn/cCQ/sDKHyff0R8YMCfGwO/azh9nVe14Jpmv3meMk3kzP9ad63BtfacwznT98T1jZk70yTWYP2MEf+4tdVzifkFlyvU5h/uTdvzOXLkWfdFW72VwgrRoB/acE2zn94cae9asWbIeXIP702/HnMCX/rRdsD+9r5kP94vfn86Pcer8+LuOU/vTdvSn86M/nj36Y5zgwvoxP/DHIWzu3LnSn46T/lhf2vBDBjywoD/swYRZsWacgzMX/bKevD/og/74wZasTlxcg8+0I0kLntnY5sGF/rgvuEfoj7HxPqA/cNF2ug6MkwM8GQOY6Px4p+imOiggxe33aiXm4MMAQPqwAxrgcTPzve4aAZ6F5eUEKErGGpOmD7v/8HEdHj4WkjbcaCwIfdCORQVYbmra8YLmBUY7+qYPXQT/4eMzC6np8rhBGK8+DPTht9ObmkXnxqI/vanp12/HeBkrN5kW0eYzXoTcZNws9K278OAGQkmVm4JzFU/deDA/Dr+dv4HwX2bBDYS2Y+zBDQQPCnj5BKsbDyVmfWhZh+DGg3banxIz7cDDbwf24MnBS0mxUGJWQud+oQ/Wkf5QKYM9WNOOdQ8SM3PnfNopMfPQ6jr42pegdoZxsStHXUfih5YtW0q/HP656a4RtLXRrqr+Up2vbYJjS/d9Oi1N8Hvao8rGeUYTjPjSu68V0fkGtVqqTanuXH/eqeZR6JddcB7B9Uw33qrWJ901gvNNdQ3dIC5dulTimlULlIv+gvecv5Y+7sE11L/pGqc797333hNVNrmyU52b6lkJnpeuj+Cz4q8bqUyp6IeTXFX9+teobk6pzi30vZlpf9USs3/BbB/gMC+GdAPPZHH8m9BvV93nKO38hyz4OdWLLRcPVDoiCN6A6R5K/0YOEkG6NU73Eg8+2HF8CBQH/ieBgkqfbdq0SUnkmT5EcTsfSQdiJnuTHcVBQO85JE42f7phLM5oMu8VYkbzwga2kM+02Zgr1sqcvzK/Z61FCSGgL0ikY3b/SMuEfJBGs9xy7uoG1FJyFvcG9aVppE6cv0jNWUiCi4IA49cEKOSsLuS4jZiNmKPcu9Y2xgj4L0Z1KHnttdcklSbVfmrXrh3j0Wc/NCPm7LGL2jKVKh+/Bcw+3bp1i5zCMur4wrZnHvxgTiIX/B/+8IeCEzNahhEjRoQdclmeZxJzWS5rciflvyDZ9ZPEAemYhAhU+ink7r/Qq2DEXDjE/ftMzT+KP3mwyevcqFEjSS+JH0bc7zt/Pvil4NV/2223CaCF9GImFSjOX6QrjTtm+bzbjJjzia5du6AI6MsFKZlassQjkyREUyOW+4NuxJzZ7ZZKyq3qCj4B44yIVMnmjwILxPtCaGSJwzZLYg40Mzibxu2+SzVvvXf4H9+ESZMmSbayQh44e2JqwomTNKZxw62QWBgxFxJt6ytvCKgKjoe7Xbt2kigEQi4l215UcIyY0yMYJKOglEtLxY+oAUiXfM2oVQnh4TsiDIi4oApThw4dRE2tURtEWNCeqAnOI1IgLsQSZgPC+Em9SVrR++67z9WtW7fg41+5cqXETRM/HddCMVGf0bDtjZjDImXnxQIBfXnqi9QfFDl+yfvLC4ZQKpy74vJyLAR4ujnRzF8UIGD+5YqBL+WFxRcCIvSSmshUDXvooYckRhevaYpMdOzYUYpLEI/LJk/jxOlLY2A174GPa74wro5Ug6FX/vOhzwjz0zmzySAHPM6QqNgJRSSUiwQo9evXl9BOzVlA+3zNy18vTfZDBTcqdFGVq1B9h71vCn2eEXOhEbf+IiHAQ+y/fDTLUKtWrSS0Q+PQI3VSgo3BhJhvyIMiCQMGDHCNGzcWyU0zSJXgtCqHrNnXlGx0E6IvcAiEuH/yD7z11lsi9VGIQWPid999dynKgMe6n4c5GB7oS86FIKXgmvhErHMMzlXbKOH+61//Esmems9ksINY0Rahiu7ataskmlGyDRK333+x5ssz/Pbbb7t+/fqJxKxHMcYTl2fEiDkuK2HjCIUAifXJMISqDcmFMnEQEjt+dv9JfpipVDR69GhJ8sILmIQur776qnii5+JIpQ6u7rq+VOvnM1AC9ImWFzQqY+y3KkVpkiKuQzIZCow8+uijIvWRlIc1R9qFcKmQhKo5eA/4v6eTQKPeN+k0OT7xc45momMToVnNVKvBXDXdJrZW7nXmygYDWzabTggXR0ZU6SSQ4XdfuqxqjfRvqTYj1a1jJn/3x6CZDDVBkKbYZQyajY8qXDjMsbEwUq5AwIg5kzvOzi0qAkgIkA/5dM899zx5aXXr1lXCoFTVWNQBFrlzMOjfv7+bNm2a4PHiiy9KHWD/xR1liDg3kdkOiTOsDZUXs+aihkj50TzmvJjJ4IdEz2YCIoJwkZpU0sWZipzf+A2k22D4RJOruYbBSQmI+WmqYFTlzAWVMOOCbJmfZjBkcwEJMUfuYwiXv0G6DRs2lFKH3M9IuHr94Oam2OSlmwtNLcp8NUuh5tBmztiJ2Wgh0TNX5kz6TTIEMl/WdswVY9yOv6uI8Q5u3MKsQbmeY8Rcriub93n9yL5Oelm/Pn+d+TY0PF/POWeQe+WVVyQ2lPqsFSFQG3aZ/L9+E7abGwa04Q/5G15Or1yVmjFMR7QndpZav+QQvv/++8VumO2hxADpQJoPPvigJGkhtziSndpg2TAh4UGmEBIvZH6QZjVvNTZNXs4LFy6U8/gegod01ZFKSTWVnTRIRr70l+38/HapJGmV9nR+2Gm16AaEC8EgsWqOeNTIRANgUoGA8HNgnnvttZcktTnwwAMri4n4G4iq5pLLefoE7+Ppz11t6mzCWCe0UayzEi6bCDZTmExIZ8x88UqnOhvPKvNFg9GsWTPZZCDdp8tPnY0GJhdrXQrXMGIuhVWK4RhFLbf+R/fDd9h8fyLpXA8VioVeP/lkjZvwl4luwoRrXc2atURlOfbqq12HDu3cJjVquBpIJ5vxf43KDUOux5LP6+lLSos9ROmLbFNnnHGGkEEUFS2mAsaDgxQkj1Md1yT5A97ukD8vbbxplyxZIqSreeohZYiI83lRBw+ffKOMMRucIFxVm7Ph+PDDDysLo7ChQFrdaaedKvPxYzphfuRxxoYNOXEOEh8JOLDlQ8JhjkLPlTGphMuckeiZDz9avATSZXPBnJFk2Xxg82UjjClEK2hByA0aNHAHHHCAaGL4PZV6PBUOxZh3mPWI6zlGzHFdmViPa7374vMv3YoVH8vDWSEy51Fsds4tW/aWmzrt5grb6W+2cQ33begOObiV2357bGyowWq4f7+/wh18SPNIZFQs2Hl5InERw4n9PMpBUhVI0S9yn831cKJC4ibvNuTMCxoNBQ5FePLi9a0Vgrh+KukuqhYgFaGnmovabxkj6nIkdPBEzaoVsJBuwYRNHZIhmwgkPryBkXDZiCAF16lTR/Dbd999K5ODVCe55nqe6TYyQSlTtRaQLGSrdcVprxWn2EThZY40iymCTQZJPJCIOQe1MxuN1q1by7yDdmtd26Ct3sg2m6cqXBsj5nA42VkeArwc3v7XSjd3znOu1QHN3aabIqUGiVn0yp5qOahW3ljdvIlb79aLbMz3NZxDCsfutOG6KjnLS0LO++lvfObvjzw8z11y2eluE1Flx1eNneolD4kQyoJEAuEV+2CMqK6XLVvm/vSnP0kYCy9ybIlI5G3btq0cYj5f0L79FiKFeLBZ+oSLRE52NzY0EC4qZyQ9Ukoi4Sr5IOGiYsWWq9XEwuCcy/mlkjBTXV8JF7yR6FkHQryQepVwIVC8zZF0+Z64a0gXLQD9IAUj3XMO8yYcrCppNp0tOwxGdk5uETBizi2eibna22+tco8/9rxr2bqJUKQaeiuE5wpy3WQT1NybokzzpFhy8XJ+BcVWkDfN+byp++bbL90va27u/vvfb91mNanF/aNcT14aNWikavNNKy7h8e+qlWvc0R33q7Q5V0fOqeyKuoDB+NDg99kuNH36L2ftZ/78+WK/HTp0aOhL+zZgPmP3TCdN+i//sETDNXn5Q8gcSKKME/sjoUfp1LepbJmpxqW1wCFPiOfNN98Um6YSKTZoCKVevXoi9TIOpHjOxYlKPbaR2lGtIs3zXdj5hQY6gxODmy5db99Bjc0D6mI2EKSgxNOceatkr3ZpVORgAdFyHhsSrfWNlMu82WSwmcMZz47yQcCIuXzWsqAzeeftVe6Jx5a4Fi0bV/S7wQOrwhFsvVu8eJFbtPhZN2jg+WID/uKLz9zNN9/qdtllZ7fXXuSu3sc999xit+6LL9z+LfZ3CxctdPs1a+6efHKOO+aYzm7ePP7v7hY/t8j9c9nrrknjpmIT22HH2m7t2s/c9tvvtCE70U/C+gerPnPtOzbb8GKuXmrWmGicWFDlqZMTkheSCi9QXvSaqAQyQAKJEhesL2oIeOTIkZWSG1V8FixYIPbbsMSyfPlyN3HixEpvVsbJnE477TR5UUN85Dvu3LmzqGhnzZoldW7DXp+xQhLMmwNSpD9IEKk5HQ6QDj+o5alFjOSKClUJF1VxixYtKokUUqLMIHZNJGENGyLcC+chzkf6q7jNftqJVadeTvdApFM7V7VR075TnaOkqzH1zAfpFXUxpMqagBVrgCMYZgDuMXBlzkjC3IPMG4xYO0wIaAFoky78yx9L2DUt6EvCOssaASPmrKFLdsMKYn7RtWjZaCNirvjlR3fTzdPcZ5+tcb8/5A9uv/1auYXPPukWLV7ili173TVu3MQNGjTYzZgxzX300SfulFNOdZ+u+cTtUqeuGzbsQjdixCg3fvw1btiwK9xLL7/oFsyf5/Zv0dq98frrbtdd67oPP/zYNW7UwrVo2XKDpF1Bzh+sWuPah5SYfcn1lFNOkbzaqGshNQgB1fIDDzwg0hpeubw8kRJRC0ZJF6j9zpw5U4iS619xxRXiycsPxBnm4DqEQ+HkhYoSyRJyR5q88cYbRZqdOnWqxMDiqX3rrbeK3RWpNOxLXIkZ+ys25ilTpohHPDHDxNA+//zzQrhqm2UufE/9YdoiYeMYBjnxmY0D2OFgxLmEP9E2eOTbXitbRzQwm2xSqb1Ihbl/Dhs1NobgixMY2EPEjB+s2TxggtByomAG3pCvajOYO/ZeSNm3zYdZbzsnWQgYMSdrvXM2240lZtFFb9Ar87L73t18843uiCPaucGDB7qbpt/jzht8hjvrzMFu0qQJrnXrA90xnTq75194VqS6Dz5YI4R9+ul/cuPGjXRjxoxz111/nbvs0lHioDNp0rXu3HPPl/jPX/4ST+Ef3Xbb1Xbbb7ddQJX9iWveok4oVTYvSwgY5x/ICwcgPGwhFhxgUNn26dNHbKkk1Ic0cQai6g5SMy/lbA4lZl70OCLhPIfTDb/TNwlCwh6MHQmWrGekMSSVJDbYnj17ir0a4sc+SVwshEpRBTynw8YgM1bG98QTT0i1HyR0yOXUU0915557rjhMsWnRUBrOhWyDST7CbgTCzjsMsabqMyjt8jv3n3oqs8aQLvcZ0iuEC5GyPtwHaA+Qhpk3GxLa+2FE2HpR/Qft175ZxGJ1M1nl5J5rxJzctY80842JeUM8s1sv4Urr13/nbp4xzR3X/WTX84Q/urvv/ps755z+7tKhV7i77p7hjjrqaDd79sNuq61+7Q444CC32WZbCJH36XOymzz5L0LM48df6UaOHO/WrFnlhg2/1LXY/yDXpUsn9/XXX4kau0aNmq5GDXJh/zSND1Z94tq0bRRalc2LFXUrL2ckYVS1vJBxJkKyJCMR0l/v3r3FmYgXMyQYRZWto4WIuR4HL382A5QJDKtqZuwQJTHL2BhJwEECB2yRkCYbB8aNFgBCRm2ODXbUqFGVtujqCJM+UPEj9aptl/aosikSAgFzVHedSDdaoLEvxdKvZgjT0/TvmCEgXDYmOEQRawtenA/h8tOyZUvJjQ3ubDAgXX5YG66tYUQac51Kus/l3OxahoAiYMRs90JWCASJGZ/qV15+0W251ZYSwvTIIw+5Y47p5d5551V36603u9NO6+9q1tzczZp1t2vSuJkb/+erpEpPy5YHutq1d3GTJ0+URARdOnd1e+/T2I28fIgbcsEVbtjwwa5Vqxau7i4N3G233+w+//wzt3Od3dxx3U9wzZptXJbug5UVNuYKspB/086NF7jmX+Yz6lX14KURKstx48ZV2lMhOGJykUp5aWdLRtonjj+oNM877zzJbY0tFqk9E2KGfNgwICWzgSCLFFoA7JiQCjWBsTF36dJFpDu8rLF7pkv4EARLVdnYP/msuaj5TJwy5JYtDunsub56OZWqmQ0HJArpokon+9u8efMqCRdtBqp91O2UL8RGiwoaVbpmp2L+/PA3pHy1X1e+FP3dXlZPhzUyBKIhYMQcDb/Ett6YmCuSenz/w3/cVVeNci+9/JobP26823XXBu677792J/Y6zt1954Nu9eqVbs6j89whhxzo/vnPZWJr/vLLr9zna9e6L9atcQ899IDr23eA23nn2u6LL750tWpRIeoX7vnnF7rGjZq5e2fe47777mu31W+2dQcfdKhr1GhjYl69aq07qgPfVdgPqyNmla7wbCWZAirfl19+WUht9uzZoso+8sgjK2vqXnjhhaJ+5u/ZHirhjR07VpL2I30jiWXj/MUYFi1aJLZfpG68pcmIhkqc+fP9ZZdd5k444QQhIBKEIDWG3VgEiZmx49QFqan0GJaYlYiVbP3fFUsIFOcvHKLIm4yUi22fvpDcicVFwqV6FipzTcbCBoXr6YZDxxfFFyDb9bV2hkAuEDBizgWKCbwGccxPPP6Ca9GyghwlZIr4Y/mfGORAaLP+Lv/XcOslDKridOHQys8/uh9/VGIlaxHSjUZVEVq1wWlHkopsAL4i4sp9+MFa1+7oRvKCrkjNmX5heJEPGzZMJErIGHUlpIAtFYkMSYwfJFgIGicrfk466STXpk2bSCvuOzfpZ4iZlJWMKSzZMYggwaWTRIMDDtOHEjMOTJAydneKhkD4wfActZ37Y9I+kXKRWJHoIVts36+99pqo29kwQLqkb+zbt59r3ny/DRqPnxyzqhtrKpKPtEDW2BAoMgJGzEVegNLsfr17a/kK9+gjz7kDDmruNq2BBOknDKkqC9hPMc8y9w3hVT+1r/ETocrfiFv2D4+NHf1W/A5xLF++wvXoeWgFkVdePDU7K5H4L32tfCMbjRQeu0qi1RFFNmuKcxZqZorEh03vmE0/YdswVxzvunfvLh7dbGCQvjE/UCSDzQ+aA85jI0MMNl7sbDCQZJkDhItdu1evXlJ6E+V1jwAAIABJREFUUG3z6fDzCTYfGIedu51nCBQbASPmYq9ASfa/3q1Zs9YtfHap++H7X0jmoQoCDZOWUyVrnzx98g2qiavyfq5kYHHaefW159155/fdQMw//S0dxKkkLVU1+96zvhSaL8KgDyRJYn6xOeP5q6FFmajOuQ6pGbE1V5UABEzQENAP9mLOVxW3blpIvYnHOjHHhP6oLR4bNlm0kHJRLaNG9z2P0+EdxM4k3ZJ8+G3QBUDAiLkAIJdjF1K3olL/XCn6hpxquvScIqsGrlGN9F0pGf8Um1qRRYyjenIOOeC8nqYEpaSK6hh7MJ7iOG5lktWJayB1k98a56eqVNuEVF1//fXSB+TLBgDCDTpDoYJms4DDGh7gY8aM2Si9Y742K3kF3S5uCMQYASPmGC9OvIdGasnqvZ8LNYefS1/VZ/4q1NhS9eMTJp+Ji8UxizAtJFkya1VoIjI7uBbOUWeffbY4gVXXN6SK0xjJSHDsIpYb7QNEjae6bJU2GPOJ70WljV2Yus9GyJmtjZ1tCIRFwIg5LFJ2niGQQwSUmJGOcfrCOYpYYWy6pKH0CTHTbgkVqoqYqyJrbMSo1AcNGiRqdcj36KOP3ihpRj5t7ZnO1c43BMoRASPmclxVm1NsEVBCxpaNsxQxwkjL1LglpWMUKVQJMxtiVsB8SZ7kJfzO9ciKRTgZ6nXdNEQZa2wXyAZmCMQAASPmGCyCDaF8EVCy9MOJyDtNpSDyJeOghY03ioTskypkGYWYgwTNuHH8IjlJkyZNJK6Y0LIOHTr8LM+1EXX53sc2s8IiYMRcWLyttwQhEHS8IhkIWapI60kqUGKic0lmuZCY0y2Phk+hdscZjRhk5nPsscc6yhOGzSaWoOW3qRoCWSNgxJw1dNYwiQj4EnCY+XM+JQApMkFiEhy72rdvn5e6wfkk5qAkTcpSbOJk4CKkCm9tYpwh7UzDy3Tc9OF/DoOvnWMIlCMCRszluKo2p7wgAGkgKUpmMecq6zUH8zsrwWBHvuGGGyQnNoUxSP2JR3MupWR/ooUg5iCw5KzGSQz1NpnSCMG65ZZbxKPbn2e6OOdUiVzyhU9ebgq7qCGQBwSMmPMAql2yPBGA+HDWIq82McJIiJREJNyIaksQCt7VVHciDhnpESmZDFiawCOfyBSDmHUTwv/EO+PIhmqb5CTkuwYbNiNkEcMDnThpNizkt+agmhc/4EZRCT5zGDnn806xa8cdASPmuK+QjS8WCEB65NQeMWKEVIIiKxclBalkRF1knKOQFvFeJiUlscBk1Bo/frzr1KlTQeZQLGIOSu38jsMYJEz1q2uvvdZ17txZqkFRbxp8qPRESNfAgQPdjBkz3IIFCwRfzT5mxFyQW8Y6iSkCRswxXRgbVrwQgPS0xi8SH4RLdi3yPyPpkeua72+//XZx6lqzZo3UWEZqLlQd3zgQs0rQjAUMkJqpEQ1BQ86Ehe27775CyOTgPuaYY6SEI97peKlfd911JjHH69a30RQBASPmIoBuXZYWAhrqRKUppGLU2YQ7NWrUSIgZxy6kPYgGlS3qWNJXou4mYQhkVIgjLsSs5Kz1jyFlEpdAxqT9xE6PipvUoUOHDhXpmUxjaCFQe5squxB3i/URZwSMmOO8Oja2WCCgXsZIzNhCsZ+i0oagW7duLWQC+SAhIvFBOFdccYVI1KSuzKQIRZQJx4WYfa9sSPf++++XDc2ECRPcFltsIdWo2Lj07t1bVNs4yFF9ijSkQVI2lXaUO8LalioCRsylunI27oIhoERD2BOlDyHlffbZx73zzjuSHGThwoUSEoXK+vzzzxdJ+ZxzzpG819ttt53bddddCzLWuBAzk0UqBh8Sktx7773iKKdSMxqF6dOnu0mTJslGBk0DmxzKSdapU0eqY+HlDXYmPRfk1rFOYoaAEXPMFsSGEx8ElJBx8kJFDWkg8emh0pyWivS/V/W3OjMVYlZxImY0C926dZM0o5dccolM/+GHH5Y0pFSqQtNwwQUXSB1nPNgJKUPlP3v2bNezZ0+RoNn0IHGzsaHilUnPhbiLrI84IGDEHIdVsDHEDgFIjuxc2JKxHxMGdMIJJ7g999wzdmPVAcWFmP30o36N5yBwqRKL6HdI0EjahGAhbbMxwgO+Xr16lZ7bsV0IG5ghEBEBI+aIAFrz8kJAY5VffPFFIYWVK1dKKUQKOMRdrRoXYganMNm//HP8uyiYjARTwV133eXatWsnMeGEW7Vs2dIcxcrr0bPZeAgYMdvtYAhsQIB6xJAAtlEcvXbYYQcJ5ykVFWqciDmXN5VK4KzPPffcIx7dJDHBhk9Jytq1a8saWTrPXKJu1yomAkbMxUTf+i46Aiq1EYf85JNPSowtyUF69OhR9LFlOoByJWYfB10v0oDOnTtX7NhU60KKJmGJZg6Lu3Yj07W185OFgBFzstbbZhsolPDRRx9JspBTTjnFob4mOUipHkkgZl0bXw1+xx13CDGT0OW2224TKToYO14qWo9Svfds3LlFwIg5t3ja1WKOgL7QcS666qqr3KmnnipZu0gEUupHkog5uFZ4xn/66afi5b3ttttK+k9CrnDYIzNbkJj9300FXup3fvmN34i5/NbUZhRAwJeuSG7x5z//WYpL8DJv1qyZpM0sp+O4446T5CbEUyfl8MmVUC2NKyfxC6pu1NxI1JxHdbDqHM+SgpvNM54IGDHHc11sVDlCQB2HSHhBAguydDVv3tzttNNOUpqwHA8l5kMOOaRkHNfysQ6s/erVq6XYCGs9duxYiZc+88wzK8tvkoGsX79+4lSmh6m987Eads1MEDBizgQtO7fkEEAqRmKiVGPfvn1FzRmsFVxyk0ozYN2EUDiCzQcJUTiQEINJUPg+CQSkkjHzh6TJzkbo1ZQpU9zTTz8tGcqogkWsNHHThTxMhV5ItEurLyPm0lovG201COiLmP9feOEFN2zYMHHuInsUtkZIqhwP5jtz5kxJY4nj0/z5812rVq0kDpvUlxx4MJM0Bc9zPNApKpEEctb11nvj22+/lXzdaE+4L0gBSmYxcnVPnTq1EpN8YRMmxrsc71GbU3gEjJjDY2VnxgQBlQz9rFIax8oQcQIizvWmm25yRx11VFmrKPUlz/yR+CidCLkMGDBA0mEiEVJuceuttxZV7rHHHuvatm3rRo4cmZgMWr5k6msO+ExO88mTJwsWpFtFzU0BknxrFOjb7yNfm4CYPLI2jAwRMGLOEDA7vfgIkD+ZFxlqSSVpvKyRhvfbbz8pJIHdkJcf35X7S495Ei7E/8z98MMPd+3btxds0BKQgIOSiiTkQIJ+8MEHRVqmZGWSDpLHTJw4UUwa22yzjfvTn/4k9mckZXJzs3kp1PH5559LrWocD0eNGlX292ihcC2XfoyYy2UlEzIPMnJR6IDUjIcddpioZlFNXnzxxZKpa9y4cRt53ZY7KbPsJERZsmSJZCyjIET9+vXF2xwyhnTQHiA5Dxo0yJGYg/AwiJmY7STgo48GRTEuvfRS17Rp043s7r62hc9V2eNV+vbV0UHVtH+9qiRvHM/IAc56JWkdEvKqijRNI+ZI8FnjQiLAC5AwmKuvvtrtvfferkOHDlKtiJzWl19+eeLLBIIDyTawl3bs2FHsp2xaOnXqJJIzEhqbmnnz5ond/Ve/+lViCIF7hxAyVNXcO0qEpPlEk0BxjH/84x+VqT133nlnxw+SLZqFt956S1KBclAZCw3Fe++9J6YD2rEJQjPB79TlXrdunePaZCKjL7DecccdN8Kb63399dfut7/9bWLWoZDvi1Luy4i5lFcvQWPnxYqTDva/GTNmCNnwIiRjV6NGjfJuE4wz1KjxqX7FJgXHLrQKehAWNnz4cPfaa6+JNgFPZMowUjWLuN5ydYZLtV7EMmN7h5j1QGIdPHiwlJgkzIykJBAl2gWKZpCwBImWRDRgCMmCL452ONVxH7LJQSuB/b5///5SY5p7FVLGbs1GCemYzaMvGUPKSsxxvr9sbIVHwIi58JiXRY+F9ixFcuFFiCqSo1evXq5Pnz4SFoR3rR5JVAkiKZNOFMKhLKWuDQQ8ZMgQCQ+bMGGCkAXZznCOe/vtt8Vre9NNNy2L+zHMJILEDE74K1AnGgn30UcfFRI97bTTZINDbDPS9KGHHir3HVIzBxoHwq0ee+wxwRBp+IwzzhAJGuLHv4FqZBA1xI/Z5YYbbpC1MGIOs1J2jhGz3QMZI8ALDTUcLy0+a43cjC+UQQNyWqOKfeONNyqlY16eVH9CfQjZINFQfCKJ5OxvlObMmeOaNGkiSVQ4gjbPpG5iUknMEDKZ4Bo0aODeffddUTez2UMqXrBggfvb3/4mRI3nNrZ57M+QcosWLURbg8c73+NIBjEjMUPOqLPZKLEZ4v7EyQti9jdCJjFn8AJI2KlGzAlb8FxMV229JGogteXuu+9e5WX9kB7/xOD3qRxrlFjSdaBtIO4777xTQoKSSMzgo3iyOYGEyPxlx08IpJKYwQxTwH333Seki3mE+HccC/HSvvLKK0W7AIGj/seJDvsy6m8c6SBoCBkNDqYEPL65FoSM2WDFihVyXaTnWbNmbWQ6MGK2uzMdAkbMdm9khQBSApLZRRddFIoIg3Gbfqcq0aXKhOR/Vx3h8iJMchpKxQpbqRHzz2/rVMRMohHU/BS9IO4bLQyqaT5zjB49Wogb9TUaIu5jbPXYolF9Yzfm/7322stdeOGF7vjjjxefB4gZEueHNvydmHpTZWf1uklcIyPmxC15biaMtPD4449LgoZ0hKkSHC8/VH38zksLlR72OjyGeYH97ne/E+cZiB6HJF56t99+uzjk0G633XarTIhR1eh5ubZs2TI3EyzBqxgxV71ovle2ahiQWsmhTqpW1Mx4YuOFTegd0jOOXJA0zluYS7jne/bsKZIy8ccXXHCBSNAczz33nNy7aJAIYSMvN2lAMbH84Q9/EDW5f5jEXIIPWYGGbMRcIKDLrRuIGecXvFdTETMkgaSADQ4C5oXGAQkjuRBeQqYqwnh4CQ4dOlRUiNiMeYHymZhcclxzDra76g4j5vWyFiYx//xO4X7EVnzuuedWevFzFvcoJIramg0klamQcpGa8ah+//33JRkJDoZgi2qa3NqQMU53fCbRDdehD0KkOA8nMn6H0Plhc+nbl/kb6nF+eCaS5B1f3XNsf3fOiNnugqwQCEPMvHxOPvlk98gjj0g8KC+43r17S4gJL0Bsd0jMvNyQlJFI8HLFVke8Kc44xIjywiSbFUdV6mwjZiPmdDcz9+KIESMkI9r++++/EUmmc47L6sHIoBH5ytl4ks+9OjNNBpe1U8sAASPmMljEYkwhDDEjRRBD2717d0mViRTBi5EkGNjlCH9C8sA2h9oQyYEYUuzEe+yxh/yPdzEhJziZ8fIyYk6/2qbKrhob7iMOnLWQbFMdy5Ytk2xy+XacQ11OwRFindEY2WEI+AgYMdv9kBUCYYiZC6Ouplj9X//6V3Gk4YWHJExsLSq+5cuXSxgUKkOSNiDNoFokkQgpI8leRYwukjRSNwSejpxNYjaJuSqJmb+xeUFVne6gKhfqajQ9+T5QbVe32cz3GOz68UTAiDme6xL7UYUhZsJGSJuJmhp73Omnny6SCnGjixcvFm9XiPall16S7ErY/3D6QlqmGAOe3xRc4FxyP1NwoGHDhkbMae4Ok5ijPzaolyFmktfYYQgUCwEj5mIhX+L94mmKQ1dVzl/YilHTIRXroQlJUFtjO8Ybe+nSpaLGRr2Hww1SBI5fqBwpToH3KqTsJ/sPSs1cF4kZyTqphxFzuJVPFZanLSFm7juIOd9236rGEW4mdla5ImDEXK4rm8d58UKBTLETE/qU6vCr9OgLLlUCkVQvJ98ZJ/hZ1ZF+n3p9sjSRyCGpHq5GzNFv+qeeekpMLeTGtsMQKBYCRszFQr6E+4UASI35xBNPSI5gjePUKfmShsYyp5su5xJOhRNMMG+zkjL/kwIUD27CWog5DZI94VeEWpEIIt+STlyXzog5+sogMUPMhFbZYQgUCwEj5mIhX+L9qhMNHqz8ZHMoaVPKEQ9VwqlSqaj5jtAqigqQoIQkEMSVkqNbHWhwJsNejbRsxGyZv7K5H2ljxJwtctYulwgYMecSzQRdy5eEoxAh18HJi4IL6cJG/L6QmnEqg4SRnqkORCUfTQDBEkQZTykvoUnM0VYP/JSYcVS0wxAoFgJGzMVC3voVBMIQs0LlEzTVf4iHpngFhespMNCtWzdJiZjUw4g5+srj0IjzlxFzdCztCtkjYMScPXbWMgcIZEvMftfESWNbJvaUurfkMaZgQNKkZyPm6DckxIyNGd8JOwyBYiFgxFws5K3fjCXmdJBBSPwgRZPIhEo+JC/B9k1ebiXocg9PMWKO/lBBzO+8844UT7HDECgWAkbMxULe+s0ZMfuqbuzLeIkvWbKksjjB/fffL4UdSAtazlK0EXP0hwpixtGQusp2GALFQsCIuVjIW785J2afoPlMrm5s0JSYpGjG3LlzRcVNvm49ggUM/BCt4BKpjTuuzmVGzNEfKiqmITEbMUfH0q6QPQJGzNljZy1zgEAmNuZsulM1N3m2ycdNOb8bb7xRQrOIVeV/X8UdVHcHvc/jSspgY8SczR2ycRsj5ugY2hWiI2DEHB1Du0IEBPJNzEpYOkQKGJDek3hnYqeJgz7xxBPFw5scyYRtUYVowoQJ7qGHHpIC99isd999d6mpS7F7QrPieBgxR18VnAhRZffr1y+xYXfRUbQrREXAiDkqgtY+EgKFIOZUA0TNjfTbv39/yct96KGHukWLFklKTxzI8PS+5pprJLYaAuccbNTUzqXiVRwPI+boq2LEHB1Du0J0BIyYo2NoV4iAQLGIWVXUSmak9NQavRA2KUcpPUkZSqpeLVy4UKRlpOa4qrONmCPciBua4oeAxMyGLa7rHH2WdoW4I2DEHPcVKvPxFZOYb775Zjdx4kRRXfOz+eabS3Wr3//+95KsRBOW8D3qb6pfzZo1S/4ex8OIOfqqUJgF568BAwZEv5hdwRDIEgEj5iyBs2bZI+A7VHEVpFOkUYpTcFTlGZ19rxu31DFQHAOv7XXr1klRDrxxUV2//PLLUjd67733Fql52rRprnv37kLWNWvW3MhhLFdjinodI+ZoCIKfSsxnnnlmtItZa0MgAgJGzBHAs6aZI4Btl2pSvATxlIaEIUIt1UhBiwYNGkiyELyokWBxyMr1Qf/UeX7uuefc9OnT3e233y71nG+77TaRlvj+wQcflHrR2Jnr1KkjUjX1nnEgo/0ee+whVbHiovLUzUaPHj0kscohhxySa9jK/npIzKiyjZjLfqljPUEj5lgvT3kNDuJAJUzNW9TCc+bMcbVq1RIptGHDho4KUThhkRBkwYIFYtfFpgtR5pr8GAv5tdkUaH5tviNjGA5APXv2lCQleGYfffTRQsirV68Wj+zLLrtMiJlxrVy50h188MFus802q5T2i7VqbDTAidSkZ511luQQx3aea+yKNb9C9Ms9qcRsuBUCcesjFQJGzHZfFAwBKkFBupMmTXItW7Z0y5YtE/U13w8ePFgIhBzFpEO8+uqrpdIPau6OHTvmnFzSJQsJfh+McfbV8GweCLMaPny4eHQjQTdp0qQoBM24nn76abd8+XJ30003uSOPPNLtsssuDukZG7mRTLjbHGJmw6apXMO1srMMgdwiYMScWzztalUggOp6ypQpbunSpa5Dhw4O+y5qYqRUpNIhQ4a42bNnuzVr1ohEeu+994q6+9RTT80LsQSTiTD0VAlGfFIL2sdpgxaA0KrmzZuLBI56G8lf2xWCFBkXGxkwxD5On7169XJ/+ctf3JZbbpkX/MrxZjdiLsdVLb05GTGX3pqV7IiRjFENUwGKjFt77rmnkBhxwccff7wk9UBShlCuu+468X7u3bu369OnT6yJBbs5B5sI1PQczA/J64gjjhDJNR05p9ocZLvAXOu8886TOGz6e+GFF8REUIiNQbZjjls7I+a4rUgyx5MVMWfzMvElDXtRJPNm4x5A/Yt0+bvf/c59+umn4um8atUq16ZNG/fSSy+5MWPGuGuvvVbsfI888ohIoZB1qdwzzBHHtRdffFHKB6JGRmXftWtXV69ePXFyU69zNip4eHPkwhOdvhcvXlzp+DV06FAxFWSDXVKfV+45NlQDBw5M5kNqs44FAhkRMw8rLxNePHjLVkXQvq2Oz88884w405CfGAeabF4WsUDMBpE1AkoceDtjN/7HP/4hBSUgrp133tl98cUX7qqrrnKXXHKJSHv77LOPJP0gLSapM0vlnlEJmvFCztjJSeuJ7bdRo0bi7IZTFs5k2NtJZAI2/EDoPCvZHPrM3XnnneL45W8EMr0ecyAtJbnFdeOQ6TVK8XyImfC5c84552fDz0YgKUUMbMzFRyBjYr7wwgvda6+9JtJMVeo5f2qEHuAcgy2uadOm4phCNqVSedEWf5nKZwRr1651H3/8sRAxL38kSsgXSRK19ptvvil5qSFtQpUITeJvGk5VKkjoS1zJkjkizSLB8uwwvxEjRsjzMGjQIId0i4c3IWJ4rGfzbGifbHC4RrYe2TpmSBmP9dq1a5c9OeucwxJzNutTKveujbP4CGREzAwXlSPqSF407PgJyyDuFMLG8YXqLLfccot8Jq0dL18cfciwtPXWW8vLiBfzK6+8ktXLp/iQ2QiiIhB0oMKT+Le//a3YZVM5WpXDS1DnzP+o6XFwu++++ySJCXHabFbJxU2oE9oo/1A1ty+xVeeQpu21rX+9sJIfpTJxysPbu5ylZt5RaAHZGPJOw1cA/wd/M6iY8d5De8O5dhgC+UIgK2KeP3++1Ldt1qyZqN/YVRP+gsrxggsuEImHXTsvnIsuusiddNJJch5OPuPGjZMXT/369Y2Y87WqJXZdvIi5V/DQLvdDCfrwww8X0w4ZxyAAngm8zyHqdBsRtAffffedSNc4ef3tb3+TjXGQaNPZhyEfSMUn7aoIV59tnuVyPdSEQKQApgYED5LcIGgQF/7JJ5+4iy++WGLXx48fL5sqHPxYo3LYMJbrupb6vLImZl4Q2GIg2v/93/91vGjIPYyae8aMGZJTGCnorrvuEpsyWYi4yQndgJTJslTOu/BSvzEKNX5ejGhPkkbMZBGDaPV49tlnxflt5MiRKV/4SrZsXlD/P/DAA6KRmjp1qiRm4XqjR4+WZ47nDTLFXMTzibYKCQ9JkOQpqNMJS8PJripySQIxIy0jJUPKr7/+eqUjYrt27SQVK05gt956q2gOeH9hHuBe5Tt7fxXqLZG8frIiZlTZqKPr1q0rjizctDNnzhRyxp488OyBsrN8619vyd9Jc0eYDC8NbM2EwEDqpg5K3g0XnHHSiDndiiOFoYnC1JOOLCERnhmIl/NwzkICxm7PgbSNtgo7KYlcuA4hZ3yGSNBwYcMmvSi/Q+pJJ2aVmMEPlT350nUN0DAQY3/ccceJtIzNHbOdpmE1qdneX/lCICNi5iaGfCFmvGapXYsHKDtzHnZiNgl3Qb2GowvSMwkOUAOxK9WMTmRIQkoqNYeefC1Ckq9rxFyx+hAzxEC951RkqRLzlVdeKZ7cJBMhHnzUqFHix0GRjbFjx4paGw9w7PVsknk+J0+eLM8n2iquT5pTJeYkq7LBCuwQMrAdo0VAc3H55ZfL5gfNxL///W+x+xMtwPqQFAfzHPiaxJzkN1d+554RMTMUkj8o6R522GHi/YlUjGqNnSVetew6ebl88803krIQSZl4VdRt2NJoT/ymEXN+F7cUrm7EnBkxQyJ4q2MugmQJvyKhCGGMEAoEjEYK8ua5RO36wQcfiHYL6Y/vCVGjPRKzPoPpNgP4j5SzjRlzAtEir776qmj1cMIjZI0qY5DzPffcIyYCcGPjg4YC7MDTiLkU3jClOcaMiDnoTRvGu9P3CtXzc5FMoTThtlGbKntjBFSVihobiYy82+lIEumOZCwtWrSQAiCQ9HvvvSdRD9g+r7/+eqkljJMlm1+8vJGScWSiyAbnkkcAAodk0G4RK55OJVvuNmbmx6aDPO0IDJgC+I5UsNjiydsO1sQ0EzmADw0bnbZt24rwYcRs77N8IZARMedrEHbd5CKQJIk5uJHFgZIsUzgVYftFakNlWlV+AFSueG9DrmREo7IVUh9SMgfXQU2NGQmbKNdCMsYuSqY1ylvi2ERSE6IoIJ+q+it3iVk3RooBmx28sZGI9bvgurFB4m+m8UvueyvfMzdizjfCdv0qEUgKMfsEQCYwTD6ooan7DIli96VOdXWJd4Jaq1zcXlXZtBkXjpzlGhoUxJOsdIRLEfYZ5ihXXMLM3c7JHwJGzPnD1q4cAoFyJWZ94fPiRsIi0xckjHoZqRZVKDWfCclB8sI5Eocuzic5T5QXfhgTU1VLo2OHkJHGcSKLMp4Qt0FsTsFXBrV1WGKOzcBtIGWFgBFzWS1n6U2mnIhZCVGlY9TU2I6pLoWTJMRMPH+rVq02UoOqzwVORwsXLpQCH5kSoS/5kUMA22hVVa2qulNUVYtkT0SFn5Sk9O6wzEYMMWuCkcxa2tmGQO4QMGLOHZZ2pSwQiDsx+4Tn2xz9qSqx6rkkz8FejKoaqZO84BBlVQUhgrbOLKCsbNKjRw8JWWQTEOVIopMmxExRFepa22EIFAsBI+ZiIW/9CgKlQMykvsQJCjU05KqlGhk/iXJI6kFIEp7OXbp0Ec9d4l8pWUm7dE5Eub4FdGOgxExyETsyQ4AshhAzscp2GALFQsCIuVjIW78lQcxkf6LYBOEzeE+j5kXVjPc0ca6EJe29996SLYrEOahBiXnlKHRmKJ+Yzz777MgScxJvUSPmJK56/OZsxBy/NUnEiHwVcbCIRab21XwBxhhJMEEOa2KFSeTBi5u8yl27dpV41x133FGSehBfjOrJ14nQAAAeKElEQVQamzI2WSTnQs/DiDnanQB+SswUrrDDECgWAkbMxUI+4f2S7GLFihWSPhJSo7DCjTfeKIUZUAUX6wg6cFGeESeuu+++W1TZpGTk5U32J2KCCa/ZfvvtJfXstttsK57V7614ryiezDp2MvCZxJzdHYTZAlX2JZdckt0FrJUhkAMEjJhzAKJdInMEUBFT+YhsSxwqnR566KEicRZL2lRyI5c7ITN4UFPSlBhjcsHjXY1jFQk6yKpFZSeKuFx33XWSepbygUjYAwYMKMocwM2IOfP7UVtQ8IPQNiPm7DG0ltERMGKOjqFdIQsEIEBIDCebuXPnSilQXoqog3NFyhr2ky6BBmMghpjzOCiLSH5ppGTKlWIz5m+kueTAtkwCEKR9JGaybpELHicvbMtk1DrqqKMkdWOh7Mt+zHLQ+cv3ys4VplksdUk1IdQMiZma13YYAsVCwIi5WMhbvyIlQ8wTJkyQ+t3YcXNFIH74UaowJyRg0lviZU3VM1TSJP1o0qRJ5coo0eFhzflIyFtvvbVIzevWrZO2eGUTDgUZo4Yn9heb+SmnnJKzuaS7VUj+QfpICljgiIbKHS/w2rVrSwEZNhW1atWSjQbfk9iETF65wrgcb2ElZiRmw6kcV7g05mTEXBrrFMtRQgq89FXizGaQpKO85ZZbHCE+xPpme/AShZCQgCFUVOXkPfaTdXz55ZdS4QySwpELuzGqdNTn5JIOpmdMN5aglKp9+ufn86Wu/ZNrG4/xxx57zHXs2FEKVbRp00bmQrYuYqgpB3nggQe6iRMnuoMOOkjs94WS5rNdy2K2g5hRZV966aXFHIb1nXAEjJgTfgNkM32Igao8SJmofJHYohyayCLKNSAj7L44aEHKlPAjrhgpGCczpFzsxnhUswnAqxppslRJijVYuXKlw1lp0aJFEsrVqVMnKUyx7777Sq10Mo3hVc45S5YskQ0IYV4c+dw4RFnHYrc1Yi72Clj/8nyuDysmGF6GgIfA3//+d3fnnXe6yZMnV1mdyCcAX9LUS+ntp39Ll21Kz0tnL+Z61NCdMmWKSJE4QJGHmt/x9iY9JSUPcdAKHqVIUmgpUMWjYqea1Lvvviux1OCEih0TAd9RChINAdWoqN+sFadKcc6FeAC5d7Axm8RcCLStj3QIGDHbvZExArz8X3/9dZFGqVUblHj1pa/OV9oBkjWqb0KjkGo333zzn7XlXJ+k+Z12OGZVVdyBNqTCxI4KKXNg+8Xzu3v37iUrGadbHOzLa9euFaczkp989tln4ny25557SvgW4VKYCSBkspIRc33bbbdJ3LVJzOlveYgZVTY5wu0wBIqFgBFzsZAv4X6VmB9//HE3aNCgSokZIsbeiYMR5KsES9INVKvUA6ZQA+TwyCOPuG222ca1bt1aHK4gl6ZNm0qCjsMOO0ycwfr16ycEzotywYIFYitFZYvUizTsH/T1wgsviN0YKVIJftdddxVJGsetcpISce4iLAs88R7Hzo2kx2aE8C7MDHiMo9r+8MMPJXyLzRR1m8sJh1w/RjNnzqwkZsMp1+ja9cIiYMQcFik7byMEeMlDwj4xQ44nnniiSKyEFEGwSGnYdiFaSHOHHXYQMkG6xcMZomjfvr3YQiHp008/3U2dOlXyT+PxjJQMWZP6kkQkm2++hevWrasQTvDFyTXVgYyxsFH48suv3A8/fC+bgHJ60eJ4x2YFDQQ28//5n/8RXPlp27atq1evnmx2wAEsyU6GWptwL0jcjtQIQMzUyh4+fLhBZAgUDQEj5qJBX9odpyPmk046SZJuQILYNnE8ghRwErv66qtl0vydsKIGDRqINzHOSoQb4ZyEyhXJGK/p8ePHy0sSRy6ugdRL6NIWW2zhjjnmGHH08g+IGWlRpWX+LycyDnPHQMRkJiO2GsxSHUnDJAxueg73H/cc9no7DIFiIWDEXCzkS7zfdMTcq1cvSVuJOhmJefr06Q51MtLyNddcI97cqKIffvhhib1FQkbNTWIPHJaQsIkrxqmMUB/qE48ZM0ZCfSBmVNlcf+DAgXLdIDEjMfs276SREMRMDDUYssFJ2vyjPlZGzFERtPa5QMCIORcoJvAaVREzEgfJNlBf9ziuh5t+03RRq2IDRpWNLRSPYQgWNSvOWZAzHsM9e/YUiQ+CxS6K4xLkjVqauGRs14QFQcxVqbKDS5IkgrKUnNk/kJhUuH9HjhyZ/UWspSEQEQEj5ogAJrU5Hr9B5y+kNVTZ2DiRgMmA9c3X37i+/fo6wqsg2JNPPlkSYVx55ZWOBBkQOM5Zxx9/vNiTIWzszkjL5KDme8ia77GrEo9Mm1SZmVBlP/PMM2JnXb16tYQToe4eNWpU2Tl/VXXfGTFn/1RCzJhZ8Ga3wxAoFgJGzMVCvoT7Va9sKin5kivfI+FiQ0b65XeybX300Ueubt264hCGExbJQCBODkJ7cALjdwibzFzEHJM8g3AqJGSuCYlr+BXnow4PxkgjkXM9KlZByvyPZzL5t4tRGKPQS6xe8EbM2SNvxJw9dtYydwgYMecOy8RcCQLAI5hUmtiQNSWln6tGPX+D+Wv834PqZT9+WdN86jmp8l377TmfpBBIx6+++qpIyg0bNhRbK2M877zzKkOFqhpDKS+iEXP01cMXAomZ+8gOQ6BYCBgxFwv5Eu8XiZTMXxAeXtL+kcr5Kl2CuaDUy3WC7dMRqf89am4qPlEIA5LGBk4cNCp0ziOWF/Uk6m6KZuABrn2Vi/3ZiDn6Q2XEHB1Du0J0BIyYo2OY2CtABPyoxJwu/aYSRhAoJVacwVBNB9XTqYCt6lr+3/iM+pv43iDxUoUJuzbfk84S73DU66p+V8IutYU1Yo6+YoT1qcRcLhu26KjYFQqNgBFzoRG3/n6GAJm9sA1jT87locSfSirXv9E3CTqaNG7ipt04TTy/IWps4aVG0EbM0e4e8ENiRttCQRQ7DIFiIWDEXCzkrd9KBPJFzHSQSsL2CdtXh1ON6fzzzxd1OAUvcFojfSje4hxk2cIhjXSYxFSjKYD0yVvNuZRUxNkNtTobjUJLXEbM0R4qI+Zo+Fnr3CFgxJw7LO1KWSKQT2IOOyQlaP4nOcrcuXNFeiLsi1ze2NFJirLPPvs4VOEHH3ywkDRx2eSlJjHFWWedJd7ghJERNkYO60KTM/PFK5ux/P73v0+5MQmLSRLPQ5VtEnMSVz5eczZijtd6JHI0cSBmBT7opEamstmzZ0v1ppo1a0qRCKpqYY8+/PDD3QEHHCDhYRAyRAwpUqAD4ibTWaHyUjNuCIXNwpAhQ6S6FDZ2sn8R+12MDUIp3sw4NIIj2ebsMASKhYARc7GQt34LosqOCrNK0IRcUf2KeOzbb79dcn8PHjxYEqAgNWOXbty4sUjWkOMRRxwh0jZOZYU6kPDZ5JBbnHSoK1ascDfccIPY7o2Yw60CxEzyHBLg2GEIFAsBI+ZiIW/9lgwxYzNGfQ25oabu2rWrSKWkDaUeNelEKa5BZjNIuXPnziJR4xFOYpNCHevWrZOsaJALB4VB2DiQuMWIufpVYBOmxHzVVVdV38DOMATyhIARc56AtcuGRyBOquxUo+aFjXMXWcmIi6YiFtnISP+JyphKWGPHjpVCG1TKosIV9l2kZSXmVB7i4REKfya27qFDh4oUj2SPhB+FlNOFp4UfUWmdCWaoso2YS2vdym20RszltqIlOJ9SIGYSlCB5UmAD7+0zzjhDbM19+vQR1TFZ0MjxTbjVb36ztTvooANFJUqMNuFYEDYHJJmOKHNB3niFk1scNTr9YhfPlJiVjNMldinBWyz0kCFm1k1LlIZuaCcaAjlEwIg5h2DapbJDIO7EzKzw1MaRi2Ia77zzjnhq8zu2ZRzDkKDJyc3/SMmospGyCbEidIq61J9++qm7+OKLRZpNdUD4U6ZMketFOcgZTklMjQvPlpgJ/5o0aVKVm4ko44xjWyPmOK5K8sZkxJy8NY/djEuBmMOCFlT98vt//vMf9/bbb4vnNs5hI0aMEEIfP368EDgHkjbSNR7UeFMX81BJuVatWu7ZZ59NWWKzmOPLZ9/UA0dixjRhhyFQLASMmIuFvPVbiUA5EXNwWX11sKYJff/99+U0QrEuu+wykbTxoqb4Bp7emUq4XMtXP/sFP/y845wX5tq+Sp1KX3h3h2lXDrc0xMw6jBs3rhymY3MoUQSMmEt04cpp2OVMzOnWSUn6888/l8xh2KlfeeUVd/3114ciQSVibMpfffWVlM1EhY3TGfHUHCQZoXAHdnH6QErv3r17RiUwyXDGBiIphxFzUlY63vM0Yo73+iRidEklZl1cSHb+/Pnu6aefFjV32IPUoG+99ZYQOSUuqY+NXZl4a6Rc0opis+Y7CJZ+MqlLzflbbbVVooiZoiaosk1iDnsX2nn5QMCIOR+o2jUzQiCJxBwE6KmnnhJiHjZsWCiJmfbYrrFLIzG3bt1ayJ3iGzimIUm3b99eEqHwt++//14ylHF+JirtpBEz3vWosrH/22EIFAsBI+ZiIW/9ViKQZGJWlXQ2xLxw4UKpgnTppZe6/fbbTxy1lJjJXAUp48RUp04dialGgib22og5/cNnxGwvpjggYMQch1VI+BiSTMy69BDzggUL3PDhw0NJzD/++KNIwSQ9IUSLWtaotbfeemtxJrvjjjvc1KlT3f333+86derkOJ9zyOMd1pEriapsI+aEv4xiMn0j5pgsRJKHYcTsHMSMKhobcxjiVM9pHLPIPEYoFuUqV65cKTbm2rVrS5IRbMzYTEkPSrIR/hY26UhSiXnp0qXuz3/+c5IfSZt7kREwYi7yAlj3TgovkIRDE2IkEZNMJWYwgjjJ402JSqTnY445xk2bNk1yeJMWFDV23759JSQL4sbGfNFFF4lUHUadzfVpg+d4Ug4kZiPmpKx2fOdpxBzftUnMyIyYneRnRrLt0qWLSLRhj2DazGDZynTXqUoq968B2VNvOowUH3bMcT7PiDnOq5OcsRkxJ2etYzdTdXzCU3i77bZLtMSMhzWxyEuWLHHLly+PxVpRuhIVOF7eRsyxWBIbREIQMGJOyELHYZpBaU6JmZzSWsc4OM6kEAJYULYRT+s33ngj0nKRJOPggw+WfNlRDrKRNWvWLJTaO0o/cWprEnOcViO5YzFiTu7aF3zmeAbjnLRq1Sq31157iX0USXnx4sXi+AQxURmJIg6NGzeW3+vXr58YaY0FyUWZxeOOO06yfpEFLOqRi/FEHUMh2xsxFxJt6yutqWl9WKOUYWgIRECA2+yTTz6RlJP//Oc/pU4wxNuvXz+JvZ01a5a755573JAhQ9yjjz4q5N2/f39JksGRFMk5AsSVpJ5LYo4ynlJsa8RciqtWfmM2ibn81jSWM9IqS5RNnD17tnvzzTelalG9evUk7SPl9iZOnOimT58uyTAef/xxkZ6JvTVSDrekKt1CzGeffbY75JBDwjW0syoRMGK2myEOCBgxx2EVEjCGtWvXuuuuu048j6muhPRMtirCcc444wx30003SaYq1K8UXMDujI303nvvNWIOeX8YMYcEqorTjJijY2hXiI6AEXN0DO0K1SAAYWBfJn8zMbF4HWNr3n333cXWjOPXnDlzJKkD1ZAoxoD0TCYrk5jD315GzOGxSnemEXN0DO0K0REwYo6OoV0hBDFzCukjefGRreroo492DzzwgDv88MOFpPEkhrAfe+wxkaDJZkVsL9mrTJUd7hYzYg6HU1VnaUrOa665xu676HDaFbJEwIg5S+CsWWYIICmTt7ljx46V8cpkq8K2vNtuu4k9lCILH374obvzzjvF7jxp0iR35pln2gsyJNRGzCGBCqHKprqUbQij42lXyA4BI+bscLNWWSCgAQD6wtPfv/vuO1ejRg1x+goGCdjLMTzQRszhsTJVdnSs7Ar5Q8CIOX/Y2pUDCKSKieU7zfyFPVnPCZK4gVk9AopZjx49chbHXH2v5XMG+N16662WK7t8lrRkZ2LEXLJLVx4DV2JOehGLbFYzVQoCvhs1apQ79thjJUmLHsFNkWkiUiNuzl/Z3InWJtcIGDHnGlG7XsYIWBGLjCHbiHCJDcfjnTrMn376qfvVr34lP/PmzXO//OUvxVZKNrUjjzxScnFrfLOR889xV2I2G3P296S1jI6AEXN0DO0KEREwYs4ewBUrVkiI2ccffyxlH9955x0JQ/vjH/8oHu+tW7eW3wk/u/jii93DDz8sTnjY842YUxPzq6++6iBmOwyBYiFgxFws5K3fSgSMmLO/GcigNnPmTAk5w8t95513djvttJPr3LmzhKRde+21rnnz5m7y5Mlu6tSpbsSIEY7MYFSNMmI2Ys7+zrOW+UTAiDmf6Nq1QyFgxBwKpp+dpPb5++67z7333ntCzGRLw8P9pJNOkhhwJOdzzz3X3XjjjW706NGSfQ37M6puO4yY7R6IJwJGzPFcl0SNyog5u+WGmJGUn3nmGff888+L5Iw6m7SmlGzs0KGDEPRXX30l9mfSobZs2VJszDVr1syu0zJvpQlGTJVd5gsd8+kZMcd8gZIwPCPm7FZZiRlC3myzzSS9KcU/9t13XyHosWPHStIW7M5IzFdccYUkbRk3bpyosU2VnVpiXrp0qaSHtcMQKBYCRszFQt76rUTAiDm7mwFipqb1v//9b8k3jn2Z/OJkWYOk8dTedtttJTb8hRdecPvvv7974403XJMmTdymm25qxJwCdguXyu5etFa5RcCIObd42tUyRADSoD7zdtttV5mqM8NLJPZ0sEuVTY2QqPr161fiGUzawu/YoU1iNok5sQ9PzCduxBzzBSr34QUzf5X7fAsxvz59+kghkAMPPLAQ3ZVVHyYxl9VyluxkjJhLdunKY+AQM45LderUkTAfO7JHwM+VfdZZZ4kTmB3hEbCUnOGxsjPzi4ARc37xtatXgwAvQ6pJNW3a1DVs2NDwioCAFbGIAJ5zYhawXNnRMLTWuUHAiDk3ONpVskSAlyHSHV7EpIw0u2eWQG4gFvAjgcjZZ59dmXoz+ysmo6Vvg7/rrrvEQQ4PdjsMgWIhYMRcLOSt30oEZs2aJV7FBx98sNt8880NmSwRMIk5S+A2bGp++OEHiQknvWn37t1tk5g9nNYyIgJGzBEBtObREYBQkFBIgoHUXKtWregXTeAVjJizX3SwI+84oXtsEH/9619nfzFraQhERMCIOSKA1jwaAhruQ8ztzTff7KjJTGYqYnJNrZ0ZtlaPOTO89Gxwo/rWvffeK/HdeLTbvZcdltYqNwgYMecGR7tKBASUUL799lt31VVXubZt20pyjA8//FAcwpCkKV/oH/bi3BhwvzZzjx49xG6P5GcZvn5+Y/pYfffdd+7ll1+WxCzcc3379pUGdn9FeKCtaWQEjJgjQ2gXyAUC+rLUbFYUZiCVJLmda9euLXmev/jiC9esWTMhalSN9vL8CXnFDYmvd+/eQswtWrSQVJ2WTKQCJzCCiCnr+Morr7h169bJJvD999+X73FANFLOxdNs14iKgBFzVAStfc4QSJXFiopJVE4i1hli3nPPPUXdSHYr/nbQQQe5/fbbr9IurXbWpJE286bW8oIFC9zs2bMFkx133NFddtllbquttir7TYwvBesNiQYGm/HixYvd//3f/0kOcTZ2H330kXv99deFmI866iipV22EnLPH2C6UAwSMmHMAol0ifwj4ZM3n//73v5IbGgkaL9rddtvNrV271s2ZM0cIu3379pWJNSBn/4VdzmTNPCm+cP7557unnnpKFoTay/xOicdymnsqEv7xxx+FhJ944gn37rvvur333ls2bdSdRk0NCderV082dmxU0CL4Rznhk7+n0a5cKASMmAuFtPWTcwR4QUPOq1atcm+++aYQM0S9fPlyhyqc0KuuXbsKUQel8XKTkHR+5513nvvrX/8q2oSXXnpJ1P6lSDqq+VAVdPD3ZcuWuXnz5rmFCxdKwY6jjz7a1a1bV0iZjRq516lNvc022wgJ++1zfiPaBQ2BHCNgxJxjQO1yhUfAl6D4/MEHH4jdEKLecsst3YsvvugeeugheUlTnxg1L7ZXn7Di8OJOtXkIiyZt+YGYKPV47LHHutNPP102J5kSs2KR7v+wY6ruvKA2RDUcvqYDSRhTBup51PQQLnWmUUlj2vjkk09EAsYPgUpaOlf/WtWNw/5uCMQNASPmuK2IjScyAj7JIjkSCsMPRI2Tz6OPPuoeeOABsS0SGtO8efNKBym/baaEFmXg9AsJkXUKSTfKMWXKFNemTRu3xx57bKTKz/SaeHf73vC5xCO4mdKxrVmzxt1zzz2yRpgtGAPhcySgoZwlqmk2WJAx62mHIVCOCBgxl+Oq2pw2QsAnAYj6q6++ct9884285FF7Ej89Y8YMd/jhh7uBAwcKUetRKMkLlTxqWRyTcEjK9mCuOrdf/OIXG10mLLGq9E3eaEwBOJFp20w1C0Gp2B8Q0i4Oa+RKRyrGm5z+KGjCHGiLxM/mgLlkO4ZssbR2hkCxEDBiLhby1m8sEEBKhawhRmyRkMXo0aNF9U0ozTnnnCNq0+ARluTCTvLvf/+74+eCCy6QDYMevjqZ71L1GzzHbxts45Mbf9O2wevyPbhQ1xlnO//cdOPQc1LNGY0FDnpsgPAHQKI/88wzXePGjSttwMzbJ+Cw2Nl5hkC5IWDEXG4ravPJCIFUHr7+BYh3vfrqq0WaxbY5ZMgQkSAhdEgEMsmF9zee1NhQhw8fLt0HCZTvUMPTn0/EqHv1d8aj57DJuP/++0X6RuXLjxI+mxDaPffccxJGxDn8jXOCdndUxmgV6INz+YGsNTZaVfCQOD98zziYzw033CCbjf33398NGDCgsp90mOd6s5PRjWAnGwIxQsCIOUaLYUOJHwJBWyhkhtczsbE4WaH6JmMUREfSE1Sv2ST0gMiefvppN2zYsI3IEbLD7soxfvx4sbkyJs0nPmbMGMmQht0VKfSWW25xF198sXxu1aqVSP4TJ06U5BkHHHCAqIWJAe/fv7985lr/+c9/3CWXXOK6dOmSkpiRdnGg4xxSpjJ/YoSZJ050eEhTlWnu3Lli16YARK9evTZyxKpKyo7fqtuIDIHiImDEXFz8rfcSQKAqqZrY4enTp0sMcZ8+fUQqxD4K2UFiv/nNbzaSclXdyzXffvttcUDj8/z58yslZl9axsMcZy4qHpFkBbUyRI0K+LHHHhOSZbMwadIk6QtVPOTMGAidmjx5snipI7F+/fXXEtNMv9iPcahSVX67du1Esg1KzGw2qP7VuXNn+Rtx4mQUe/zxx8UBq2PHjqJJYK7VHSYRV4eQ/d0QqEDAiNnuBEMgIgJK3Ei3xFBDeqtXr5aQJQgUIuUcnJp22GEHURkjYZNudNq0aUJ0qsomKYhPzEihqI6RipHGn3zySfFapi82BNRdRvLt1KmTSMgzZ84UiRUSPvXUUyXWF+LGsQqyhphxfoPAUXvzmXEh+SKF++psSJvvSdTBhoAQNKp/0S/qfD2McCPeQNbcEAggYMRst4QhEBGBdBI136MCvuOOO0QyRbIk+xQ5wCFFsnJBsHiF83dU2diYfWLmPOzcSMQQMIk0IFKkc6TWZ599VsgWVTbEWbNmTVFZo76+9tpr5e+onYndJtwIgiXeF7uxhmUh3aOCRmKGnP3+kYrZFDz44IPygwTdrVs38WAPZs+KCKM1NwQMgQ0IGDHbrWAI5BGBoI0a2zQhQkjMixYtkp8GDRqIfRfpdOTIkRsRI5IvZIskizSMBNyvXz+JvybWl1KFEDcOXSTc4Dw8uwn5atq0qRA4FZO4NkROfzhnUbUL72g2CmRJQ8o+8cQTU9qYIXQ92CiwmdAx5RE6u7QhkFgEjJgTu/Q28UIiECTo66+/3g0ePFgkVVTZSMxIwqNGjfoZOWpbiBXJd+XKlWKPJpRLbdVI5kjGSLukIN1ll13chAkTRI2OepwDIicTGrZqQsCQnFGTQ/b8z7VTeWVDzMHvxQ62ySaFhND6MgQSg4ARc2KW2iYaBwSUZAklQhomzzMqZByyIEzINhUJ6tj9BB/BkKpg2FZwvn6yD/9vVV2TjQN2cyPhONw9NoakIGDEnJSVtnnGDgE/HhnJFhsu0imSa7qjqsxbqWKf0xFwmO9RcRN2hRObEXPsbh8bUBkjYMRcxotrUysdBCDcFStWiJqaggxxOCitSTiUOXnFYTVsDElCwIg5SattczUEDAFDwBCIPQJGzLFfIhugIWAIGAKGQJIQMGJO0mrbXA0BQ8AQMARij4ARc+yXyAZoCBgChoAhkCQE/h/nt6Q3zP0nYwAAAABJRU5ErkJggg==;" vertex="1" parent="1">
          <mxGeometry x="50" y="310" width="486" height="520" as="geometry" />
        </mxCell>
        <mxCell id="sO7TEEYjLhYjtugjPbnS-1" value="«interface»&lt;br&gt;&lt;b&gt;原始数据&lt;/b&gt;" style="html=1;" parent="1" vertex="1">
          <mxGeometry x="170" y="20" width="110" height="50" as="geometry" />
        </mxCell>
        <mxCell id="sO7TEEYjLhYjtugjPbnS-2" value="代码" style="swimlane;fontStyle=1;align=center;verticalAlign=top;childLayout=stackLayout;horizontal=1;startSize=26;horizontalStack=0;resizeParent=1;resizeParentMax=0;resizeLast=0;collapsible=1;marginBottom=0;" parent="1" vertex="1">
          <mxGeometry x="-110" y="100" width="160" height="34" as="geometry" />
        </mxCell>
        <mxCell id="sO7TEEYjLhYjtugjPbnS-4" value="" style="line;strokeWidth=1;fillColor=none;align=left;verticalAlign=middle;spacingTop=-1;spacingLeft=3;spacingRight=3;rotatable=0;labelPosition=right;points=[];portConstraint=eastwest;" parent="sO7TEEYjLhYjtugjPbnS-2" vertex="1">
          <mxGeometry y="26" width="160" height="8" as="geometry" />
        </mxCell>
        <mxCell id="sO7TEEYjLhYjtugjPbnS-6" value="Trace日志" style="swimlane;fontStyle=1;align=center;verticalAlign=top;childLayout=stackLayout;horizontal=1;startSize=26;horizontalStack=0;resizeParent=1;resizeParentMax=0;resizeLast=0;collapsible=1;marginBottom=0;" parent="1" vertex="1">
          <mxGeometry x="400" y="100" width="160" height="34" as="geometry" />
        </mxCell>
        <mxCell id="sO7TEEYjLhYjtugjPbnS-8" value="" style="line;strokeWidth=1;fillColor=none;align=left;verticalAlign=middle;spacingTop=-1;spacingLeft=3;spacingRight=3;rotatable=0;labelPosition=right;points=[];portConstraint=eastwest;" parent="sO7TEEYjLhYjtugjPbnS-6" vertex="1">
          <mxGeometry y="26" width="160" height="8" as="geometry" />
        </mxCell>
        <mxCell id="sO7TEEYjLhYjtugjPbnS-15" value="进程内采集" style="swimlane;fontStyle=1;align=center;verticalAlign=top;childLayout=stackLayout;horizontal=1;startSize=26;horizontalStack=0;resizeParent=1;resizeParentMax=0;resizeLast=0;collapsible=1;marginBottom=0;" parent="1" vertex="1">
          <mxGeometry x="230" y="100" width="160" height="34" as="geometry" />
        </mxCell>
        <mxCell id="sO7TEEYjLhYjtugjPbnS-17" value="" style="line;strokeWidth=1;fillColor=none;align=left;verticalAlign=middle;spacingTop=-1;spacingLeft=3;spacingRight=3;rotatable=0;labelPosition=right;points=[];portConstraint=eastwest;" parent="sO7TEEYjLhYjtugjPbnS-15" vertex="1">
          <mxGeometry y="26" width="160" height="8" as="geometry" />
        </mxCell>
        <mxCell id="sO7TEEYjLhYjtugjPbnS-19" value="部署结构" style="swimlane;fontStyle=1;align=center;verticalAlign=top;childLayout=stackLayout;horizontal=1;startSize=26;horizontalStack=0;resizeParent=1;resizeParentMax=0;resizeLast=0;collapsible=1;marginBottom=0;" parent="1" vertex="1">
          <mxGeometry x="60" y="100" width="160" height="34" as="geometry" />
        </mxCell>
        <mxCell id="sO7TEEYjLhYjtugjPbnS-21" value="" style="line;strokeWidth=1;fillColor=none;align=left;verticalAlign=middle;spacingTop=-1;spacingLeft=3;spacingRight=3;rotatable=0;labelPosition=right;points=[];portConstraint=eastwest;" parent="sO7TEEYjLhYjtugjPbnS-19" vertex="1">
          <mxGeometry y="26" width="160" height="8" as="geometry" />
        </mxCell>
        <mxCell id="sO7TEEYjLhYjtugjPbnS-27" value="" style="endArrow=block;dashed=1;endFill=0;endSize=12;html=1;exitX=0.5;exitY=1;exitDx=0;exitDy=0;entryX=0.5;entryY=0;entryDx=0;entryDy=0;edgeStyle=orthogonalEdgeStyle;" parent="1" source="sO7TEEYjLhYjtugjPbnS-1" target="sO7TEEYjLhYjtugjPbnS-2" edge="1">
          <mxGeometry width="160" relative="1" as="geometry">
            <mxPoint x="330" y="380" as="sourcePoint" />
            <mxPoint x="490" y="380" as="targetPoint" />
          </mxGeometry>
        </mxCell>
        <mxCell id="sO7TEEYjLhYjtugjPbnS-28" value="" style="endArrow=block;dashed=1;endFill=0;endSize=12;html=1;entryX=0.5;entryY=0;entryDx=0;entryDy=0;exitX=0.5;exitY=1;exitDx=0;exitDy=0;edgeStyle=orthogonalEdgeStyle;" parent="1" source="sO7TEEYjLhYjtugjPbnS-1" target="sO7TEEYjLhYjtugjPbnS-19" edge="1">
          <mxGeometry width="160" relative="1" as="geometry">
            <mxPoint x="210" y="140" as="sourcePoint" />
            <mxPoint x="20" y="110" as="targetPoint" />
          </mxGeometry>
        </mxCell>
        <mxCell id="sO7TEEYjLhYjtugjPbnS-29" value="" style="endArrow=block;dashed=1;endFill=0;endSize=12;html=1;exitX=0.5;exitY=1;exitDx=0;exitDy=0;entryX=0.5;entryY=0;entryDx=0;entryDy=0;edgeStyle=orthogonalEdgeStyle;" parent="1" source="sO7TEEYjLhYjtugjPbnS-1" target="sO7TEEYjLhYjtugjPbnS-15" edge="1">
          <mxGeometry width="160" relative="1" as="geometry">
            <mxPoint x="245" y="90" as="sourcePoint" />
            <mxPoint x="30" y="120" as="targetPoint" />
          </mxGeometry>
        </mxCell>
        <mxCell id="sO7TEEYjLhYjtugjPbnS-30" value="" style="endArrow=block;dashed=1;endFill=0;endSize=12;html=1;exitX=0.5;exitY=1;exitDx=0;exitDy=0;entryX=0.5;entryY=0;entryDx=0;entryDy=0;edgeStyle=orthogonalEdgeStyle;" parent="1" source="sO7TEEYjLhYjtugjPbnS-1" target="sO7TEEYjLhYjtugjPbnS-6" edge="1">
          <mxGeometry width="160" relative="1" as="geometry">
            <mxPoint x="255" y="100" as="sourcePoint" />
            <mxPoint x="40" y="130" as="targetPoint" />
          </mxGeometry>
        </mxCell>
        <mxCell id="sO7TEEYjLhYjtugjPbnS-37" value="return" style="html=1;verticalAlign=bottom;endArrow=open;dashed=1;endSize=8;exitX=1;exitY=0.5;exitDx=0;exitDy=0;entryX=0.5;entryY=0;entryDx=0;entryDy=0;" parent="1" target="tFFEeebUZQ1XKsACCaUz-1" edge="1">
          <mxGeometry relative="1" as="geometry">
            <mxPoint x="220" y="147" as="sourcePoint" />
            <mxPoint x="245" y="294" as="targetPoint" />
          </mxGeometry>
        </mxCell>
        <mxCell id="sO7TEEYjLhYjtugjPbnS-38" value="return" style="html=1;verticalAlign=bottom;endArrow=open;dashed=1;endSize=8;exitX=0;exitY=0.5;exitDx=0;exitDy=0;entryX=0.5;entryY=0;entryDx=0;entryDy=0;" parent="1" target="tFFEeebUZQ1XKsACCaUz-1" edge="1">
          <mxGeometry relative="1" as="geometry">
            <mxPoint x="230" y="147" as="sourcePoint" />
            <mxPoint x="245" y="294" as="targetPoint" />
          </mxGeometry>
        </mxCell>
        <mxCell id="sO7TEEYjLhYjtugjPbnS-39" value="return" style="html=1;verticalAlign=bottom;endArrow=open;dashed=1;endSize=8;exitX=0;exitY=0.5;exitDx=0;exitDy=0;entryX=0;entryY=0;entryDx=0;entryDy=0;" parent="1" target="tFFEeebUZQ1XKsACCaUz-1" edge="1">
          <mxGeometry relative="1" as="geometry">
            <mxPoint x="-110" y="147" as="sourcePoint" />
            <mxPoint x="-110" y="294" as="targetPoint" />
          </mxGeometry>
        </mxCell>
        <mxCell id="sO7TEEYjLhYjtugjPbnS-40" value="return" style="html=1;verticalAlign=bottom;endArrow=open;dashed=1;endSize=8;exitX=1;exitY=0.5;exitDx=0;exitDy=0;entryX=1;entryY=0;entryDx=0;entryDy=0;" parent="1" target="tFFEeebUZQ1XKsACCaUz-1" edge="1">
          <mxGeometry relative="1" as="geometry">
            <mxPoint x="560" y="147" as="sourcePoint" />
            <mxPoint x="560" y="294" as="targetPoint" />
          </mxGeometry>
        </mxCell>
        <mxCell id="sO7TEEYjLhYjtugjPbnS-41" value="变更场景" style="swimlane;fontStyle=1;align=center;verticalAlign=top;childLayout=stackLayout;horizontal=1;startSize=26;horizontalStack=0;resizeParent=1;resizeParentMax=0;resizeLast=0;collapsible=1;marginBottom=0;" parent="1" vertex="1">
          <mxGeometry x="667" y="310" width="160" height="78" as="geometry" />
        </mxCell>
        <mxCell id="sO7TEEYjLhYjtugjPbnS-42" value="+ field: serviceKey&#xa;+ field: 变更影响面分析策略" style="text;strokeColor=none;fillColor=none;align=left;verticalAlign=top;spacingLeft=4;spacingRight=4;overflow=hidden;rotatable=0;points=[[0,0.5],[1,0.5]];portConstraint=eastwest;" parent="sO7TEEYjLhYjtugjPbnS-41" vertex="1">
          <mxGeometry y="26" width="160" height="44" as="geometry" />
        </mxCell>
        <mxCell id="sO7TEEYjLhYjtugjPbnS-43" value="" style="line;strokeWidth=1;fillColor=none;align=left;verticalAlign=middle;spacingTop=-1;spacingLeft=3;spacingRight=3;rotatable=0;labelPosition=right;points=[];portConstraint=eastwest;" parent="sO7TEEYjLhYjtugjPbnS-41" vertex="1">
          <mxGeometry y="70" width="160" height="8" as="geometry" />
        </mxCell>
        <mxCell id="sO7TEEYjLhYjtugjPbnS-51" style="edgeStyle=orthogonalEdgeStyle;rounded=0;orthogonalLoop=1;jettySize=auto;html=1;exitX=0.5;exitY=1;exitDx=0;exitDy=0;entryX=0.5;entryY=0;entryDx=0;entryDy=0;" parent="1" source="sO7TEEYjLhYjtugjPbnS-45" target="sO7TEEYjLhYjtugjPbnS-49" edge="1">
          <mxGeometry relative="1" as="geometry" />
        </mxCell>
        <mxCell id="sO7TEEYjLhYjtugjPbnS-45" value="变更参数" style="html=1;" parent="1" vertex="1">
          <mxGeometry x="1055" y="360" width="110" height="50" as="geometry" />
        </mxCell>
        <mxCell id="tFFEeebUZQ1XKsACCaUz-7" style="edgeStyle=none;rounded=0;orthogonalLoop=1;jettySize=auto;html=1;exitX=0;exitY=0.5;exitDx=0;exitDy=0;entryX=1;entryY=0.5;entryDx=0;entryDy=0;" edge="1" parent="1" source="sO7TEEYjLhYjtugjPbnS-49" target="tFFEeebUZQ1XKsACCaUz-1">
          <mxGeometry relative="1" as="geometry" />
        </mxCell>
        <mxCell id="sO7TEEYjLhYjtugjPbnS-49" value="变更起点" style="html=1;" parent="1" vertex="1">
          <mxGeometry x="1055" y="550" width="110" height="50" as="geometry" />
        </mxCell>
        <mxCell id="sO7TEEYjLhYjtugjPbnS-92" value="&lt;p style=&quot;margin: 0px ; margin-top: 4px ; text-align: center ; text-decoration: underline&quot;&gt;&lt;b&gt;Object:变更影响面&lt;/b&gt;&lt;/p&gt;&lt;hr&gt;&lt;p style=&quot;margin: 0px ; margin-left: 8px&quot;&gt;+ 监控实体&lt;/p&gt;&lt;p style=&quot;margin: 0px ; margin-left: 8px&quot;&gt;+ 业务实体&lt;/p&gt;&lt;p style=&quot;margin: 0px ; margin-left: 8px&quot;&gt;+ 部署实体&lt;/p&gt;&lt;p style=&quot;margin: 0px ; margin-left: 8px&quot;&gt;&lt;br&gt;&lt;/p&gt;&lt;p style=&quot;margin: 0px ; margin-left: 8px&quot;&gt;- 依赖关系&lt;/p&gt;&lt;p style=&quot;margin: 0px ; margin-left: 8px&quot;&gt;- 部署关系&lt;/p&gt;&lt;p style=&quot;margin: 0px ; margin-left: 8px&quot;&gt;。。。&lt;/p&gt;" style="verticalAlign=top;align=left;overflow=fill;fontSize=12;fontFamily=Helvetica;html=1;" parent="1" vertex="1">
          <mxGeometry x="1330" y="650" width="160" height="140" as="geometry" />
        </mxCell>
        <mxCell id="sO7TEEYjLhYjtugjPbnS-100" value="清洗/拉取规则" style="swimlane;fontStyle=1;align=center;verticalAlign=top;childLayout=stackLayout;horizontal=1;startSize=26;horizontalStack=0;resizeParent=1;resizeParentMax=0;resizeLast=0;collapsible=1;marginBottom=0;" parent="1" vertex="1">
          <mxGeometry x="667" y="180" width="160" height="104" as="geometry" />
        </mxCell>
        <mxCell id="sO7TEEYjLhYjtugjPbnS-101" value="+ field: 数据源&#xa;+ field: 清洗频率&#xa;+ field: 数据组装策略" style="text;strokeColor=none;fillColor=none;align=left;verticalAlign=top;spacingLeft=4;spacingRight=4;overflow=hidden;rotatable=0;points=[[0,0.5],[1,0.5]];portConstraint=eastwest;" parent="sO7TEEYjLhYjtugjPbnS-100" vertex="1">
          <mxGeometry y="26" width="160" height="44" as="geometry" />
        </mxCell>
        <mxCell id="sO7TEEYjLhYjtugjPbnS-102" value="" style="line;strokeWidth=1;fillColor=none;align=left;verticalAlign=middle;spacingTop=-1;spacingLeft=3;spacingRight=3;rotatable=0;labelPosition=right;points=[];portConstraint=eastwest;" parent="sO7TEEYjLhYjtugjPbnS-100" vertex="1">
          <mxGeometry y="70" width="160" height="8" as="geometry" />
        </mxCell>
        <mxCell id="sO7TEEYjLhYjtugjPbnS-103" value="+ method(type): 拉取" style="text;strokeColor=none;fillColor=none;align=left;verticalAlign=top;spacingLeft=4;spacingRight=4;overflow=hidden;rotatable=0;points=[[0,0.5],[1,0.5]];portConstraint=eastwest;" parent="sO7TEEYjLhYjtugjPbnS-100" vertex="1">
          <mxGeometry y="78" width="160" height="26" as="geometry" />
        </mxCell>
        <mxCell id="tFFEeebUZQ1XKsACCaUz-49" style="edgeStyle=none;rounded=0;orthogonalLoop=1;jettySize=auto;html=1;exitX=1;exitY=0.5;exitDx=0;exitDy=0;entryX=0;entryY=0.5;entryDx=0;entryDy=0;" edge="1" parent="1" source="tFFEeebUZQ1XKsACCaUz-3" target="tFFEeebUZQ1XKsACCaUz-50">
          <mxGeometry relative="1" as="geometry">
            <mxPoint x="1680" y="720" as="targetPoint" />
          </mxGeometry>
        </mxCell>
        <mxCell id="tFFEeebUZQ1XKsACCaUz-3" value="&lt;p style=&quot;margin: 0px ; margin-top: 4px ; text-align: center ; text-decoration: underline&quot;&gt;&lt;b&gt;Object:防御规则&lt;/b&gt;&lt;/p&gt;&lt;hr&gt;&lt;p style=&quot;margin: 0px ; margin-left: 8px&quot;&gt;field1 = 监控点&lt;br&gt;field2 = 决策算法&lt;br&gt;field3 = 决策动作&lt;/p&gt;" style="verticalAlign=top;align=left;overflow=fill;fontSize=12;fontFamily=Helvetica;html=1;" vertex="1" parent="1">
          <mxGeometry x="1490" y="650" width="150" height="140" as="geometry" />
        </mxCell>
        <mxCell id="tFFEeebUZQ1XKsACCaUz-5" value="&lt;meta charset=&quot;utf-8&quot;&gt;&lt;span style=&quot;color: rgb(0, 0, 0); font-family: helvetica; font-size: 12px; font-style: normal; font-weight: 400; letter-spacing: normal; text-align: center; text-indent: 0px; text-transform: none; word-spacing: 0px; background-color: rgb(248, 249, 250); display: inline; float: none;&quot;&gt;元数据拓扑&lt;/span&gt;" style="text;whiteSpace=wrap;html=1;" vertex="1" parent="1">
          <mxGeometry x="-80" y="300" width="90" height="30" as="geometry" />
        </mxCell>
        <mxCell id="tFFEeebUZQ1XKsACCaUz-8" value="return" style="html=1;verticalAlign=bottom;endArrow=open;dashed=1;endSize=8;exitX=1;exitY=0.75;exitDx=0;exitDy=0;entryX=0;entryY=0.5;entryDx=0;entryDy=0;" edge="1" parent="1" source="tFFEeebUZQ1XKsACCaUz-1" target="sO7TEEYjLhYjtugjPbnS-92">
          <mxGeometry relative="1" as="geometry">
            <mxPoint x="570" y="183" as="sourcePoint" />
            <mxPoint x="570" y="300" as="targetPoint" />
          </mxGeometry>
        </mxCell>
        <mxCell id="tFFEeebUZQ1XKsACCaUz-11" style="edgeStyle=none;rounded=0;orthogonalLoop=1;jettySize=auto;html=1;exitX=0;exitY=0.5;exitDx=0;exitDy=0;" edge="1" parent="1" source="sO7TEEYjLhYjtugjPbnS-101">
          <mxGeometry relative="1" as="geometry">
            <mxPoint x="-110" y="229" as="targetPoint" />
          </mxGeometry>
        </mxCell>
        <mxCell id="tFFEeebUZQ1XKsACCaUz-12" value="变更起点分析策略" style="swimlane;fontStyle=1;align=center;verticalAlign=top;childLayout=stackLayout;horizontal=1;startSize=26;horizontalStack=0;resizeParent=1;resizeParentMax=0;resizeLast=0;collapsible=1;marginBottom=0;" vertex="1" parent="1">
          <mxGeometry x="940" y="430" width="160" height="112" as="geometry" />
        </mxCell>
        <mxCell id="tFFEeebUZQ1XKsACCaUz-13" value="+ field: 变更参数模型" style="text;strokeColor=none;fillColor=none;align=left;verticalAlign=top;spacingLeft=4;spacingRight=4;overflow=hidden;rotatable=0;points=[[0,0.5],[1,0.5]];portConstraint=eastwest;" vertex="1" parent="tFFEeebUZQ1XKsACCaUz-12">
          <mxGeometry y="26" width="160" height="26" as="geometry" />
        </mxCell>
        <mxCell id="tFFEeebUZQ1XKsACCaUz-51" value="+ field: 变更起点类型" style="text;strokeColor=none;fillColor=none;align=left;verticalAlign=top;spacingLeft=4;spacingRight=4;overflow=hidden;rotatable=0;points=[[0,0.5],[1,0.5]];portConstraint=eastwest;" vertex="1" parent="tFFEeebUZQ1XKsACCaUz-12">
          <mxGeometry y="52" width="160" height="26" as="geometry" />
        </mxCell>
        <mxCell id="tFFEeebUZQ1XKsACCaUz-14" value="" style="line;strokeWidth=1;fillColor=none;align=left;verticalAlign=middle;spacingTop=-1;spacingLeft=3;spacingRight=3;rotatable=0;labelPosition=right;points=[];portConstraint=eastwest;" vertex="1" parent="tFFEeebUZQ1XKsACCaUz-12">
          <mxGeometry y="78" width="160" height="8" as="geometry" />
        </mxCell>
        <mxCell id="tFFEeebUZQ1XKsACCaUz-15" value="+ method(type): 解析规则" style="text;strokeColor=none;fillColor=none;align=left;verticalAlign=top;spacingLeft=4;spacingRight=4;overflow=hidden;rotatable=0;points=[[0,0.5],[1,0.5]];portConstraint=eastwest;" vertex="1" parent="tFFEeebUZQ1XKsACCaUz-12">
          <mxGeometry y="86" width="160" height="26" as="geometry" />
        </mxCell>
        <mxCell id="tFFEeebUZQ1XKsACCaUz-16" value="变更影响面分析策略" style="swimlane;fontStyle=0;childLayout=stackLayout;horizontal=1;startSize=26;fillColor=none;horizontalStack=0;resizeParent=1;resizeParentMax=0;resizeLast=0;collapsible=1;marginBottom=0;" vertex="1" parent="1">
          <mxGeometry x="677" y="460" width="140" height="106" as="geometry" />
        </mxCell>
        <mxCell id="tFFEeebUZQ1XKsACCaUz-18" value="+ field: 限定条件" style="text;strokeColor=none;fillColor=none;align=left;verticalAlign=top;spacingLeft=4;spacingRight=4;overflow=hidden;rotatable=0;points=[[0,0.5],[1,0.5]];portConstraint=eastwest;" vertex="1" parent="tFFEeebUZQ1XKsACCaUz-16">
          <mxGeometry y="26" width="140" height="26" as="geometry" />
        </mxCell>
        <mxCell id="tFFEeebUZQ1XKsACCaUz-19" value="+ field: 终止条件" style="text;strokeColor=none;fillColor=none;align=left;verticalAlign=top;spacingLeft=4;spacingRight=4;overflow=hidden;rotatable=0;points=[[0,0.5],[1,0.5]];portConstraint=eastwest;" vertex="1" parent="tFFEeebUZQ1XKsACCaUz-16">
          <mxGeometry y="52" width="140" height="28" as="geometry" />
        </mxCell>
        <mxCell id="tFFEeebUZQ1XKsACCaUz-41" value="+ field: 属性&amp;权重策略" style="text;strokeColor=none;fillColor=none;align=left;verticalAlign=top;spacingLeft=4;spacingRight=4;overflow=hidden;rotatable=0;points=[[0,0.5],[1,0.5]];portConstraint=eastwest;" vertex="1" parent="tFFEeebUZQ1XKsACCaUz-16">
          <mxGeometry y="80" width="140" height="26" as="geometry" />
        </mxCell>
        <mxCell id="tFFEeebUZQ1XKsACCaUz-29" value="。。。" style="text;html=1;align=center;verticalAlign=middle;resizable=0;points=[];autosize=1;" vertex="1" parent="1">
          <mxGeometry x="600" y="107" width="50" height="20" as="geometry" />
        </mxCell>
        <mxCell id="tFFEeebUZQ1XKsACCaUz-31" value="实体" style="rounded=1;whiteSpace=wrap;html=1;" vertex="1" parent="1">
          <mxGeometry x="-90" y="556" width="50" height="20" as="geometry" />
        </mxCell>
        <mxCell id="tFFEeebUZQ1XKsACCaUz-32" style="edgeStyle=orthogonalEdgeStyle;rounded=0;orthogonalLoop=1;jettySize=auto;html=1;exitX=1;exitY=0.5;exitDx=0;exitDy=0;entryX=0.5;entryY=0;entryDx=0;entryDy=0;curved=1;" edge="1" parent="1" source="tFFEeebUZQ1XKsACCaUz-31" target="tFFEeebUZQ1XKsACCaUz-31">
          <mxGeometry relative="1" as="geometry">
            <Array as="points">
              <mxPoint x="-20" y="566" />
              <mxPoint x="-20" y="536" />
              <mxPoint x="-65" y="536" />
            </Array>
          </mxGeometry>
        </mxCell>
        <mxCell id="tFFEeebUZQ1XKsACCaUz-33" value="拓扑" style="text;html=1;align=center;verticalAlign=middle;resizable=0;points=[];autosize=1;" vertex="1" parent="1">
          <mxGeometry x="-70" y="516" width="40" height="20" as="geometry" />
        </mxCell>
        <mxCell id="tFFEeebUZQ1XKsACCaUz-35" value="" style="endArrow=diamondThin;endFill=0;endSize=24;html=1;exitX=1;exitY=0.5;exitDx=0;exitDy=0;entryX=0;entryY=0;entryDx=0;entryDy=0;" edge="1" parent="1" source="sO7TEEYjLhYjtugjPbnS-42" target="tFFEeebUZQ1XKsACCaUz-12">
          <mxGeometry width="160" relative="1" as="geometry">
            <mxPoint x="900" y="270" as="sourcePoint" />
            <mxPoint x="1060" y="270" as="targetPoint" />
          </mxGeometry>
        </mxCell>
        <mxCell id="tFFEeebUZQ1XKsACCaUz-36" value="" style="endArrow=diamondThin;endFill=0;endSize=24;html=1;exitX=0.5;exitY=1;exitDx=0;exitDy=0;entryX=0.5;entryY=0;entryDx=0;entryDy=0;" edge="1" parent="1" source="sO7TEEYjLhYjtugjPbnS-41" target="tFFEeebUZQ1XKsACCaUz-16">
          <mxGeometry width="160" relative="1" as="geometry">
            <mxPoint x="837" y="368" as="sourcePoint" />
            <mxPoint x="950" y="440" as="targetPoint" />
          </mxGeometry>
        </mxCell>
        <mxCell id="tFFEeebUZQ1XKsACCaUz-37" value="通过变更起点分析策略，&lt;br&gt;将变更参数解析为拓扑中的变更起点" style="text;html=1;align=left;verticalAlign=middle;resizable=0;points=[];autosize=1;" vertex="1" parent="1">
          <mxGeometry x="1110" y="470" width="210" height="30" as="geometry" />
        </mxCell>
        <mxCell id="tFFEeebUZQ1XKsACCaUz-39" value="通过当前变更场景的变更影响面分析策略，在元数据拓扑上进行数据串联" style="text;html=1;align=center;verticalAlign=middle;resizable=0;points=[];autosize=1;" vertex="1" parent="1">
          <mxGeometry x="590" y="580" width="400" height="20" as="geometry" />
        </mxCell>
        <mxCell id="tFFEeebUZQ1XKsACCaUz-42" value="业务平台SPI" style="swimlane;fontStyle=1;align=center;verticalAlign=top;childLayout=stackLayout;horizontal=1;startSize=26;horizontalStack=0;resizeParent=1;resizeParentMax=0;resizeLast=0;collapsible=1;marginBottom=0;" vertex="1" parent="1">
          <mxGeometry x="1330" y="310" width="160" height="86" as="geometry" />
        </mxCell>
        <mxCell id="tFFEeebUZQ1XKsACCaUz-43" value="+ field: 适用场景" style="text;strokeColor=none;fillColor=none;align=left;verticalAlign=top;spacingLeft=4;spacingRight=4;overflow=hidden;rotatable=0;points=[[0,0.5],[1,0.5]];portConstraint=eastwest;" vertex="1" parent="tFFEeebUZQ1XKsACCaUz-42">
          <mxGeometry y="26" width="160" height="26" as="geometry" />
        </mxCell>
        <mxCell id="tFFEeebUZQ1XKsACCaUz-44" value="" style="line;strokeWidth=1;fillColor=none;align=left;verticalAlign=middle;spacingTop=-1;spacingLeft=3;spacingRight=3;rotatable=0;labelPosition=right;points=[];portConstraint=eastwest;" vertex="1" parent="tFFEeebUZQ1XKsACCaUz-42">
          <mxGeometry y="52" width="160" height="8" as="geometry" />
        </mxCell>
        <mxCell id="tFFEeebUZQ1XKsACCaUz-45" value="+ method(type): 函数" style="text;strokeColor=none;fillColor=none;align=left;verticalAlign=top;spacingLeft=4;spacingRight=4;overflow=hidden;rotatable=0;points=[[0,0.5],[1,0.5]];portConstraint=eastwest;" vertex="1" parent="tFFEeebUZQ1XKsACCaUz-42">
          <mxGeometry y="60" width="160" height="26" as="geometry" />
        </mxCell>
        <mxCell id="tFFEeebUZQ1XKsACCaUz-47" value="" style="endArrow=diamondThin;endFill=0;endSize=24;html=1;exitX=1;exitY=0.25;exitDx=0;exitDy=0;entryX=0;entryY=0.25;entryDx=0;entryDy=0;" edge="1" parent="1" source="sO7TEEYjLhYjtugjPbnS-41" target="tFFEeebUZQ1XKsACCaUz-42">
          <mxGeometry width="160" relative="1" as="geometry">
            <mxPoint x="837" y="368" as="sourcePoint" />
            <mxPoint x="950" y="440" as="targetPoint" />
          </mxGeometry>
        </mxCell>
        <mxCell id="tFFEeebUZQ1XKsACCaUz-48" value="return" style="html=1;verticalAlign=bottom;endArrow=open;dashed=1;endSize=8;entryX=0.5;entryY=0;entryDx=0;entryDy=0;" edge="1" parent="1" source="tFFEeebUZQ1XKsACCaUz-42" target="sO7TEEYjLhYjtugjPbnS-92">
          <mxGeometry relative="1" as="geometry">
            <mxPoint x="570" y="727.5" as="sourcePoint" />
            <mxPoint x="1354" y="720" as="targetPoint" />
          </mxGeometry>
        </mxCell>
        <mxCell id="tFFEeebUZQ1XKsACCaUz-50" value="变更防御结论" style="ellipse;shape=doubleEllipse;whiteSpace=wrap;html=1;aspect=fixed;" vertex="1" parent="1">
          <mxGeometry x="1690" y="677.5" width="85" height="85" as="geometry" />
        </mxCell>
        <mxCell id="tFFEeebUZQ1XKsACCaUz-52" value="引用" style="text;html=1;align=center;verticalAlign=middle;resizable=0;points=[];autosize=1;" vertex="1" parent="1">
          <mxGeometry x="1010" y="300" width="40" height="20" as="geometry" />
        </mxCell>
        <mxCell id="tFFEeebUZQ1XKsACCaUz-53" value="引用" style="text;html=1;align=center;verticalAlign=middle;resizable=0;points=[];autosize=1;" vertex="1" parent="1">
          <mxGeometry x="880" y="368" width="40" height="20" as="geometry" />
        </mxCell>
        <mxCell id="tFFEeebUZQ1XKsACCaUz-54" value="引用" style="text;html=1;align=center;verticalAlign=middle;resizable=0;points=[];autosize=1;" vertex="1" parent="1">
          <mxGeometry x="750" y="410" width="40" height="20" as="geometry" />
        </mxCell>
        <mxCell id="tFFEeebUZQ1XKsACCaUz-56" value="影响面为实体&amp;amp;关系组成的集合，共同构成本次变更的影响面拓扑，每个实体和边上包含防御规则所需的数据和属性" style="text;html=1;align=center;verticalAlign=middle;resizable=0;points=[];autosize=1;" vertex="1" parent="1">
          <mxGeometry x="610" y="677.5" width="620" height="20" as="geometry" />
        </mxCell>
      </root>
    </mxGraphModel>
  </diagram>
</mxfile>
